<svg width="64" height="56" viewBox="0 0 64 56" fill="none" xmlns="http://www.w3.org/2000/svg">
<path d="M60.8 0H19.2C16.672 0 14.4 1.12 12.8 2.88C11.2 1.12 8.928 0 6.4 0H3.2C1.44 0 0 1.44 0 3.2V41.6C0 43.36 1.44 44.8 3.2 44.8H19.2L28.8 54.4H35.2L44.8 44.8H60.8C62.56 44.8 64 43.36 64 41.6V3.2C64 1.44 62.56 0 60.8 0ZM12.8 38.4H6.4V6.4H6.4C8.928 6.4 12.8 7.84 12.8 10.4V38.4ZM57.6 38.4H19.2V6.4H57.6V38.4Z" fill="#FFFDF4"/>
<rect x="25.6" y="12.8" width="25.6" height="3.2" fill="#FFFDF4"/>
<rect x="25.6" y="19.2" width="25.6" height="3.2" fill="#FFFDF4"/>
<rect x="25.6" y="25.6" width="19.2" height="3.2" fill="#FFFDF4"/>
</svg>
