<svg width="60" height="66" viewBox="0 0 60 66" fill="none" xmlns="http://www.w3.org/2000/svg">
<path d="M53.25 6.6H49.5V0H42V6.6H18V0H10.5V6.6H6.75C3.024 6.6 0 9.57 0 13.2V59.4C0 63.03 3.024 66 6.75 66H53.25C56.976 66 60 63.03 60 59.4V13.2C60 9.57 56.976 6.6 53.25 6.6ZM53.25 59.4H6.75V23.1H53.25V59.4Z" fill="#FFD203"/>
<rect x="12" y="29.7" width="10.5" height="9.9" fill="#FFD203"/>
<rect x="24.75" y="29.7" width="10.5" height="9.9" fill="#FFD203"/>
<rect x="37.5" y="29.7" width="10.5" height="9.9" fill="#FFD203"/>
<rect x="12" y="43.56" width="10.5" height="9.9" fill="#FFD203"/>
<rect x="24.75" y="43.56" width="10.5" height="9.9" fill="#FFD203"/>
</svg>
