<svg width="203" height="142" viewBox="0 0 203 142" fill="none" xmlns="http://www.w3.org/2000/svg">
<path d="M140.809 0.0207241C122.272 -0.290131 105.526 4.95295 93.8818 13.5429C110.773 17.211 125.646 25.1792 136.638 35.9244C138.067 33.5205 140.675 31.9041 143.666 31.9041C148.179 31.9041 151.843 35.5721 151.843 40.0899C151.843 43.644 149.586 46.6489 146.43 47.7887C152.588 57.2284 156.179 67.9529 156.355 79.3301C156.386 81.2367 156.314 83.1329 156.159 85.0084C182.759 80.4078 202.507 64.0464 202.848 44.2139C203.252 20.3817 175.482 0.590624 140.809 0V0.0207241ZM167.948 48.2861C163.435 48.2861 159.771 44.618 159.771 40.1003C159.771 35.5825 163.435 31.9144 167.948 31.9144C172.46 31.9144 176.124 35.5825 176.124 40.1003C176.124 44.618 172.46 48.2861 167.948 48.2861Z" fill="#FFD203"/>
<path d="M147.713 86.0653C147.982 83.8894 148.116 81.6927 148.085 79.4752C147.63 50.1409 120.885 25.6455 86.1915 20.5786C81.9168 19.9569 77.5284 19.6046 73.0468 19.5942H72.8915C50.4627 19.5942 29.6485 27.6765 15.7586 41.7685C5.24287 52.4412 -0.201313 65.3521 0.00569047 79.0815C0.523198 112.032 34.1819 138.89 75.0443 138.962C76.5658 138.962 78.2011 138.921 79.8675 138.838H80.0435H80.2194L147.226 141.035L126.526 122.218L129.89 119.151C140.043 109.877 146.222 98.3234 147.723 86.0757L147.713 86.0653ZM51.2079 86.3244C46.6953 86.3244 43.0313 82.6563 43.0313 78.1385C43.0313 73.6208 46.6953 69.9527 51.2079 69.9527C55.7206 69.9527 59.3845 73.6208 59.3845 78.1385C59.3845 82.6563 55.7206 86.3244 51.2079 86.3244ZM75.4894 86.3244C70.9767 86.3244 67.3128 82.6563 67.3128 78.1385C67.3128 73.6208 70.9767 69.9527 75.4894 69.9527C80.0021 69.9527 83.666 73.6208 83.666 78.1385C83.666 82.6563 80.0021 86.3244 75.4894 86.3244ZM99.7709 86.3244C95.2582 86.3244 91.5942 82.6563 91.5942 78.1385C91.5942 73.6208 95.2582 69.9527 99.7709 69.9527C104.284 69.9527 107.947 73.6208 107.947 78.1385C107.947 82.6563 104.284 86.3244 99.7709 86.3244Z" fill="#FFD203"/>
</svg>
