<svg width="91" height="100" viewBox="0 0 91 100" fill="none" xmlns="http://www.w3.org/2000/svg">
<path d="M88.8281 99.6244H27.3619C17.9774 92.5126 9.72979 83.9923 4.42784 73.2169C1.75377 67.7808 0.350762 62.1875 0.0450914 56.2258C-0.808147 39.5997 10.5511 30.2592 25.3267 26.0601C33.4764 23.7433 41.779 22.8912 50.2663 22.6559C52.8766 22.5833 55.2219 22.4283 57.8179 22.7054C59.1341 22.845 60.481 22.7428 61.8785 22.701L46.6895 11.135L64.6427 19.8466L61.0077 10.6017L66.5251 18.7141L68.6176 0C68.8814 1.69768 68.9738 3.25242 69.1178 4.9666L70.2581 18.559L77.5458 8.13875L72.3956 19.6971L88.9392 12.2136L73.9602 23.4498C78.4914 23.8379 82.6894 24.0182 87.0348 24.7637L74.0438 25.7247L90.2883 38.7333L72.6331 29.5687L78.3671 41.7361L70.0964 30.257L67.9831 51.9805L66.369 30.2801L60.1907 38.5794C61.3254 35.1994 62.8263 32.5121 64.2414 29.3059L48.0277 37.4084L61.6179 26.4053C50.8084 28.0183 37.581 37.9262 33.9382 48.7512C30.5935 58.6887 35.5601 67.4136 42.4937 74.2527C54.3214 85.9176 73.5391 94.1201 88.8303 99.6244H88.8281Z" fill="url(#paint0_linear_1_132)"/>
<defs>
<linearGradient id="paint0_linear_1_132" x1="171.182" y1="171.742" x2="170.544" y2="-41.9361" gradientUnits="userSpaceOnUse">
<stop offset="0.167912" stop-color="#FFFBEA" stop-opacity="0"/>
<stop offset="0.873346" stop-color="#F8C62C"/>
</linearGradient>
</defs>
</svg>
