<svg width="64" height="64" viewBox="0 -47.5 232 232" fill="none" xmlns="http://www.w3.org/2000/svg">
<path d="M123.137 69.3256C122.992 64.1965 125.445 59.3989 129.906 56.881C132.007 55.6997 134.46 55.6791 136.799 55.8759C137.389 56.0521 138.238 56.5391 138.89 56.4976C140.815 57.5027 142.719 58.6115 144.717 59.4404C146.59 60.2175 149.789 59.3264 150.161 56.9639C150.741 53.3062 150.068 49.5552 150.451 45.8457C150.503 45.3898 150.223 45.0582 149.934 44.9856C149.934 44.9131 149.861 44.8406 149.861 44.7784C150.016 44.7473 150.379 44.7162 150.368 44.4779L150.296 43.0169C150.203 41.2864 150.285 39.4628 150.306 37.7012L150.451 27.899L156.402 27.8057C156.723 27.8057 157.158 27.8679 157.479 27.8575L163.316 27.785L171.1 27.8472C173.78 27.8679 176.544 27.7229 179.297 28.0441C181.812 28.3342 182.878 31.049 182.816 33.256L181.17 36.7169C180.332 38.4888 179.814 40.1881 179.328 42.0014C178.624 44.5712 179.09 46.7782 180.228 49.0993C182.857 54.4667 189.688 56.6531 195.174 54.2491C197.327 53.3062 199.801 52.0835 200.846 49.8764C201.281 49.7935 201.322 49.2029 201.519 48.9542C203.765 46.1255 203.62 42.3848 202.274 39.1623C201.591 37.5148 200.722 35.9708 199.873 34.4062C198.859 32.5307 199.345 30.1993 200.773 28.7383C201.363 28.5207 202.316 27.9612 203.04 27.9508L207.636 27.8679C210.13 27.8264 212.624 27.9197 215.119 27.8886C216.133 27.8783 217.261 27.8368 218.276 27.8783C219.621 27.9301 220.987 27.9715 222.354 27.9404C224.734 27.8886 227.156 27.7332 229.506 27.899L231.244 28.0233L231.296 30.6448L231.317 33.0592C231.317 34.6031 231.617 36.3439 231.4 37.836C231.058 40.2503 231.265 42.6646 231.327 45.0996C231.379 47.0683 230.934 50.7261 231.317 52.5394C231.358 52.7466 231.234 53.1508 231.317 53.358C230.892 54.446 231.451 55.9484 231.068 57.1297C230.447 59.0881 228.357 59.9274 226.514 59.9377C224.403 59.9585 218.327 53.9071 211.714 56.6116C211.476 56.7152 211.051 56.7256 211.072 57.0675C210.989 57.0882 210.906 57.1297 210.834 57.1608C208.774 58.0001 207.066 59.6994 206.042 61.6475C205.845 62.0205 205.628 62.6111 205.41 62.9323C204.106 64.8907 204.023 67.3776 204.168 69.6779C204.324 72.1129 205.193 74.3407 206.735 76.2576C207.977 77.8015 209.406 79.0657 211.31 79.6252C212.366 79.9361 213.297 80.4231 214.622 80.3816C217.696 80.278 220.78 79.5631 223.295 77.9052C223.647 77.6772 224.186 77.6565 224.382 77.2316C225.117 76.6514 226.318 76.9311 227.073 76.4959C228.667 76.9311 230.54 77.5114 231.006 79.3869C231.182 80.0915 231.255 81.2002 231.193 81.9152C230.996 84.2466 231.151 86.5987 231.162 88.9301C231.162 90.816 230.996 92.7122 231.11 94.5981C231.151 95.3234 231.193 96.1938 231.141 96.9191C230.996 99.2402 231.079 101.561 231.141 103.872C231.182 105.457 230.924 107.022 231.11 108.773C230.396 108.773 229.826 109.105 229.33 109.042C226.866 108.69 224.341 109.001 221.857 108.897C220.325 108.835 218.814 108.96 217.292 109.001C216.485 109.022 215.388 109.032 214.581 108.97C212.376 108.783 210.161 108.98 207.946 108.918L203.113 108.794C201.57 108.752 201.177 109.561 200.391 110.327C198.962 111.716 198.91 113.622 199.832 115.342C201.022 117.57 202.181 119.839 202.833 122.285C203.423 124.492 203.423 126.979 202.285 128.927L200.908 131.269C199.49 132.553 198.145 133.983 196.364 134.719L195.868 134.947C195.505 135.113 195.102 135.31 194.719 135.444C192.452 136.211 190.051 136.087 187.701 135.962C187.142 135.465 186.076 135.465 185.424 135.092C183.095 133.755 180.673 132.077 179.514 129.548C178.645 127.642 178.438 124.938 178.738 122.855C179.038 120.71 180.249 118.637 181.077 116.669C181.408 115.861 181.884 115.197 182.164 114.389C182.93 112.213 181.874 109.768 179.483 108.856C178.924 108.649 178.241 108.97 177.744 108.866C177.31 108.773 176.885 108.97 176.482 108.918C174.422 108.638 172.331 108.866 170.261 108.783C167.87 108.69 165.479 108.856 163.109 108.897C160.739 108.939 158.431 108.514 156.123 108.846C155.988 108.866 155.802 108.98 155.668 108.949C153.908 108.514 152.221 108.928 150.172 108.7C150.565 107.105 149.944 105.374 150.141 103.872C150.482 101.344 150.016 98.7635 150.12 96.2559C150.317 91.4584 150.317 86.6194 150.244 81.8012C150.234 81.0655 150.482 80.164 150.203 79.3144C149.437 76.9415 146.59 75.9053 144.448 76.8586C142.399 77.7705 140.505 79.0242 138.331 79.6666C133.425 81.0966 128.405 79.9153 125.393 75.6566C124.224 74.0091 123.178 71.3668 123.116 69.3256H123.137Z" fill="#FFFDF4"/>
<path d="M43.7621 26.9249C45.3042 26.7487 47.219 26.9973 48.7922 27.1424C50.4586 27.2978 52.1146 27.1735 53.7809 27.0596C54.9712 26.9767 56.3995 27.5466 57.5173 27.1839C60.2084 26.3031 61.1606 23.1635 59.8979 20.7596C58.8939 18.853 57.6726 16.9775 57.1758 14.9984C56.886 13.8379 56.5341 11.8173 56.6583 10.636C56.9585 7.73472 58.2626 4.74018 60.5603 2.89578C62.1336 1.63163 64.4727 0.502158 66.4702 0.139494C68.4678 -0.22317 70.7967 0.191359 72.7321 0.585108C77.2655 1.51767 81.1985 6.55349 81.478 11.1127C81.5711 12.6255 80.9915 14.6254 80.5464 16.0553C80.267 16.9361 77.8555 20.1586 77.3897 22.7697C77.2759 23.4225 77.3587 23.7334 77.5139 24.3654C77.8141 25.6399 78.5592 27.3704 79.9254 27.3704H82.0576C82.9685 27.3704 83.931 27.2357 84.8005 27.36C86.8601 27.6605 88.9405 27.5258 90.9795 27.3911C92.1594 27.3186 94.0535 27.6502 95.1299 27.4326C93.4946 27.7641 102.654 27.6294 100.967 27.474C102.282 27.5983 103.565 27.6502 104.89 27.5777C106.215 27.5051 107.488 27.9403 109.206 27.6087C109.113 29.4946 109.33 31.0799 109.372 32.7896C109.403 33.9709 109.082 35.1832 109.237 36.4163C109.061 35.0278 109.165 42.9339 109.165 42.6023L109.206 47.0889C109.227 48.7157 109.123 50.2493 109.134 51.9072C109.144 53.4822 108.854 55.2333 109.072 56.8291C108.057 59.4402 105.573 60.694 102.872 60.0827C102.51 59.6475 101.775 59.4299 101.309 59.1294C99.0422 57.6477 96.4236 56.6944 93.774 56.5182C92.6665 56.4457 91.8075 56.3939 90.7 56.5286C88.0297 56.8498 85.8147 58.259 84.2415 60.4039C82.6683 62.5488 81.0019 65.2429 81.6332 67.9784C81.4987 68.1442 81.3745 68.4033 81.3848 68.6519C81.4056 71.1388 82.2646 73.294 83.4652 75.242C84.8108 77.4491 86.6531 79.107 89.044 80.0914C90.4516 80.6716 91.6004 80.8167 93.1115 80.7856C95.7301 80.7234 98.1417 79.5111 100.512 78.3195L103.079 77.0346C105.48 76.6512 108.575 78.0604 108.844 80.7131C109.03 82.516 108.554 85.8111 108.844 87.4794C108.958 88.1114 108.865 89.3549 108.813 90.0076C108.606 92.3183 108.637 94.6393 108.709 96.9604C108.74 97.7893 108.761 98.8463 108.709 99.6545C108.575 102.442 108.337 105.312 108.657 108.089C108.668 108.099 108.606 108.773 108.585 108.804C108.357 109.177 108.254 109.042 107.767 109.063C106.898 109.094 106.008 109.001 105.128 108.98C102.779 108.897 100.377 108.773 98.0279 108.939C97.4586 108.98 96.8894 109.053 96.3202 109.022C95.2334 108.959 94.188 109.053 93.1115 108.959C91.2589 108.794 89.4165 108.804 87.5535 108.856C85.173 108.928 82.7718 108.659 80.3809 108.742C77.9383 108.825 76.3132 111.705 76.5513 113.892C76.7272 115.446 77.6484 116.596 78.3626 118.005C80.2256 121.673 81.2296 126.046 78.9733 129.735C78.2799 130.864 77.4828 131.921 76.5513 132.864C74.6676 134.781 72.256 136.17 69.5442 136.439C66.5737 136.739 63.5101 135.983 60.9122 134.532C59.6081 133.807 58.542 132.657 57.6622 131.455C54.9402 127.714 55.0748 122.585 57.2276 118.637C57.8176 117.549 58.4179 116.461 59.0078 115.373C60.2084 113.177 59.4426 110.514 57.3622 109.229C56.3065 108.576 55.1575 108.41 53.9362 108.493C48.9785 108.835 43.762 108.576 38.7836 108.255C35.0886 108.016 31.2384 107.643 27.5848 108.452C27.1397 108.11 27.3053 107.654 27.3053 107.053L27.4502 79.4178C27.4605 77.3662 24.6764 76.0814 23.0825 76.2782C22.3994 76.3611 21.7782 76.216 21.033 76.6927C19.1182 77.905 17.0794 78.8376 14.9265 79.5422C9.60655 81.283 4.38998 78.4646 1.76104 73.7603C-1.58206 67.7919 -0.0605403 61.2639 5.43539 57.171C8.91305 54.5806 12.8565 55.5131 16.5929 56.7462C19.0252 57.5544 22.9376 60.4868 25.4112 58.7563C26.291 58.145 27.6469 57.5647 27.74 56.1037C27.8228 54.6634 27.9366 53.1299 27.6261 51.7725C27.9469 51.2751 27.6054 50.5291 27.6675 50.011C27.9573 47.5345 27.9574 44.9648 27.709 42.4883C28.0091 41.7734 27.7089 40.7683 27.7813 40.0222C27.9987 37.6079 28.0402 35.1625 27.8435 32.7378C27.7814 31.8881 28.0919 30.997 27.947 30.0956C27.7917 29.1423 28.1022 28.0957 28.0401 26.9249L35.2232 27.0078C38.1212 27.0388 40.9675 27.2461 43.7413 26.9352L43.7621 26.9249Z" fill="#FFFDF4"/>
</svg>
