<svg width="243" height="189" viewBox="0 0 243 189" fill="none" xmlns="http://www.w3.org/2000/svg">
<path d="M102.074 165.727L93.1416 188.565H151.713L144.872 165.603L102.074 165.727Z" fill="#FFD203"/>
<path d="M233.199 0H9.02537C4.03659 0 0 4.05147 0 9.03551V146.537C0 151.531 4.04694 155.572 9.02537 155.572H233.199C238.188 155.572 242.225 151.521 242.225 146.537V9.03551C242.225 4.04111 238.178 0 233.199 0ZM122.515 28.2671C133.382 28.0598 142.346 36.7119 142.553 47.5815C142.76 58.4614 134.117 67.4348 123.26 67.642C112.403 67.8492 103.429 59.1971 103.222 48.3276C103.015 37.458 111.658 28.4743 122.515 28.2671ZM120.072 121.047C100.738 120.446 85.3888 109.193 85.8028 95.8987C86.2168 82.6045 102.218 72.3152 121.552 72.9162C140.886 73.5172 156.236 84.7701 155.822 98.0643C155.408 111.359 139.406 121.648 120.072 121.047Z" fill="#FFD203"/>
</svg>
