<svg width="30" height="70" viewBox="0 0 30 70" fill="none" xmlns="http://www.w3.org/2000/svg">
<path d="M2.15262 35.8293C2.50827 36.26 2.8954 36.7418 3.41472 36.9779C3.99383 37.2395 4.63275 37.1438 5.21186 36.946C6.46137 36.5248 7.50315 35.657 8.6897 35.1018C9.24049 34.8434 9.84794 34.4924 10.468 34.4669C10.9904 34.4445 11.4185 34.7094 11.8245 35.0125C13.0016 35.8835 14.3896 37.0545 15.9601 36.6269C17.1278 36.3079 17.6849 35.0476 18.5882 34.3297C19.1138 33.9117 19.7055 33.6597 20.3822 33.7522C21.0589 33.8447 21.6789 34.1829 22.2454 34.5498C23.2683 35.2071 24.3762 36.3015 25.6949 36.1292C26.1167 36.075 26.4597 35.8101 26.7776 35.5421C27.2938 35.1082 27.8005 34.6679 28.3545 34.2818C28.6409 34.084 28.9462 33.9117 29.2609 33.7777C28.109 31.1231 24.9112 23.7655 21.7639 16.6312C19.8125 17.6075 17.7227 18.2042 15.3684 18.1882C13.4139 18.1755 11.5097 17.8277 9.70316 17.0715C9.16496 16.8482 8.60787 16.6153 8.06967 16.3568C4.80585 23.7623 1.38152 31.624 0.327148 34.0489C1.03845 34.4765 1.5861 35.1465 2.14947 35.8293H2.15262Z" fill="#FFD203"/>
<path d="M27.8196 38.5063C27.3538 38.9051 26.8848 39.3039 26.2963 39.4985C25.6164 39.7219 24.8674 39.6006 24.197 39.3964C22.9002 39.0008 21.9781 37.8681 20.7317 37.364C20.2344 37.163 19.841 37.163 19.4035 37.4884C18.944 37.8298 18.5884 38.318 18.2107 38.7487C17.8141 39.1986 17.3798 39.6198 16.8258 39.8655C16.0547 40.2069 15.2238 40.2707 14.4024 40.092C13.6218 39.9229 12.8822 39.5336 12.2275 39.0774C11.7082 38.7168 11.2267 38.267 10.6664 37.967C10.6664 37.967 10.5752 37.9447 10.5626 37.9447C10.4556 37.9447 10.465 37.9479 10.3926 37.967C10.1219 38.0372 9.87329 38.1585 9.6215 38.2733C9.05183 38.5318 8.51363 38.8349 7.97543 39.1571C6.84238 39.8336 5.59917 40.6025 4.24265 40.6185C3.01518 40.6344 2.10559 39.9229 1.35022 39.0168C0.9568 38.5477 0.531905 37.9128 0 37.5012V69.3374H29.708V37.1343C28.9904 37.447 28.2885 38.1042 27.8196 38.5031V38.5063Z" fill="#FFD203"/>
<path d="M8.93338 12.6905L14.3822 0.485236C14.6725 -0.164747 15.5881 -0.160233 15.8739 0.489749L21.22 12.6995C21.4656 13.2592 21.0592 13.6429 20.5679 13.8234C19.8935 14.0672 19.4648 14.2477 18.71 14.4283C16.3205 15.0015 13.806 15.164 11.4345 14.5095C10.7065 14.3064 8.38403 13.9227 8.92891 12.695L8.93338 12.6905Z" fill="#FFD203"/>
</svg>
