<svg width="72" height="48" viewBox="0 0 72 48" fill="none" xmlns="http://www.w3.org/2000/svg">
<path d="M24 24C30.624 24 36 18.624 36 12C36 5.376 30.624 0 24 0C17.376 0 12 5.376 12 12C12 18.624 17.376 24 24 24ZM24 6C27.312 6 30 8.688 30 12C30 15.312 27.312 18 24 18C20.688 18 18 15.312 18 12C18 8.688 20.688 6 24 6Z" fill="#FFD203"/>
<path d="M24 27C15.984 27 0 31.02 0 39V48H48V39C48 31.02 32.016 27 24 27ZM42 42H6V39.06C6.72 36.36 16.08 33 24 33C31.92 33 41.28 36.36 42 39V42Z" fill="#FFD203"/>
<path d="M48 24C54.624 24 60 18.624 60 12C60 5.376 54.624 0 48 0C45.36 0 42.96 0.912 41.04 2.4C43.44 5.04 44.88 8.4 44.88 12C44.88 15.6 43.44 18.96 41.04 21.6C42.96 23.088 45.36 24 48 24Z" fill="#FFD203"/>
<path d="M51.36 28.08C53.76 29.76 57.6 31.2 57.6 39V48H72V39C72 32.64 59.76 29.16 51.36 28.08Z" fill="#FFD203"/>
</svg>
