<svg width="64" height="64" viewBox="-12.5 0 186 186" fill="none" xmlns="http://www.w3.org/2000/svg">
<path d="M151.764 0H9.02534C4.03656 0 0 4.05151 0 9.03554V176.431C0 181.425 4.04691 185.466 9.02534 185.466H151.764C156.753 185.466 160.79 181.415 160.79 176.431V9.03554C160.79 4.04114 156.743 0 151.764 0ZM46.938 13.574C54.4004 13.429 60.5588 19.3766 60.7037 26.8475C60.8486 34.3184 54.9076 40.4837 47.4451 40.6287C39.9827 40.7738 33.8243 34.8261 33.6794 27.3552C33.5345 19.8844 39.4755 13.7191 46.938 13.574ZM46.2756 44.2346C59.5548 44.6491 70.0913 52.379 69.8118 61.5078C69.5324 70.6366 58.5405 77.7034 45.2612 77.2993C31.982 76.8848 21.4455 69.1548 21.725 60.026C22.0045 50.8973 32.9963 43.8305 46.2756 44.2346ZM140.876 163.727H19.686V155.769H140.876V163.727ZM140.876 149.107H19.686V141.149H140.876V149.107ZM140.876 134.724H19.686V126.767H140.876V134.724ZM140.876 119.596H19.686V111.638H140.876V119.596ZM140.876 104.976H19.686V97.0178H140.876V104.976Z" fill="#FFFDF4"/>
</svg>
