<svg width="64" height="64" viewBox="-4 0 62 62" fill="none" xmlns="http://www.w3.org/2000/svg">
<path d="M50.2705 0H2.98956C1.33707 0 0 1.34201 0 2.99293V58.441C0 60.0953 1.3405 61.4339 2.98956 61.4339H50.2705C51.923 61.4339 53.26 60.0919 53.26 58.441V2.99293C53.26 1.33858 51.9195 0 50.2705 0ZM15.5477 4.49625C18.0196 4.4482 20.0595 6.41832 20.1075 8.89297C20.1555 11.3676 18.1876 13.4098 15.7157 13.4579C13.2439 13.5059 11.204 11.5358 11.156 9.06115C11.108 6.5865 13.0759 4.54431 15.5477 4.49625ZM15.3283 14.6523C19.727 14.7896 23.2171 17.35 23.1245 20.3739C23.0319 23.3977 19.391 25.7385 14.9924 25.6046C10.5937 25.4673 7.10363 22.9069 7.1962 19.8831C7.28876 16.8592 10.9297 14.5184 15.3283 14.6523ZM46.6638 54.2331H6.5208V51.5971H46.6638V54.2331ZM46.6638 49.3901H6.5208V46.7542H46.6638V49.3901ZM46.6638 44.6262H6.5208V41.9902H46.6638V44.6262ZM46.6638 39.6151H6.5208V36.9791H46.6638V39.6151ZM46.6638 34.7722H6.5208V32.1362H46.6638V34.7722Z" fill="#FFD203"/>
</svg>
