<svg width="64" height="64" viewBox="0 0 64 64" fill="none" xmlns="http://www.w3.org/2000/svg">
<path d="M32 0C14.328 0 0 14.328 0 32C0 49.672 14.328 64 32 64C49.672 64 64 49.672 64 32C64 14.328 49.672 0 32 0ZM32 57.6C17.864 57.6 6.4 46.136 6.4 32C6.4 17.864 17.864 6.4 32 6.4C46.136 6.4 57.6 17.864 57.6 32C57.6 46.136 46.136 57.6 32 57.6Z" fill="#FFFDF4"/>
<path d="M32 12.8C24.4 12.8 12.8 19.4 12.8 32C12.8 44.6 24.4 51.2 32 51.2C39.6 51.2 51.2 44.6 51.2 32C51.2 19.4 39.6 12.8 32 12.8ZM32 44.8C26.928 44.8 19.2 40.072 19.2 32C19.2 23.928 26.928 19.2 32 19.2C37.072 19.2 44.8 23.928 44.8 32C44.8 40.072 37.072 44.8 32 44.8Z" fill="#FFFDF4"/>
<circle cx="32" cy="32" r="8" fill="#FFFDF4"/>
</svg>
