<svg width="64" height="64" viewBox="-48.5 0 169 169" fill="none" xmlns="http://www.w3.org/2000/svg">
<path d="M5.21717 86.8356C6.07912 87.8795 7.01736 89.0472 8.27596 89.6194C9.6795 90.2535 11.228 90.0215 12.6315 89.5421C15.6598 88.5214 18.1846 86.418 21.0604 85.0725C22.3953 84.4462 23.8674 83.5956 25.3701 83.5337C26.6364 83.4796 27.6738 84.1214 28.6578 84.856C31.5106 86.9671 34.8745 89.805 38.6809 88.7688C41.5108 87.9955 42.861 84.9411 45.0502 83.2012C46.3241 82.1882 47.7581 81.5773 49.3981 81.8016C51.0381 82.0258 52.5408 82.8455 53.9138 83.7348C56.3929 85.3277 59.078 87.9801 62.2741 87.5625C63.2962 87.431 64.1276 86.7892 64.8981 86.1397C66.149 85.088 67.3771 84.0209 68.7197 83.0852C69.4138 82.6058 70.1537 82.1882 70.9165 81.8634C68.1247 75.4297 60.3747 57.5979 52.7468 40.3074C48.0175 42.6736 42.9525 44.1196 37.2468 44.081C32.5099 44.05 27.895 43.2072 23.5166 41.3745C22.2122 40.8332 20.862 40.2687 19.5577 39.6423C11.6475 57.5902 3.34832 76.6438 0.792969 82.5207C2.51688 83.5569 3.84414 85.1808 5.20954 86.8356H5.21717Z" fill="#FFFDF4"/>
<path d="M67.4232 93.3234C66.2943 94.29 65.1577 95.2566 63.7313 95.7283C62.0837 96.2696 60.2682 95.9757 58.6435 95.4808C55.5008 94.522 53.2658 91.7768 50.2451 90.555C49.0399 90.0679 48.0864 90.0679 47.0262 90.8566C45.9125 91.684 45.0505 92.8672 44.1352 93.9111C43.1741 95.0014 42.1214 96.0221 40.7789 96.6176C38.9101 97.445 36.8963 97.5996 34.9054 97.1666C33.0137 96.7568 31.2211 95.8134 29.6345 94.7076C28.3759 93.8338 27.2088 92.7434 25.851 92.0165C25.851 92.0165 25.6298 91.9624 25.5993 91.9624C25.34 91.9624 25.3629 91.9701 25.1874 92.0165C24.5314 92.1867 23.9288 92.4805 23.3186 92.7589C21.9379 93.3853 20.6335 94.1199 19.3292 94.9009C16.5831 96.5402 13.5701 98.4038 10.2824 98.4425C7.30755 98.4812 5.10308 96.7568 3.27238 94.5606C2.31889 93.4239 1.28912 91.8851 0 90.8876V168.045H72V89.9983C70.2608 90.7561 68.5598 92.3491 67.4232 93.3157V93.3234Z" fill="#FFFDF4"/>
<path d="M21.6509 30.7565L34.8566 1.17601C35.5602 -0.399278 37.7792 -0.388339 38.4719 1.18695L51.4287 30.7783C52.024 32.1348 51.039 33.0647 49.8483 33.5023C48.2138 34.093 47.1747 34.5306 45.3454 34.9682C39.5544 36.3575 33.4603 36.7513 27.7126 35.1651C25.9482 34.6728 20.3195 33.7429 21.6401 30.7674L21.6509 30.7565Z" fill="#FFFDF4"/>
</svg>
