<svg width="64" height="64" viewBox="0 -9.5 169 169" fill="none" xmlns="http://www.w3.org/2000/svg">
<path d="M168.604 146.252C168.604 147.909 167.261 149.252 165.604 149.252H2.9998C1.34294 149.252 -0.000198364 147.909 -0.000198364 146.252V100.94C-0.000198364 99.2831 1.34294 97.9399 2.9998 97.9399H50.4377C52.0945 97.9399 53.4377 96.5968 53.4377 94.9399V51.5762C53.4377 49.9194 54.7808 48.5762 56.4377 48.5762H106.008C107.665 48.5762 109.008 47.2331 109.008 45.5762V3C109.008 1.34314 110.351 0 112.008 0H165.614C167.271 0 168.614 1.34327 168.614 3.00021L168.604 146.252Z" fill="#FFD203"/>
</svg>
