<svg width="493" height="286" viewBox="0 0 493 286" fill="none" xmlns="http://www.w3.org/2000/svg">
<g filter="url(#filter0_n_7_89)">
<path d="M410.666 285.584H234.467C207.565 265.197 183.922 240.773 168.724 209.884C161.058 194.301 157.036 178.267 156.16 161.177C153.714 113.517 186.277 86.7411 228.632 74.7039C251.994 68.0628 275.795 65.62 300.124 64.9455C307.607 64.7375 314.33 64.2931 321.772 65.0873C325.545 65.4876 329.406 65.1945 333.412 65.0747L289.871 31.9196L341.336 56.8923L330.916 30.3909L346.732 53.6458L352.73 0C353.487 4.86658 353.751 9.32341 354.164 14.2373L357.433 53.2014L378.324 23.3306L363.56 56.4637L410.984 35.0116L368.045 67.2212C381.035 68.3338 393.069 68.8508 405.525 70.9878L368.285 73.7425L414.852 111.033L364.241 84.7617L380.678 119.641L356.97 86.7348L350.911 149.007L346.284 86.801L328.574 110.592C331.827 100.903 336.129 93.1994 340.185 84.0084L293.707 107.235L332.665 75.6936C301.678 80.3175 263.761 108.72 253.318 139.75C243.73 168.237 257.967 193.248 277.843 212.853C311.749 246.292 366.838 269.805 410.672 285.584H410.666Z" fill="url(#paint0_linear_7_89)"/>
</g>
<path d="M487.168 220.704V231.875C487.168 232.797 487.364 233.454 487.756 233.846C488.148 234.215 488.828 234.399 489.796 234.399H492.114V237.062H489.278C487.525 237.062 486.211 236.659 485.335 235.852C484.459 235.045 484.021 233.719 484.021 231.875V220.704H481.565V218.11H484.021V213.338H487.168V218.11H492.114V220.704H487.168Z" fill="#780E1C"/>
<path d="M471.479 217.765C473.785 217.765 475.652 218.468 477.082 219.874C478.511 221.258 479.226 223.263 479.226 225.892V237.062H476.113V226.341C476.113 224.451 475.641 223.01 474.696 222.018C473.75 221.004 472.459 220.497 470.822 220.497C469.162 220.497 467.836 221.016 466.845 222.053C465.877 223.091 465.392 224.601 465.392 226.584V237.062H462.245V218.11H465.392V220.808C466.015 219.84 466.857 219.09 467.917 218.56C469.001 218.03 470.188 217.765 471.479 217.765Z" fill="#780E1C"/>
<path d="M459.129 226.86C459.129 227.46 459.094 228.094 459.025 228.762H443.877C443.992 230.63 444.627 232.094 445.779 233.155C446.955 234.192 448.373 234.711 450.033 234.711C451.393 234.711 452.523 234.4 453.422 233.777C454.345 233.131 454.99 232.278 455.359 231.218H458.748C458.241 233.039 457.227 234.526 455.705 235.679C454.183 236.809 452.293 237.374 450.033 237.374C448.235 237.374 446.621 236.97 445.191 236.163C443.785 235.356 442.678 234.215 441.871 232.74C441.064 231.241 440.661 229.512 440.661 227.552C440.661 225.592 441.053 223.875 441.837 222.399C442.621 220.923 443.716 219.794 445.122 219.01C446.552 218.203 448.189 217.799 450.033 217.799C451.831 217.799 453.422 218.191 454.806 218.975C456.189 219.759 457.25 220.843 457.987 222.226C458.748 223.586 459.129 225.131 459.129 226.86ZM455.878 226.203C455.878 225.004 455.613 223.978 455.082 223.125C454.552 222.249 453.826 221.592 452.904 221.154C452.004 220.693 451.001 220.462 449.895 220.462C448.304 220.462 446.944 220.97 445.814 221.984C444.707 222.998 444.073 224.405 443.912 226.203H455.878Z" fill="#780E1C"/>
<path d="M430.034 217.765C431.51 217.765 432.824 218.076 433.977 218.698C435.13 219.298 436.04 220.209 436.709 221.431C437.377 222.652 437.712 224.14 437.712 225.892V237.062H434.599V226.341C434.599 224.451 434.127 223.01 433.181 222.018C432.259 221.004 431.003 220.497 429.412 220.497C427.775 220.497 426.472 221.027 425.504 222.088C424.535 223.125 424.051 224.635 424.051 226.618V237.062H420.939V226.341C420.939 224.451 420.466 223.01 419.521 222.018C418.598 221.004 417.342 220.497 415.751 220.497C414.114 220.497 412.811 221.027 411.843 222.088C410.875 223.125 410.391 224.635 410.391 226.618V237.062H407.243V218.11H410.391V220.843C411.013 219.851 411.843 219.09 412.881 218.56C413.941 218.03 415.105 217.765 416.374 217.765C417.964 217.765 419.371 218.122 420.593 218.837C421.815 219.551 422.725 220.601 423.325 221.984C423.855 220.647 424.731 219.609 425.953 218.871C427.175 218.134 428.536 217.765 430.034 217.765Z" fill="#780E1C"/>
<path d="M404.127 226.86C404.127 227.46 404.092 228.094 404.023 228.762H388.875C388.991 230.63 389.625 232.094 390.778 233.155C391.953 234.192 393.371 234.711 395.031 234.711C396.392 234.711 397.521 234.4 398.421 233.777C399.343 233.131 399.988 232.278 400.357 231.218H403.747C403.239 233.039 402.225 234.526 400.703 235.679C399.181 236.809 397.291 237.374 395.031 237.374C393.233 237.374 391.619 236.97 390.19 236.163C388.783 235.356 387.677 234.215 386.87 232.74C386.063 231.241 385.659 229.512 385.659 227.552C385.659 225.592 386.051 223.875 386.835 222.399C387.619 220.923 388.714 219.794 390.121 219.01C391.55 218.203 393.187 217.799 395.031 217.799C396.83 217.799 398.421 218.191 399.804 218.975C401.187 219.759 402.248 220.843 402.986 222.226C403.747 223.586 404.127 225.131 404.127 226.86ZM400.876 226.203C400.876 225.004 400.611 223.978 400.081 223.125C399.55 222.249 398.824 221.592 397.902 221.154C397.003 220.693 396 220.462 394.893 220.462C393.302 220.462 391.942 220.97 390.812 221.984C389.706 222.998 389.071 224.405 388.91 226.203H400.876Z" fill="#780E1C"/>
<path d="M365.69 227.552C365.69 225.592 366.082 223.886 366.866 222.434C367.649 220.958 368.733 219.817 370.116 219.01C371.523 218.203 373.125 217.799 374.924 217.799C377.252 217.799 379.166 218.364 380.665 219.494C382.186 220.624 383.189 222.191 383.673 224.197H380.284C379.961 223.045 379.327 222.134 378.382 221.465C377.46 220.797 376.307 220.462 374.924 220.462C373.125 220.462 371.673 221.085 370.566 222.33C369.459 223.552 368.906 225.292 368.906 227.552C368.906 229.834 369.459 231.598 370.566 232.843C371.673 234.088 373.125 234.711 374.924 234.711C376.307 234.711 377.46 234.388 378.382 233.742C379.304 233.097 379.938 232.175 380.284 230.976H383.673C383.166 232.912 382.152 234.469 380.63 235.645C379.108 236.797 377.206 237.374 374.924 237.374C373.125 237.374 371.523 236.97 370.116 236.163C368.733 235.356 367.649 234.215 366.866 232.74C366.082 231.264 365.69 229.535 365.69 227.552Z" fill="#780E1C"/>
<path d="M343.356 227.517C343.356 225.581 343.748 223.886 344.532 222.434C345.316 220.958 346.388 219.817 347.748 219.01C349.131 218.203 350.665 217.799 352.348 217.799C354.008 217.799 355.449 218.157 356.671 218.871C357.893 219.586 358.803 220.485 359.403 221.569V218.111H362.585V237.063H359.403V233.535C358.78 234.642 357.847 235.564 356.602 236.302C355.38 237.016 353.95 237.374 352.313 237.374C350.63 237.374 349.108 236.959 347.748 236.129C346.388 235.299 345.316 234.134 344.532 232.636C343.748 231.137 343.356 229.431 343.356 227.517ZM359.403 227.552C359.403 226.122 359.115 224.877 358.538 223.817C357.962 222.756 357.178 221.949 356.187 221.396C355.218 220.82 354.146 220.531 352.97 220.531C351.794 220.531 350.722 220.808 349.754 221.361C348.786 221.915 348.013 222.722 347.437 223.782C346.86 224.843 346.572 226.088 346.572 227.517C346.572 228.97 346.86 230.238 347.437 231.322C348.013 232.382 348.786 233.201 349.754 233.777C350.722 234.33 351.794 234.607 352.97 234.607C354.146 234.607 355.218 234.33 356.187 233.777C357.178 233.201 357.962 232.382 358.538 231.322C359.115 230.238 359.403 228.981 359.403 227.552Z" fill="#780E1C"/>
<path d="M340.206 211.47V237.062H337.059V211.47H340.206Z" fill="#780E1C"/>
<path d="M334.185 220.013C334.185 222.018 333.493 223.69 332.11 225.027C330.749 226.341 328.663 226.999 325.85 226.999H321.216V237.062H318.069V212.958H325.85C328.571 212.958 330.634 213.615 332.04 214.929C333.47 216.243 334.185 217.938 334.185 220.013ZM325.85 224.405C327.602 224.405 328.893 224.024 329.723 223.264C330.553 222.503 330.968 221.419 330.968 220.013C330.968 217.038 329.262 215.551 325.85 215.551H321.216V224.405H325.85Z" fill="#780E1C"/>
<path d="M290.699 221.638C291.345 220.508 292.29 219.586 293.535 218.871C294.78 218.157 296.198 217.799 297.789 217.799C299.495 217.799 301.028 218.203 302.389 219.01C303.749 219.817 304.821 220.958 305.605 222.434C306.389 223.886 306.781 225.581 306.781 227.517C306.781 229.431 306.389 231.137 305.605 232.636C304.821 234.134 303.737 235.299 302.354 236.129C300.994 236.959 299.472 237.374 297.789 237.374C296.152 237.374 294.711 237.016 293.466 236.302C292.244 235.587 291.322 234.676 290.699 233.57V237.062H287.552V211.47H290.699V221.638ZM303.565 227.517C303.565 226.088 303.276 224.843 302.7 223.782C302.124 222.722 301.34 221.915 300.348 221.361C299.38 220.808 298.308 220.531 297.132 220.531C295.979 220.531 294.907 220.82 293.916 221.396C292.947 221.949 292.163 222.768 291.564 223.851C290.988 224.912 290.699 226.146 290.699 227.552C290.699 228.981 290.988 230.238 291.564 231.322C292.163 232.382 292.947 233.201 293.916 233.777C294.907 234.33 295.979 234.607 297.132 234.607C298.308 234.607 299.38 234.33 300.348 233.777C301.34 233.201 302.124 232.382 302.7 231.322C303.276 230.238 303.565 228.97 303.565 227.517Z" fill="#780E1C"/>
<path d="M274.734 237.374C272.959 237.374 271.345 236.97 269.892 236.163C268.463 235.356 267.333 234.215 266.503 232.74C265.696 231.241 265.292 229.512 265.292 227.552C265.292 225.615 265.707 223.909 266.538 222.434C267.391 220.935 268.543 219.794 269.996 219.01C271.448 218.203 273.074 217.799 274.872 217.799C276.671 217.799 278.296 218.203 279.749 219.01C281.201 219.794 282.342 220.923 283.172 222.399C284.025 223.875 284.452 225.592 284.452 227.552C284.452 229.512 284.014 231.241 283.138 232.74C282.285 234.215 281.12 235.356 279.645 236.163C278.169 236.97 276.532 237.374 274.734 237.374ZM274.734 234.607C275.864 234.607 276.924 234.342 277.916 233.812C278.907 233.281 279.702 232.486 280.302 231.425C280.924 230.365 281.236 229.074 281.236 227.552C281.236 226.03 280.936 224.739 280.336 223.679C279.737 222.618 278.953 221.834 277.985 221.327C277.016 220.797 275.967 220.531 274.838 220.531C273.685 220.531 272.624 220.797 271.656 221.327C270.711 221.834 269.95 222.618 269.373 223.679C268.797 224.739 268.509 226.03 268.509 227.552C268.509 229.097 268.785 230.399 269.339 231.46C269.915 232.521 270.676 233.316 271.621 233.846C272.567 234.353 273.604 234.607 274.734 234.607Z" fill="#780E1C"/>
<path d="M261.306 212.958V230.768C261.306 232.751 260.695 234.342 259.473 235.541C258.251 236.717 256.637 237.305 254.631 237.305C252.602 237.305 250.977 236.705 249.755 235.506C248.533 234.284 247.922 232.624 247.922 230.526H251.069C251.092 231.702 251.392 232.659 251.968 233.397C252.568 234.134 253.455 234.503 254.631 234.503C255.807 234.503 256.683 234.157 257.26 233.466C257.836 232.751 258.124 231.852 258.124 230.768V212.958H261.306Z" fill="#780E1C"/>
<path d="M234.958 237.062L231.811 233.881C230.635 235.103 229.378 236.013 228.041 236.613C226.704 237.189 225.194 237.478 223.511 237.478C221.851 237.478 220.375 237.178 219.084 236.578C217.816 235.979 216.825 235.126 216.11 234.019C215.418 232.912 215.072 231.621 215.072 230.146C215.072 228.463 215.545 226.987 216.49 225.719C217.459 224.428 218.876 223.413 220.744 222.676C220.006 221.799 219.476 220.993 219.153 220.255C218.83 219.517 218.669 218.71 218.669 217.834C218.669 216.819 218.923 215.909 219.43 215.102C219.96 214.272 220.709 213.626 221.678 213.165C222.646 212.704 223.764 212.473 225.032 212.473C226.277 212.473 227.361 212.715 228.283 213.2C229.206 213.684 229.897 214.364 230.358 215.24C230.819 216.093 231.027 217.05 230.981 218.111H227.834C227.857 217.165 227.592 216.427 227.038 215.897C226.485 215.344 225.77 215.067 224.894 215.067C223.972 215.067 223.223 215.332 222.646 215.863C222.093 216.37 221.816 217.027 221.816 217.834C221.816 218.526 222.001 219.194 222.369 219.84C222.761 220.485 223.407 221.281 224.306 222.226L231.5 229.454L232.122 228.486L234.474 224.543H237.863L235.027 229.454C234.635 230.146 234.174 230.872 233.644 231.633L239.073 237.062H234.958ZM223.511 234.78C224.756 234.78 225.874 234.538 226.865 234.054C227.88 233.57 228.837 232.82 229.736 231.806L222.646 224.681C219.695 225.811 218.219 227.598 218.219 230.042C218.219 231.402 218.704 232.532 219.672 233.431C220.663 234.33 221.943 234.78 223.511 234.78Z" fill="#780E1C"/>
<path d="M200.552 220.704V231.875C200.552 232.797 200.748 233.454 201.14 233.846C201.532 234.215 202.212 234.399 203.18 234.399H205.497V237.062H202.661C200.909 237.062 199.595 236.659 198.719 235.852C197.843 235.045 197.405 233.719 197.405 231.875V220.704H194.949V218.11H197.405V213.338H200.552V218.11H205.497V220.704H200.552Z" fill="#780E1C"/>
<path d="M184.863 217.765C187.168 217.765 189.036 218.468 190.465 219.874C191.895 221.258 192.61 223.263 192.61 225.892V237.062H189.497V226.341C189.497 224.451 189.024 223.01 188.079 222.018C187.134 221.004 185.843 220.497 184.206 220.497C182.546 220.497 181.22 221.016 180.229 222.053C179.26 223.091 178.776 224.601 178.776 226.584V237.062H175.629V218.11H178.776V220.808C179.399 219.84 180.24 219.09 181.301 218.56C182.384 218.03 183.572 217.765 184.863 217.765Z" fill="#780E1C"/>
<path d="M172.512 226.86C172.512 227.46 172.478 228.094 172.409 228.762H157.261C157.376 230.63 158.01 232.094 159.163 233.155C160.339 234.192 161.757 234.711 163.417 234.711C164.777 234.711 165.907 234.4 166.806 233.777C167.728 233.131 168.374 232.278 168.743 231.218H172.132C171.625 233.039 170.61 234.526 169.089 235.679C167.567 236.809 165.676 237.374 163.417 237.374C161.619 237.374 160.005 236.97 158.575 236.163C157.169 235.356 156.062 234.215 155.255 232.74C154.448 231.241 154.045 229.512 154.045 227.552C154.045 225.592 154.437 223.875 155.221 222.399C156.004 220.923 157.1 219.794 158.506 219.01C159.935 218.203 161.572 217.799 163.417 217.799C165.215 217.799 166.806 218.191 168.189 218.975C169.573 219.759 170.633 220.843 171.371 222.226C172.132 223.586 172.512 225.131 172.512 226.86ZM169.262 226.203C169.262 225.004 168.996 223.978 168.466 223.125C167.936 222.249 167.21 221.592 166.287 221.154C165.388 220.693 164.385 220.462 163.279 220.462C161.688 220.462 160.327 220.97 159.198 221.984C158.091 222.998 157.457 224.405 157.296 226.203H169.262Z" fill="#780E1C"/>
<path d="M143.418 217.765C144.894 217.765 146.208 218.076 147.361 218.698C148.513 219.298 149.424 220.209 150.093 221.431C150.761 222.652 151.096 224.14 151.096 225.892V237.062H147.983V226.341C147.983 224.451 147.51 223.01 146.565 222.018C145.643 221.004 144.386 220.497 142.795 220.497C141.158 220.497 139.856 221.027 138.887 222.088C137.919 223.125 137.435 224.635 137.435 226.618V237.062H134.322V226.341C134.322 224.451 133.85 223.01 132.904 222.018C131.982 221.004 130.726 220.497 129.135 220.497C127.498 220.497 126.195 221.027 125.227 222.088C124.259 223.125 123.774 224.635 123.774 226.618V237.062H120.627V218.11H123.774V220.843C124.397 219.851 125.227 219.09 126.264 218.56C127.325 218.03 128.489 217.765 129.757 217.765C131.348 217.765 132.755 218.122 133.977 218.837C135.199 219.551 136.109 220.601 136.709 221.984C137.239 220.647 138.115 219.609 139.337 218.871C140.559 218.134 141.919 217.765 143.418 217.765Z" fill="#780E1C"/>
<path d="M118.501 218.111L107.089 245.985H103.838L107.573 236.855L99.9297 218.111H103.423L109.371 233.466L115.25 218.111H118.501Z" fill="#780E1C"/>
<path d="M89.3591 237.374C87.5838 237.374 85.9699 236.97 84.5174 236.163C83.0879 235.356 81.9582 234.215 81.1282 232.74C80.3212 231.241 79.9177 229.512 79.9177 227.552C79.9177 225.615 80.3327 223.909 81.1627 222.434C82.0158 220.935 83.1686 219.794 84.6211 219.01C86.0736 218.203 87.6991 217.799 89.4974 217.799C91.2958 217.799 92.9212 218.203 94.3738 219.01C95.8263 219.794 96.9676 220.923 97.7976 222.399C98.6506 223.875 99.0772 225.592 99.0772 227.552C99.0772 229.512 98.6391 231.241 97.763 232.74C96.9099 234.215 95.7456 235.356 94.27 236.163C92.7944 236.97 91.1575 237.374 89.3591 237.374ZM89.3591 234.607C90.4888 234.607 91.5494 234.342 92.5408 233.812C93.5322 233.281 94.3277 232.486 94.9271 231.425C95.5496 230.365 95.8609 229.074 95.8609 227.552C95.8609 226.03 95.5611 224.739 94.9617 223.679C94.3622 222.618 93.5783 221.834 92.61 221.327C91.6416 220.797 90.5926 220.531 89.4629 220.531C88.3101 220.531 87.2495 220.797 86.2812 221.327C85.3359 221.834 84.575 222.618 83.9986 223.679C83.4222 224.739 83.134 226.03 83.134 227.552C83.134 229.097 83.4107 230.399 83.964 231.46C84.5404 232.521 85.3013 233.316 86.2466 233.846C87.1919 234.353 88.2294 234.607 89.3591 234.607Z" fill="#780E1C"/>
<path d="M76.7672 211.47V237.062H73.6201V211.47H76.7672Z" fill="#780E1C"/>
<path d="M54.4337 221.604C55.0563 220.52 55.9785 219.621 57.2005 218.906C58.4455 218.168 59.8865 217.799 61.5234 217.799C63.2065 217.799 64.7282 218.203 66.0885 219.01C67.4719 219.817 68.5555 220.958 69.3394 222.434C70.1233 223.886 70.5152 225.581 70.5152 227.517C70.5152 229.431 70.1233 231.137 69.3394 232.636C68.5555 234.134 67.4719 235.299 66.0885 236.129C64.7282 236.959 63.2065 237.374 61.5234 237.374C59.9095 237.374 58.4801 237.016 57.235 236.302C56.0131 235.564 55.0793 234.653 54.4337 233.57V246.054H51.2866V218.111H54.4337V221.604ZM67.2989 227.517C67.2989 226.088 67.0107 224.843 66.4343 223.782C65.8579 222.722 65.074 221.915 64.0826 221.361C63.1143 220.808 62.0422 220.531 60.8663 220.531C59.7135 220.531 58.6415 220.82 57.65 221.396C56.6817 221.949 55.8978 222.768 55.2983 223.851C54.722 224.912 54.4337 226.146 54.4337 227.552C54.4337 228.981 54.722 230.238 55.2983 231.322C55.8978 232.382 56.6817 233.201 57.65 233.777C58.6415 234.33 59.7135 234.607 60.8663 234.607C62.0422 234.607 63.1143 234.33 64.0826 233.777C65.074 233.201 65.8579 232.382 66.4343 231.322C67.0107 230.238 67.2989 228.97 67.2989 227.517Z" fill="#780E1C"/>
<path d="M39.4841 217.765C40.9597 217.765 42.2739 218.076 43.4267 218.698C44.5795 219.298 45.4902 220.209 46.1588 221.431C46.8274 222.652 47.1617 224.14 47.1617 225.892V237.062H44.0492V226.341C44.0492 224.451 43.5765 223.01 42.6312 222.018C41.709 221.004 40.4525 220.497 38.8616 220.497C37.2246 220.497 35.922 221.027 34.9536 222.088C33.9853 223.125 33.5011 224.635 33.5011 226.618V237.062H30.3886V226.341C30.3886 224.451 29.9159 223.01 28.9706 222.018C28.0484 221.004 26.7918 220.497 25.201 220.497C23.564 220.497 22.2614 221.027 21.293 222.088C20.3247 223.125 19.8405 224.635 19.8405 226.618V237.062H16.6934V218.11H19.8405V220.843C20.463 219.851 21.293 219.09 22.3305 218.56C23.3911 218.03 24.5554 217.765 25.8235 217.765C27.4143 217.765 28.8208 218.122 30.0427 218.837C31.2647 219.551 32.1754 220.601 32.7748 221.984C33.3051 220.647 34.1813 219.609 35.4032 218.871C36.6252 218.134 37.9855 217.765 39.4841 217.765Z" fill="#780E1C"/>
<path d="M3.14713 215.517V223.575H11.9314V226.168H3.14713V234.469H12.9689V237.062H0V212.923H12.9689V215.517H3.14713Z" fill="#780E1C"/>
<path d="M456.89 163.236C456.234 162.417 455.414 161.74 454.431 161.207C453.488 160.634 452.32 160.347 450.926 160.347C449.614 160.347 448.467 160.634 447.483 161.207C446.54 161.74 446.069 162.54 446.069 163.605C446.069 164.466 446.335 165.163 446.868 165.696C447.442 166.228 448.098 166.659 448.836 166.987C449.614 167.315 450.434 167.561 451.295 167.725C452.156 167.888 452.894 168.032 453.508 168.155C454.697 168.442 455.804 168.79 456.828 169.2C457.894 169.61 458.796 170.143 459.534 170.799C460.312 171.454 460.907 172.254 461.317 173.196C461.767 174.139 461.993 175.287 461.993 176.639C461.993 178.279 461.645 179.693 460.948 180.882C460.251 182.029 459.349 182.972 458.242 183.71C457.136 184.448 455.865 184.981 454.431 185.308C453.037 185.636 451.623 185.8 450.188 185.8C447.77 185.8 445.639 185.431 443.794 184.694C441.991 183.956 440.372 182.603 438.937 180.636L443.118 177.193C444.02 178.095 445.024 178.894 446.13 179.591C447.237 180.287 448.59 180.636 450.188 180.636C450.885 180.636 451.582 180.574 452.279 180.451C453.016 180.287 453.652 180.062 454.185 179.775C454.758 179.447 455.209 179.058 455.537 178.607C455.906 178.115 456.091 177.562 456.091 176.947C456.091 176.127 455.824 175.451 455.291 174.918C454.799 174.385 454.185 173.975 453.447 173.688C452.75 173.36 451.992 173.114 451.172 172.951C450.393 172.746 449.696 172.582 449.082 172.459C447.893 172.172 446.766 171.844 445.7 171.475C444.634 171.106 443.692 170.614 442.872 169.999C442.052 169.385 441.396 168.606 440.904 167.663C440.413 166.72 440.167 165.552 440.167 164.159C440.167 162.642 440.474 161.33 441.089 160.224C441.745 159.076 442.585 158.133 443.61 157.395C444.675 156.658 445.864 156.104 447.176 155.735C448.528 155.367 449.881 155.182 451.233 155.182C453.201 155.182 455.086 155.551 456.89 156.289C458.693 157.027 460.128 158.256 461.194 159.978L456.89 163.236Z" fill="#780E1C"/>
<path d="M434.244 185.062H428.711V180.882H428.588C427.522 182.439 426.047 183.648 424.161 184.509C422.317 185.37 420.411 185.8 418.443 185.8C416.189 185.8 414.139 185.411 412.295 184.632C410.492 183.853 408.934 182.767 407.622 181.374C406.352 179.98 405.368 178.361 404.671 176.516C403.974 174.672 403.626 172.664 403.626 170.491C403.626 168.319 403.974 166.31 404.671 164.466C405.368 162.58 406.352 160.961 407.622 159.609C408.934 158.215 410.492 157.129 412.295 156.35C414.139 155.571 416.189 155.182 418.443 155.182C420.534 155.182 422.501 155.633 424.346 156.535C426.19 157.395 427.604 158.584 428.588 160.101H428.711V138.582H434.244V185.062ZM419.12 180.636C420.595 180.636 421.927 180.39 423.116 179.898C424.305 179.365 425.309 178.668 426.129 177.808C426.948 176.906 427.584 175.84 428.034 174.61C428.485 173.34 428.711 171.967 428.711 170.491C428.711 169.016 428.485 167.663 428.034 166.433C427.584 165.163 426.948 164.097 426.129 163.236C425.309 162.334 424.305 161.638 423.116 161.146C421.927 160.613 420.595 160.347 419.12 160.347C417.644 160.347 416.312 160.613 415.123 161.146C413.935 161.638 412.93 162.334 412.111 163.236C411.291 164.097 410.655 165.163 410.205 166.433C409.754 167.663 409.528 169.016 409.528 170.491C409.528 171.967 409.754 173.34 410.205 174.61C410.655 175.84 411.291 176.906 412.111 177.808C412.93 178.668 413.935 179.365 415.123 179.898C416.312 180.39 417.644 180.636 419.12 180.636Z" fill="#780E1C"/>
<path d="M372.106 155.92H377.639V160.408H377.762C378.459 158.851 379.668 157.6 381.39 156.658C383.111 155.674 385.099 155.182 387.354 155.182C388.747 155.182 390.079 155.408 391.35 155.858C392.662 156.268 393.789 156.924 394.731 157.826C395.715 158.728 396.494 159.896 397.068 161.33C397.642 162.724 397.929 164.384 397.929 166.31V185.063H392.395V167.847C392.395 166.495 392.211 165.347 391.842 164.404C391.473 163.421 390.981 162.642 390.366 162.068C389.751 161.453 389.034 161.023 388.214 160.777C387.436 160.49 386.616 160.347 385.755 160.347C384.607 160.347 383.542 160.531 382.558 160.9C381.574 161.269 380.713 161.863 379.976 162.683C379.238 163.462 378.664 164.466 378.254 165.696C377.844 166.925 377.639 168.38 377.639 170.061V185.063H372.106V155.92Z" fill="#780E1C"/>
<path d="M364.995 185.063H359.462V180.574H359.339C358.642 182.132 357.433 183.403 355.711 184.386C353.99 185.329 352.002 185.8 349.747 185.8C348.313 185.8 346.96 185.575 345.689 185.124C344.419 184.714 343.292 184.058 342.308 183.157C341.365 182.255 340.607 181.107 340.033 179.714C339.459 178.279 339.172 176.599 339.172 174.672V155.92H344.706V173.135C344.706 174.488 344.89 175.656 345.259 176.639C345.628 177.582 346.12 178.361 346.735 178.976C347.35 179.55 348.046 179.98 348.825 180.267C349.645 180.513 350.485 180.636 351.346 180.636C352.494 180.636 353.559 180.451 354.543 180.083C355.527 179.714 356.387 179.14 357.125 178.361C357.863 177.541 358.437 176.517 358.847 175.287C359.257 174.057 359.462 172.602 359.462 170.922V155.92H364.995V185.063Z" fill="#780E1C"/>
<path d="M306.512 141.533H333.871V147.066H312.414V160.715H332.396V166.249H312.414V185.062H306.512V141.533Z" fill="#780E1C"/>
<path d="M253.672 141.533V168.216C253.672 169.569 253.857 170.983 254.226 172.459C254.595 173.893 255.209 175.225 256.07 176.455C256.931 177.685 258.058 178.689 259.452 179.468C260.845 180.246 262.567 180.636 264.616 180.636C266.666 180.636 268.387 180.246 269.781 179.468C271.174 178.689 272.302 177.685 273.162 176.455C274.023 175.225 274.638 173.893 275.007 172.459C275.376 170.983 275.56 169.569 275.56 168.216V141.533H281.462V169.139C281.462 171.68 281.032 173.996 280.171 176.086C279.31 178.135 278.122 179.918 276.605 181.435C275.089 182.952 273.306 184.12 271.256 184.94C269.207 185.759 266.994 186.169 264.616 186.169C262.239 186.169 260.026 185.759 257.976 184.94C255.927 184.12 254.144 182.952 252.627 181.435C251.111 179.918 249.922 178.135 249.061 176.086C248.2 173.996 247.77 171.68 247.77 169.139V141.533H253.672Z" fill="#780E1C"/>
<path d="M232.687 141.533H238.589V185.062H232.687V141.533Z" fill="#780E1C"/>
<path d="M196.331 141.533H224.428V147.066H202.233V160.039H222.891V165.573H202.233V179.529H225.535V185.062H196.331V141.533Z" fill="#780E1C"/>
<path d="M164.688 175.963C165.754 177.562 167.106 178.75 168.746 179.529C170.427 180.267 172.148 180.636 173.911 180.636C174.894 180.636 175.898 180.492 176.923 180.205C177.948 179.877 178.87 179.406 179.69 178.791C180.551 178.176 181.247 177.418 181.78 176.516C182.313 175.615 182.58 174.569 182.58 173.381C182.58 171.7 182.047 170.43 180.981 169.569C179.915 168.667 178.583 167.929 176.985 167.356C175.427 166.741 173.706 166.167 171.82 165.634C169.976 165.06 168.254 164.281 166.656 163.298C165.098 162.314 163.786 161.002 162.721 159.363C161.655 157.682 161.122 155.428 161.122 152.6C161.122 151.329 161.389 149.977 161.921 148.542C162.495 147.107 163.377 145.796 164.565 144.607C165.754 143.418 167.27 142.435 169.115 141.656C171 140.836 173.255 140.426 175.878 140.426C178.255 140.426 180.53 140.754 182.702 141.41C184.875 142.066 186.781 143.398 188.42 145.406L183.625 149.772C182.887 148.624 181.842 147.702 180.489 147.005C179.137 146.308 177.599 145.96 175.878 145.96C174.238 145.96 172.865 146.185 171.759 146.636C170.693 147.046 169.832 147.599 169.176 148.296C168.521 148.952 168.049 149.669 167.762 150.448C167.516 151.227 167.393 151.944 167.393 152.6C167.393 154.444 167.926 155.858 168.992 156.842C170.058 157.826 171.369 158.625 172.927 159.24C174.525 159.855 176.247 160.408 178.091 160.9C179.977 161.392 181.698 162.089 183.256 162.99C184.854 163.851 186.187 165.04 187.252 166.556C188.318 168.032 188.851 170.081 188.851 172.705C188.851 174.795 188.441 176.68 187.621 178.361C186.842 180.041 185.777 181.456 184.424 182.603C183.071 183.751 181.473 184.632 179.628 185.247C177.784 185.862 175.816 186.169 173.726 186.169C170.939 186.169 168.295 185.677 165.795 184.694C163.295 183.71 161.307 182.193 159.831 180.144L164.688 175.963Z" fill="#780E1C"/>
<path d="M145.526 168.216H145.28C143.928 168.872 142.329 169.2 140.485 169.2C138.927 169.2 137.349 168.934 135.751 168.401C134.152 167.868 132.697 167.048 131.385 165.941C130.115 164.794 129.069 163.359 128.25 161.638C127.43 159.875 127.02 157.805 127.02 155.428C127.02 153.051 127.409 150.96 128.188 149.157C129.008 147.312 130.094 145.775 131.447 144.546C132.799 143.316 134.377 142.394 136.181 141.779C137.984 141.123 139.911 140.795 141.96 140.795C144.01 140.795 145.936 141.123 147.74 141.779C149.543 142.435 151.121 143.377 152.474 144.607C153.826 145.837 154.892 147.312 155.671 149.034C156.491 150.755 156.9 152.682 156.9 154.813C156.9 156.166 156.798 157.395 156.593 158.502C156.388 159.609 156.081 160.674 155.671 161.699C155.302 162.683 154.851 163.667 154.318 164.65C153.785 165.634 153.191 166.638 152.535 167.663L141.53 185.062H134.582L145.526 168.216ZM150.998 154.998C150.998 153.686 150.773 152.477 150.322 151.37C149.912 150.263 149.297 149.321 148.477 148.542C147.699 147.722 146.756 147.087 145.649 146.636C144.543 146.185 143.313 145.96 141.96 145.96C140.608 145.96 139.378 146.185 138.271 146.636C137.165 147.087 136.201 147.722 135.382 148.542C134.603 149.321 133.988 150.263 133.537 151.37C133.127 152.477 132.922 153.686 132.922 154.998C132.922 156.309 133.127 157.518 133.537 158.625C133.988 159.732 134.603 160.695 135.382 161.515C136.201 162.294 137.165 162.908 138.271 163.359C139.378 163.81 140.608 164.036 141.96 164.036C143.313 164.036 144.543 163.81 145.649 163.359C146.756 162.908 147.699 162.294 148.477 161.515C149.297 160.695 149.912 159.732 150.322 158.625C150.773 157.518 150.998 156.309 150.998 154.998Z" fill="#780E1C"/>
<path d="M112.592 168.216H112.346C110.994 168.872 109.395 169.2 107.551 169.2C105.993 169.2 104.415 168.934 102.817 168.401C101.218 167.868 99.7631 167.048 98.4514 165.941C97.1808 164.794 96.1356 163.359 95.3158 161.638C94.4961 159.875 94.0862 157.805 94.0862 155.428C94.0862 153.051 94.4756 150.96 95.2543 149.157C96.0741 147.312 97.1603 145.775 98.5129 144.546C99.8655 143.316 101.444 142.394 103.247 141.779C105.051 141.123 106.977 140.795 109.026 140.795C111.076 140.795 113.002 141.123 114.806 141.779C116.609 142.435 118.187 143.377 119.54 144.607C120.893 145.837 121.958 147.312 122.737 149.034C123.557 150.755 123.967 152.682 123.967 154.813C123.967 156.166 123.864 157.395 123.659 158.502C123.454 159.609 123.147 160.674 122.737 161.699C122.368 162.683 121.917 163.667 121.384 164.65C120.852 165.634 120.257 166.638 119.601 167.663L108.596 185.062H101.649L112.592 168.216ZM118.064 154.998C118.064 153.686 117.839 152.477 117.388 151.37C116.978 150.263 116.363 149.321 115.544 148.542C114.765 147.722 113.822 147.087 112.715 146.636C111.609 146.185 110.379 145.96 109.026 145.96C107.674 145.96 106.444 146.185 105.337 146.636C104.231 147.087 103.268 147.722 102.448 148.542C101.669 149.321 101.054 150.263 100.603 151.37C100.193 152.477 99.9885 153.686 99.9885 154.998C99.9885 156.309 100.193 157.518 100.603 158.625C101.054 159.732 101.669 160.695 102.448 161.515C103.268 162.294 104.231 162.908 105.337 163.359C106.444 163.81 107.674 164.036 109.026 164.036C110.379 164.036 111.609 163.81 112.715 163.359C113.822 162.908 114.765 162.294 115.544 161.515C116.363 160.695 116.978 159.732 117.388 158.625C117.839 157.518 118.064 156.309 118.064 154.998Z" fill="#780E1C"/>
<path d="M75.6005 148.296L67.6078 155.674L64.1648 151.555L76.2768 141.533H81.5028V185.062H75.6005V148.296Z" fill="#780E1C"/>
<path d="M42.6667 148.296L34.674 155.674L31.231 151.555L43.343 141.533H48.569V185.062H42.6667V148.296Z" fill="#780E1C"/>
<defs>
<filter id="filter0_n_7_89" x="156.031" y="0" width="258.821" height="285.584" filterUnits="userSpaceOnUse" color-interpolation-filters="sRGB">
<feFlood flood-opacity="0" result="BackgroundImageFix"/>
<feBlend mode="normal" in="SourceGraphic" in2="BackgroundImageFix" result="shape"/>
<feTurbulence type="fractalNoise" baseFrequency="1.7772115468978882 1.7772115468978882" stitchTiles="stitch" numOctaves="3" result="noise" seed="9189" />
<feColorMatrix in="noise" type="luminanceToAlpha" result="alphaNoise" />
<feComponentTransfer in="alphaNoise" result="coloredNoise1">
<feFuncA type="discrete" tableValues="0 0 0 0 0 0 0 0 0 0 1 1 1 1 1 1 1 1 1 1 1 1 1 1 1 1 1 1 1 1 1 1 1 1 1 1 1 1 1 0 0 0 0 0 0 0 0 0 0 0 0 0 0 0 0 0 0 0 0 0 0 0 0 0 0 0 0 0 0 0 0 0 0 0 0 0 0 0 0 0 0 0 0 0 0 0 0 0 0 0 0 0 0 0 0 0 0 0 0 0 "/>
</feComponentTransfer>
<feComposite operator="in" in2="shape" in="coloredNoise1" result="noise1Clipped" />
<feFlood flood-color="rgba(0, 0, 0, 0.25)" result="color1Flood" />
<feComposite operator="in" in2="noise1Clipped" in="color1Flood" result="color1" />
<feMerge result="effect1_noise_7_89">
<feMergeNode in="shape" />
<feMergeNode in="color1" />
</feMerge>
</filter>
<linearGradient id="paint0_linear_7_89" x1="13.544" y1="456.437" x2="644.914" y2="-120.214" gradientUnits="userSpaceOnUse">
<stop offset="0.213569" stop-color="#FFFBEA" stop-opacity="0"/>
<stop offset="0.651955" stop-color="#F8C62C"/>
</linearGradient>
</defs>
</svg>
