<svg width="526" height="286" viewBox="0 0 526 286" fill="none" xmlns="http://www.w3.org/2000/svg">
<path d="M448.355 285.584H272.156C245.254 265.197 221.611 240.773 206.413 209.884C198.747 194.301 194.725 178.267 193.849 161.177C191.403 113.517 223.966 86.7411 266.321 74.7039C289.683 68.0628 313.484 65.62 337.813 64.9455C345.296 64.7375 352.019 64.2931 359.461 65.0873C363.234 65.4876 367.095 65.1945 371.101 65.0747L327.56 31.9196L379.025 56.8923L368.605 30.3909L384.421 53.6458L390.419 0C391.176 4.86658 391.44 9.32341 391.853 14.2373L395.122 53.2014L416.013 23.3306L401.249 56.4637L448.673 35.0116L405.734 67.2212C418.723 68.3338 430.758 68.8508 443.214 70.9878L405.974 73.7425L452.541 111.033L401.93 84.7617L418.367 119.641L394.658 86.7348L388.6 149.007L383.973 86.801L366.263 110.592C369.516 100.903 373.818 93.1994 377.874 84.0084L331.396 107.235L370.354 75.6936C339.367 80.3175 301.45 108.72 291.007 139.75C281.419 168.237 295.656 193.248 315.532 212.853C349.438 246.292 404.527 269.805 448.361 285.584H448.355Z" fill="url(#paint0_linear_44_39)"/>
<path d="M518.978 237.374C517.526 237.374 516.223 237.132 515.07 236.648C513.917 236.14 513.007 235.449 512.338 234.572C511.67 233.673 511.301 232.647 511.231 231.495H514.482C514.575 232.44 515.013 233.212 515.797 233.812C516.603 234.411 517.652 234.711 518.944 234.711C520.143 234.711 521.088 234.446 521.779 233.915C522.471 233.385 522.817 232.716 522.817 231.91C522.817 231.08 522.448 230.469 521.71 230.077C520.973 229.662 519.831 229.258 518.287 228.866C516.88 228.497 515.727 228.128 514.828 227.759C513.952 227.368 513.191 226.803 512.546 226.065C511.923 225.304 511.612 224.313 511.612 223.091C511.612 222.122 511.9 221.235 512.476 220.428C513.053 219.621 513.871 218.987 514.932 218.526C515.992 218.041 517.203 217.799 518.563 217.799C520.661 217.799 522.356 218.33 523.647 219.39C524.938 220.451 525.63 221.903 525.722 223.748H522.575C522.506 222.756 522.102 221.961 521.365 221.361C520.65 220.762 519.681 220.462 518.459 220.462C517.33 220.462 516.431 220.704 515.762 221.189C515.093 221.673 514.759 222.307 514.759 223.091C514.759 223.713 514.955 224.232 515.347 224.647C515.762 225.039 516.269 225.362 516.869 225.615C517.491 225.846 518.344 226.111 519.428 226.411C520.788 226.78 521.895 227.148 522.748 227.517C523.601 227.863 524.327 228.393 524.927 229.108C525.549 229.823 525.872 230.757 525.895 231.91C525.895 232.947 525.607 233.881 525.03 234.711C524.454 235.541 523.636 236.198 522.575 236.682C521.537 237.143 520.339 237.374 518.978 237.374Z" fill="#780E1C"/>
<path d="M488.759 227.517C488.759 225.581 489.151 223.886 489.935 222.434C490.719 220.958 491.791 219.817 493.151 219.01C494.534 218.203 496.079 217.799 497.785 217.799C499.261 217.799 500.633 218.145 501.901 218.837C503.169 219.505 504.137 220.393 504.806 221.5V211.47H507.987V237.062H504.806V233.5C504.183 234.63 503.261 235.564 502.039 236.302C500.817 237.016 499.388 237.374 497.751 237.374C496.068 237.374 494.534 236.959 493.151 236.129C491.791 235.299 490.719 234.134 489.935 232.636C489.151 231.137 488.759 229.431 488.759 227.517ZM504.806 227.552C504.806 226.122 504.517 224.877 503.941 223.817C503.365 222.756 502.581 221.949 501.589 221.396C500.621 220.82 499.549 220.531 498.373 220.531C497.197 220.531 496.125 220.808 495.157 221.361C494.188 221.915 493.416 222.722 492.84 223.782C492.263 224.843 491.975 226.088 491.975 227.517C491.975 228.97 492.263 230.238 492.84 231.322C493.416 232.382 494.188 233.201 495.157 233.777C496.125 234.33 497.197 234.607 498.373 234.607C499.549 234.607 500.621 234.33 501.589 233.777C502.581 233.201 503.365 232.382 503.941 231.322C504.517 230.238 504.806 228.981 504.806 227.552Z" fill="#780E1C"/>
<path d="M478.084 217.765C480.39 217.765 482.258 218.468 483.687 219.874C485.117 221.258 485.831 223.264 485.831 225.892V237.062H482.719V226.342C482.719 224.451 482.246 223.01 481.301 222.019C480.355 221.004 479.064 220.497 477.427 220.497C475.767 220.497 474.442 221.016 473.45 222.053C472.482 223.091 471.998 224.601 471.998 226.584V237.062H468.851V218.111H471.998V220.808C472.62 219.84 473.462 219.09 474.522 218.56C475.606 218.03 476.793 217.765 478.084 217.765Z" fill="#780E1C"/>
<path d="M464.574 218.111V237.062H461.427V234.261C460.828 235.23 459.986 235.99 458.903 236.544C457.842 237.074 456.666 237.339 455.375 237.339C453.9 237.339 452.574 237.039 451.398 236.44C450.222 235.817 449.288 234.895 448.597 233.673C447.928 232.451 447.594 230.964 447.594 229.212V218.111H450.706V228.797C450.706 230.664 451.179 232.105 452.124 233.12C453.069 234.111 454.361 234.607 455.998 234.607C457.681 234.607 459.006 234.088 459.975 233.051C460.943 232.013 461.427 230.503 461.427 228.52V218.111H464.574Z" fill="#780E1C"/>
<path d="M445.004 212.958V215.517H434.525V223.644H443.033V226.203H434.525V237.063H431.378V212.958H445.004Z" fill="#780E1C"/>
<path d="M415.474 220.704V231.875C415.474 232.797 415.67 233.454 416.062 233.846C416.454 234.215 417.134 234.4 418.102 234.4H420.419V237.063H417.583C415.831 237.063 414.517 236.659 413.641 235.852C412.765 235.045 412.327 233.719 412.327 231.875V220.704H409.871V218.111H412.327V213.338H415.474V218.111H420.419V220.704H415.474Z" fill="#780E1C"/>
<path d="M399.785 217.765C402.09 217.765 403.958 218.468 405.387 219.874C406.817 221.258 407.531 223.264 407.531 225.892V237.062H404.419V226.342C404.419 224.451 403.946 223.01 403.001 222.019C402.056 221.004 400.765 220.497 399.128 220.497C397.468 220.497 396.142 221.016 395.15 222.053C394.182 223.091 393.698 224.601 393.698 226.584V237.062H390.551V218.111H393.698V220.808C394.32 219.84 395.162 219.09 396.223 218.56C397.306 218.03 398.494 217.765 399.785 217.765Z" fill="#780E1C"/>
<path d="M387.435 226.86C387.435 227.46 387.4 228.094 387.331 228.762H372.183C372.298 230.63 372.932 232.094 374.085 233.155C375.261 234.192 376.679 234.711 378.339 234.711C379.699 234.711 380.829 234.4 381.728 233.777C382.65 233.131 383.296 232.278 383.665 231.218H387.054C386.547 233.039 385.532 234.526 384.011 235.679C382.489 236.809 380.598 237.374 378.339 237.374C376.541 237.374 374.927 236.97 373.497 236.163C372.091 235.356 370.984 234.215 370.177 232.74C369.37 231.241 368.967 229.512 368.967 227.552C368.967 225.592 369.359 223.875 370.143 222.399C370.927 220.923 372.022 219.794 373.428 219.01C374.858 218.203 376.495 217.799 378.339 217.799C380.137 217.799 381.728 218.191 383.112 218.975C384.495 219.759 385.556 220.843 386.293 222.226C387.054 223.586 387.435 225.131 387.435 226.86ZM384.184 226.203C384.184 225.004 383.919 223.978 383.388 223.125C382.858 222.249 382.132 221.592 381.21 221.154C380.31 220.693 379.307 220.462 378.201 220.462C376.61 220.462 375.25 220.97 374.12 221.984C373.013 222.998 372.379 224.405 372.218 226.203H384.184Z" fill="#780E1C"/>
<path d="M358.34 217.765C359.815 217.765 361.129 218.076 362.282 218.698C363.435 219.298 364.346 220.209 365.014 221.431C365.683 222.653 366.017 224.14 366.017 225.892V237.062H362.905V226.342C362.905 224.451 362.432 223.01 361.487 222.019C360.564 221.004 359.308 220.497 357.717 220.497C356.08 220.497 354.777 221.027 353.809 222.088C352.841 223.125 352.357 224.635 352.357 226.618V237.062H349.244V226.342C349.244 224.451 348.771 223.01 347.826 222.019C346.904 221.004 345.647 220.497 344.056 220.497C342.419 220.497 341.117 221.027 340.148 222.088C339.18 223.125 338.696 224.635 338.696 226.618V237.062H335.549V218.111H338.696V220.843C339.318 219.851 340.148 219.09 341.186 218.56C342.247 218.03 343.411 217.765 344.679 217.765C346.27 217.765 347.676 218.122 348.898 218.837C350.12 219.552 351.031 220.601 351.63 221.984C352.161 220.647 353.037 219.609 354.259 218.871C355.481 218.134 356.841 217.765 358.34 217.765Z" fill="#780E1C"/>
<path d="M333.423 218.111L322.01 245.985H318.76L322.495 236.855L314.852 218.111H318.345L324.293 233.466L330.172 218.111H333.423Z" fill="#780E1C"/>
<path d="M304.281 237.374C302.506 237.374 300.892 236.97 299.44 236.163C298.01 235.356 296.88 234.215 296.05 232.74C295.243 231.241 294.84 229.512 294.84 227.552C294.84 225.615 295.255 223.909 296.085 222.434C296.938 220.935 298.091 219.794 299.543 219.01C300.996 218.203 302.621 217.799 304.42 217.799C306.218 217.799 307.843 218.203 309.296 219.01C310.748 219.794 311.89 220.923 312.72 222.399C313.573 223.875 313.999 225.592 313.999 227.552C313.999 229.512 313.561 231.241 312.685 232.74C311.832 234.215 310.668 235.356 309.192 236.163C307.717 236.97 306.08 237.374 304.281 237.374ZM304.281 234.607C305.411 234.607 306.472 234.342 307.463 233.812C308.454 233.281 309.25 232.486 309.849 231.425C310.472 230.365 310.783 229.074 310.783 227.552C310.783 226.03 310.483 224.739 309.884 223.679C309.284 222.618 308.5 221.834 307.532 221.327C306.564 220.797 305.515 220.531 304.385 220.531C303.232 220.531 302.172 220.797 301.203 221.327C300.258 221.834 299.497 222.618 298.921 223.679C298.344 224.739 298.056 226.03 298.056 227.552C298.056 229.097 298.333 230.399 298.886 231.46C299.463 232.521 300.223 233.316 301.169 233.846C302.114 234.353 303.152 234.607 304.281 234.607Z" fill="#780E1C"/>
<path d="M291.689 211.47V237.062H288.542V211.47H291.689Z" fill="#780E1C"/>
<path d="M269.355 221.604C269.978 220.52 270.9 219.621 272.122 218.906C273.367 218.168 274.808 217.799 276.445 217.799C278.128 217.799 279.65 218.203 281.01 219.01C282.393 219.817 283.477 220.958 284.261 222.434C285.045 223.886 285.437 225.581 285.437 227.517C285.437 229.431 285.045 231.137 284.261 232.636C283.477 234.134 282.393 235.299 281.01 236.129C279.65 236.959 278.128 237.374 276.445 237.374C274.831 237.374 273.401 237.016 272.156 236.302C270.934 235.564 270.001 234.653 269.355 233.57V246.054H266.208V218.111H269.355V221.604ZM282.22 227.517C282.22 226.088 281.932 224.843 281.356 223.782C280.779 222.722 279.995 221.915 279.004 221.361C278.036 220.808 276.964 220.531 275.788 220.531C274.635 220.531 273.563 220.82 272.571 221.396C271.603 221.949 270.819 222.768 270.22 223.851C269.643 224.912 269.355 226.146 269.355 227.552C269.355 228.981 269.643 230.238 270.22 231.322C270.819 232.382 271.603 233.201 272.571 233.777C273.563 234.33 274.635 234.607 275.788 234.607C276.964 234.607 278.036 234.33 279.004 233.777C279.995 233.201 280.779 232.382 281.356 231.322C281.932 230.238 282.22 228.97 282.22 227.517Z" fill="#780E1C"/>
<path d="M254.406 217.765C255.882 217.765 257.196 218.076 258.349 218.698C259.501 219.298 260.412 220.209 261.081 221.431C261.749 222.653 262.084 224.14 262.084 225.892V237.062H258.971V226.342C258.971 224.451 258.498 223.01 257.553 222.019C256.631 221.004 255.374 220.497 253.783 220.497C252.147 220.497 250.844 221.027 249.876 222.088C248.907 223.125 248.423 224.635 248.423 226.618V237.062H245.31V226.342C245.31 224.451 244.838 223.01 243.893 222.019C242.97 221.004 241.714 220.497 240.123 220.497C238.486 220.497 237.183 221.027 236.215 222.088C235.247 223.125 234.762 224.635 234.762 226.618V237.062H231.615V218.111H234.762V220.843C235.385 219.851 236.215 219.09 237.252 218.56C238.313 218.03 239.477 217.765 240.745 217.765C242.336 217.765 243.743 218.122 244.965 218.837C246.187 219.552 247.097 220.601 247.697 221.984C248.227 220.647 249.103 219.609 250.325 218.871C251.547 218.134 252.907 217.765 254.406 217.765Z" fill="#780E1C"/>
<path d="M218.069 215.517V223.575H226.853V226.169H218.069V234.469H227.891V237.062H214.922V212.923H227.891V215.517H218.069Z" fill="#780E1C"/>
<path d="M183.229 227.517C183.229 225.581 183.621 223.886 184.405 222.434C185.189 220.958 186.261 219.817 187.622 219.01C189.005 218.203 190.55 217.799 192.256 217.799C193.731 217.799 195.103 218.145 196.371 218.837C197.639 219.505 198.608 220.393 199.276 221.5V211.47H202.458V237.062H199.276V233.5C198.654 234.63 197.732 235.564 196.51 236.302C195.288 237.016 193.858 237.374 192.221 237.374C190.538 237.374 189.005 236.959 187.622 236.129C186.261 235.299 185.189 234.134 184.405 232.636C183.621 231.137 183.229 229.431 183.229 227.517ZM199.276 227.552C199.276 226.122 198.988 224.877 198.412 223.817C197.835 222.756 197.051 221.949 196.06 221.396C195.092 220.82 194.02 220.531 192.844 220.531C191.668 220.531 190.596 220.808 189.628 221.361C188.659 221.915 187.887 222.722 187.31 223.782C186.734 224.843 186.446 226.088 186.446 227.517C186.446 228.97 186.734 230.238 187.31 231.322C187.887 232.382 188.659 233.201 189.628 233.777C190.596 234.33 191.668 234.607 192.844 234.607C194.02 234.607 195.092 234.33 196.06 233.777C197.051 233.201 197.835 232.382 198.412 231.322C198.988 230.238 199.276 228.981 199.276 227.552Z" fill="#780E1C"/>
<path d="M172.555 217.765C174.861 217.765 176.728 218.468 178.158 219.874C179.587 221.258 180.302 223.264 180.302 225.892V237.062H177.189V226.342C177.189 224.451 176.717 223.01 175.771 222.019C174.826 221.004 173.535 220.497 171.898 220.497C170.238 220.497 168.912 221.016 167.921 222.053C166.953 223.091 166.468 224.601 166.468 226.584V237.062H163.321V218.111H166.468V220.808C167.091 219.84 167.932 219.09 168.993 218.56C170.077 218.03 171.264 217.765 172.555 217.765Z" fill="#780E1C"/>
<path d="M139.812 227.517C139.812 225.581 140.204 223.886 140.988 222.434C141.772 220.958 142.844 219.817 144.205 219.01C145.588 218.203 147.121 217.799 148.804 217.799C150.464 217.799 151.905 218.157 153.127 218.871C154.349 219.586 155.26 220.485 155.859 221.569V218.111H159.041V237.063H155.859V233.535C155.237 234.642 154.303 235.564 153.058 236.302C151.836 237.016 150.407 237.374 148.77 237.374C147.087 237.374 145.565 236.959 144.205 236.129C142.844 235.299 141.772 234.134 140.988 232.636C140.204 231.137 139.812 229.431 139.812 227.517ZM155.859 227.552C155.859 226.122 155.571 224.877 154.995 223.817C154.418 222.756 153.634 221.949 152.643 221.396C151.675 220.82 150.603 220.531 149.427 220.531C148.251 220.531 147.179 220.808 146.211 221.361C145.242 221.915 144.47 222.722 143.893 223.782C143.317 224.843 143.029 226.088 143.029 227.517C143.029 228.97 143.317 230.238 143.893 231.322C144.47 232.382 145.242 233.201 146.211 233.777C147.179 234.33 148.251 234.607 149.427 234.607C150.603 234.607 151.675 234.33 152.643 233.777C153.634 233.201 154.418 232.382 154.995 231.322C155.571 230.238 155.859 228.981 155.859 227.552Z" fill="#780E1C"/>
<path d="M118.288 217.799C119.925 217.799 121.354 218.157 122.576 218.871C123.821 219.586 124.743 220.485 125.343 221.569V218.111H128.525V237.478C128.525 239.207 128.156 240.74 127.418 242.077C126.68 243.437 125.619 244.498 124.236 245.259C122.876 246.02 121.285 246.4 119.464 246.4C116.974 246.4 114.898 245.812 113.238 244.636C111.578 243.461 110.599 241.858 110.299 239.829H113.411C113.757 240.982 114.472 241.904 115.556 242.596C116.639 243.311 117.942 243.668 119.464 243.668C121.193 243.668 122.599 243.126 123.683 242.043C124.789 240.959 125.343 239.437 125.343 237.478V233.5C124.72 234.607 123.798 235.529 122.576 236.267C121.354 237.005 119.925 237.374 118.288 237.374C116.605 237.374 115.071 236.959 113.688 236.129C112.328 235.299 111.256 234.134 110.472 232.636C109.688 231.137 109.296 229.431 109.296 227.517C109.296 225.581 109.688 223.886 110.472 222.434C111.256 220.958 112.328 219.817 113.688 219.01C115.071 218.203 116.605 217.799 118.288 217.799ZM125.343 227.552C125.343 226.122 125.055 224.877 124.478 223.817C123.902 222.756 123.118 221.949 122.127 221.396C121.158 220.82 120.086 220.531 118.91 220.531C117.734 220.531 116.662 220.808 115.694 221.361C114.726 221.915 113.953 222.722 113.377 223.782C112.8 224.843 112.512 226.088 112.512 227.517C112.512 228.97 112.8 230.238 113.377 231.322C113.953 232.382 114.726 233.201 115.694 233.777C116.662 234.33 117.734 234.607 118.91 234.607C120.086 234.607 121.158 234.33 122.127 233.777C123.118 233.201 123.902 232.382 124.478 231.322C125.055 230.238 125.343 228.981 125.343 227.552Z" fill="#780E1C"/>
<path d="M98.6216 217.765C100.927 217.765 102.795 218.468 104.224 219.874C105.654 221.258 106.368 223.264 106.368 225.892V237.062H103.256V226.342C103.256 224.451 102.783 223.01 101.838 222.019C100.893 221.004 99.6015 220.497 97.9645 220.497C96.3045 220.497 94.9787 221.016 93.9873 222.053C93.019 223.091 92.5348 224.601 92.5348 226.584V237.062H89.3877V218.111H92.5348V220.808C93.1573 219.84 93.9989 219.09 95.0594 218.56C96.1431 218.03 97.3305 217.765 98.6216 217.765Z" fill="#780E1C"/>
<path d="M83.5397 215.033C82.9403 215.033 82.433 214.825 82.018 214.41C81.603 213.995 81.3955 213.488 81.3955 212.888C81.3955 212.289 81.603 211.782 82.018 211.367C82.433 210.952 82.9403 210.744 83.5397 210.744C84.1161 210.744 84.6003 210.952 84.9922 211.367C85.4072 211.782 85.6147 212.289 85.6147 212.888C85.6147 213.488 85.4072 213.995 84.9922 214.41C84.6003 214.825 84.1161 215.033 83.5397 215.033ZM85.0614 218.111V237.062H81.9143V218.111H85.0614Z" fill="#780E1C"/>
<path d="M70.064 217.765C72.3696 217.765 74.2371 218.468 75.6665 219.874C77.096 221.258 77.8107 223.264 77.8107 225.892V237.062H74.6982V226.342C74.6982 224.451 74.2256 223.01 73.2803 222.019C72.335 221.004 71.0438 220.497 69.4069 220.497C67.7468 220.497 66.4211 221.016 65.4297 222.053C64.4614 223.091 63.9772 224.601 63.9772 226.584V237.062H60.8301V218.111H63.9772V220.808C64.5997 219.84 65.4413 219.09 66.5018 218.56C67.5855 218.03 68.7728 217.765 70.064 217.765Z" fill="#780E1C"/>
<path d="M54.9831 215.033C54.3836 215.033 53.8764 214.825 53.4614 214.41C53.0464 213.995 52.8389 213.488 52.8389 212.888C52.8389 212.289 53.0464 211.782 53.4614 211.367C53.8764 210.952 54.3836 210.744 54.9831 210.744C55.5595 210.744 56.0436 210.952 56.4356 211.367C56.8506 211.782 57.0581 212.289 57.0581 212.888C57.0581 213.488 56.8506 213.995 56.4356 214.41C56.0436 214.825 55.5595 215.033 54.9831 215.033ZM56.5048 218.111V237.062H53.3576V218.111H56.5048Z" fill="#780E1C"/>
<path d="M29.8477 227.517C29.8477 225.581 30.2396 223.886 31.0235 222.434C31.8074 220.958 32.8795 219.817 34.2398 219.01C35.6232 218.203 37.1564 217.799 38.8395 217.799C40.4995 217.799 41.9405 218.157 43.1624 218.871C44.3844 219.586 45.2951 220.485 45.8946 221.569V218.111H49.0763V237.063H45.8946V233.535C45.272 234.642 44.3383 235.564 43.0933 236.302C41.8713 237.016 40.4418 237.374 38.8049 237.374C37.1218 237.374 35.6001 236.959 34.2398 236.129C32.8795 235.299 31.8074 234.134 31.0235 232.636C30.2396 231.137 29.8477 229.431 29.8477 227.517ZM45.8946 227.552C45.8946 226.122 45.6064 224.877 45.03 223.817C44.4536 222.756 43.6697 221.949 42.6783 221.396C41.7099 220.82 40.6378 220.531 39.462 220.531C38.2861 220.531 37.214 220.808 36.2457 221.361C35.2773 221.915 34.5049 222.722 33.9285 223.782C33.3522 224.843 33.064 226.088 33.064 227.517C33.064 228.97 33.3522 230.238 33.9285 231.322C34.5049 232.382 35.2773 233.201 36.2457 233.777C37.214 234.33 38.2861 234.607 39.462 234.607C40.6378 234.607 41.7099 234.33 42.6783 233.777C43.6697 233.201 44.4536 232.382 45.03 231.322C45.6064 230.238 45.8946 228.981 45.8946 227.552Z" fill="#780E1C"/>
<path d="M22.3063 221.189C22.8596 220.105 23.6435 219.263 24.658 218.664C25.6955 218.064 26.9521 217.765 28.4276 217.765V221.016H27.5976C24.0701 221.016 22.3063 222.929 22.3063 226.757V237.062H19.1592V218.111H22.3063V221.189Z" fill="#780E1C"/>
<path d="M16.3236 212.958V215.517H9.75264V237.063H6.60551V215.517H0V212.958H16.3236Z" fill="#780E1C"/>
<path d="M360.756 141.533V168.216C360.756 169.569 360.94 170.983 361.309 172.459C361.678 173.893 362.293 175.225 363.154 176.455C364.014 177.685 365.142 178.689 366.535 179.468C367.929 180.246 369.65 180.636 371.7 180.636C373.749 180.636 375.471 180.246 376.864 179.468C378.258 178.689 379.385 177.685 380.246 176.455C381.107 175.225 381.721 173.893 382.09 172.459C382.459 170.983 382.644 169.569 382.644 168.216V141.533H388.546V169.139C388.546 171.68 388.115 173.996 387.255 176.086C386.394 178.135 385.205 179.918 383.689 181.435C382.172 182.952 380.389 184.12 378.34 184.94C376.29 185.759 374.077 186.169 371.7 186.169C369.322 186.169 367.109 185.759 365.06 184.94C363.01 184.12 361.227 182.952 359.711 181.435C358.194 179.918 357.005 178.135 356.145 176.086C355.284 173.996 354.854 171.68 354.854 169.139V141.533H360.756Z" fill="#780E1C"/>
<path d="M339.771 141.533H345.673V185.062H339.771V141.533Z" fill="#780E1C"/>
<path d="M303.415 141.533H331.512V147.066H309.317V160.039H329.975V165.573H309.317V179.529H332.619V185.062H303.415V141.533Z" fill="#780E1C"/>
<path d="M271.772 175.963C272.838 177.562 274.19 178.75 275.83 179.529C277.511 180.267 279.232 180.636 280.995 180.636C281.978 180.636 282.982 180.492 284.007 180.205C285.032 179.877 285.954 179.406 286.774 178.791C287.635 178.176 288.331 177.418 288.864 176.516C289.397 175.615 289.664 174.569 289.664 173.381C289.664 171.7 289.131 170.43 288.065 169.569C286.999 168.667 285.667 167.929 284.069 167.356C282.511 166.741 280.79 166.167 278.904 165.634C277.06 165.06 275.338 164.281 273.74 163.298C272.182 162.314 270.87 161.002 269.805 159.363C268.739 157.682 268.206 155.428 268.206 152.6C268.206 151.329 268.473 149.977 269.005 148.542C269.579 147.107 270.461 145.796 271.649 144.607C272.838 143.418 274.354 142.435 276.199 141.656C278.084 140.836 280.339 140.426 282.962 140.426C285.339 140.426 287.614 140.754 289.786 141.41C291.959 142.066 293.865 143.398 295.504 145.406L290.709 149.772C289.971 148.624 288.926 147.702 287.573 147.005C286.221 146.308 284.683 145.96 282.962 145.96C281.322 145.96 279.949 146.185 278.843 146.636C277.777 147.046 276.916 147.599 276.26 148.296C275.605 148.952 275.133 149.669 274.846 150.448C274.6 151.227 274.477 151.944 274.477 152.6C274.477 154.444 275.01 155.858 276.076 156.842C277.142 157.826 278.453 158.625 280.011 159.24C281.609 159.855 283.331 160.408 285.175 160.9C287.061 161.392 288.782 162.089 290.34 162.99C291.938 163.851 293.27 165.04 294.336 166.556C295.402 168.032 295.935 170.081 295.935 172.705C295.935 174.795 295.525 176.68 294.705 178.361C293.926 180.041 292.861 181.456 291.508 182.603C290.155 183.751 288.557 184.632 286.712 185.247C284.868 185.862 282.9 186.169 280.81 186.169C278.023 186.169 275.379 185.677 272.879 184.694C270.379 183.71 268.391 182.193 266.915 180.144L271.772 175.963Z" fill="#780E1C"/>
<path d="M252.61 168.216H252.364C251.011 168.872 249.413 169.2 247.568 169.2C246.011 169.2 244.433 168.934 242.834 168.401C241.235 167.868 239.78 167.048 238.469 165.941C237.198 164.794 236.153 163.359 235.333 161.638C234.513 159.875 234.104 157.805 234.104 155.428C234.104 153.051 234.493 150.96 235.272 149.157C236.091 147.312 237.178 145.775 238.53 144.546C239.883 143.316 241.461 142.394 243.264 141.779C245.068 141.123 246.994 140.795 249.044 140.795C251.093 140.795 253.02 141.123 254.823 141.779C256.627 142.435 258.205 143.377 259.557 144.607C260.91 145.837 261.976 147.312 262.754 149.034C263.574 150.755 263.984 152.682 263.984 154.813C263.984 156.166 263.881 157.395 263.677 158.502C263.472 159.609 263.164 160.674 262.754 161.699C262.385 162.683 261.935 163.667 261.402 164.65C260.869 165.634 260.275 166.638 259.619 167.663L248.613 185.062H241.666L252.61 168.216ZM258.082 154.998C258.082 153.686 257.856 152.477 257.405 151.37C256.995 150.263 256.381 149.321 255.561 148.542C254.782 147.722 253.839 147.087 252.733 146.636C251.626 146.185 250.396 145.96 249.044 145.96C247.691 145.96 246.461 146.185 245.355 146.636C244.248 147.087 243.285 147.722 242.465 148.542C241.686 149.321 241.072 150.263 240.621 151.37C240.211 152.477 240.006 153.686 240.006 154.998C240.006 156.309 240.211 157.518 240.621 158.625C241.072 159.732 241.686 160.695 242.465 161.515C243.285 162.294 244.248 162.908 245.355 163.359C246.461 163.81 247.691 164.036 249.044 164.036C250.396 164.036 251.626 163.81 252.733 163.359C253.839 162.908 254.782 162.294 255.561 161.515C256.381 160.695 256.995 159.732 257.405 158.625C257.856 157.518 258.082 156.309 258.082 154.998Z" fill="#780E1C"/>
<path d="M219.676 168.216H219.43C218.078 168.872 216.479 169.2 214.635 169.2C213.077 169.2 211.499 168.934 209.9 168.401C208.302 167.868 206.847 167.048 205.535 165.941C204.265 164.794 203.219 163.359 202.4 161.638C201.58 159.875 201.17 157.805 201.17 155.428C201.17 153.051 201.559 150.96 202.338 149.157C203.158 147.312 204.244 145.775 205.597 144.546C206.949 143.316 208.527 142.394 210.331 141.779C212.134 141.123 214.061 140.795 216.11 140.795C218.16 140.795 220.086 141.123 221.889 141.779C223.693 142.435 225.271 143.377 226.624 144.607C227.976 145.837 229.042 147.312 229.821 149.034C230.64 150.755 231.05 152.682 231.05 154.813C231.05 156.166 230.948 157.395 230.743 158.502C230.538 159.609 230.231 160.674 229.821 161.699C229.452 162.683 229.001 163.667 228.468 164.65C227.935 165.634 227.341 166.638 226.685 167.663L215.68 185.062H208.732L219.676 168.216ZM225.148 154.998C225.148 153.686 224.923 152.477 224.472 151.37C224.062 150.263 223.447 149.321 222.627 148.542C221.848 147.722 220.906 147.087 219.799 146.636C218.692 146.185 217.463 145.96 216.11 145.96C214.758 145.96 213.528 146.185 212.421 146.636C211.315 147.087 210.351 147.722 209.532 148.542C208.753 149.321 208.138 150.263 207.687 151.37C207.277 152.477 207.072 153.686 207.072 154.998C207.072 156.309 207.277 157.518 207.687 158.625C208.138 159.732 208.753 160.695 209.532 161.515C210.351 162.294 211.315 162.908 212.421 163.359C213.528 163.81 214.758 164.036 216.11 164.036C217.463 164.036 218.692 163.81 219.799 163.359C220.906 162.908 221.848 162.294 222.627 161.515C223.447 160.695 224.062 159.732 224.472 158.625C224.923 157.518 225.148 156.309 225.148 154.998Z" fill="#780E1C"/>
<path d="M182.685 148.296L174.692 155.674L171.249 151.555L183.361 141.533H188.587V185.062H182.685V148.296Z" fill="#780E1C"/>
<path d="M149.75 148.296L141.757 155.674L138.314 151.555L150.426 141.533H155.652V185.062H149.75V148.296Z" fill="#780E1C"/>
<defs>
<linearGradient id="paint0_linear_44_39" x1="464.664" y1="450.437" x2="468.552" y2="-152.227" gradientUnits="userSpaceOnUse">
<stop offset="0.20814" stop-color="#FFFBEA" stop-opacity="0"/>
<stop offset="0.653838" stop-color="#F8C62C"/>
</linearGradient>
</defs>
</svg>
