<svg width="134" height="76" viewBox="0 0 134 76" fill="none" xmlns="http://www.w3.org/2000/svg">
<path d="M114.894 75.9138H62.5494C54.5576 70.4946 47.5339 64.0021 43.0188 55.7913C40.7416 51.6489 39.5468 47.3868 39.2864 42.844C38.5598 30.175 48.2334 23.0575 60.8162 19.8578C67.7566 18.0924 74.827 17.4431 82.0548 17.2638C84.2778 17.2085 86.275 17.0904 88.4858 17.3015C89.6066 17.4079 90.7536 17.33 91.9438 17.2981L79.0088 8.48485L94.2978 15.1231L91.2022 8.0785L95.9008 14.2601L97.6827 0C97.9074 1.29363 97.9861 2.47834 98.1088 3.78454L99.0798 14.142L105.286 6.20173L100.9 15.0092L114.989 9.30678L102.233 17.8687C106.091 18.1645 109.666 18.3019 113.367 18.8699L102.304 19.6022L116.138 29.5148L101.102 22.5313L105.985 31.8029L98.9421 23.0558L97.1424 39.6091L95.7679 23.0734L90.5064 29.3975C91.4728 26.8219 92.7509 24.7742 93.956 22.3311L80.1484 28.5052L91.7218 20.1208C82.5165 21.35 71.252 28.8998 68.1498 37.1484C65.3014 44.7208 69.531 51.3691 75.4357 56.5805C85.5081 65.4692 101.874 71.7195 114.896 75.9138H114.894Z" fill="url(#paint0_linear_40_924)"/>
<path d="M131.769 59.553V62.5744C131.769 62.8239 131.822 63.0016 131.928 63.1076C132.034 63.2074 132.218 63.2573 132.48 63.2573H133.107V63.9776H132.34C131.866 63.9776 131.511 63.8684 131.274 63.6502C131.037 63.4319 130.918 63.0733 130.918 62.5744V59.553H130.254V58.8514H130.918V57.5605H131.769V58.8514H133.107V59.553H131.769Z" fill="#961010"/>
<path d="M127.526 58.7581C128.15 58.7581 128.655 58.9483 129.041 59.3287C129.428 59.7028 129.621 60.2454 129.621 60.9563V63.9777H128.779V61.0779C128.779 60.5665 128.652 60.1768 128.396 59.9086C128.14 59.6342 127.791 59.497 127.348 59.497C126.899 59.497 126.541 59.6374 126.272 59.918C126.011 60.1986 125.88 60.6071 125.88 61.1434V63.9777H125.028V58.8516H125.88V59.5812C126.048 59.3193 126.276 59.1166 126.562 58.9732C126.856 58.8298 127.177 58.7581 127.526 58.7581Z" fill="#961010"/>
<path d="M124.185 61.2182C124.185 61.3803 124.175 61.5518 124.157 61.7326H120.059C120.091 62.2378 120.262 62.6338 120.574 62.9206C120.892 63.2013 121.275 63.3416 121.724 63.3416C122.092 63.3416 122.398 63.2574 122.641 63.089C122.891 62.9144 123.065 62.6837 123.165 62.3968H124.082C123.945 62.8894 123.67 63.2917 123.259 63.6035C122.847 63.9091 122.336 64.0618 121.724 64.0618C121.238 64.0618 120.801 63.9527 120.415 63.7344C120.034 63.5162 119.735 63.2075 119.517 62.8084C119.299 62.403 119.189 61.9353 119.189 61.4052C119.189 60.8752 119.295 60.4106 119.507 60.0115C119.72 59.6123 120.016 59.3068 120.396 59.0947C120.783 58.8765 121.226 58.7673 121.724 58.7673C122.211 58.7673 122.641 58.8733 123.015 59.0854C123.39 59.2974 123.676 59.5905 123.876 59.9647C124.082 60.3326 124.185 60.7504 124.185 61.2182ZM123.305 61.0404C123.305 60.7161 123.234 60.4386 123.09 60.2079C122.947 59.9709 122.75 59.7932 122.501 59.6747C122.258 59.55 121.986 59.4876 121.687 59.4876C121.257 59.4876 120.889 59.6248 120.583 59.8992C120.284 60.1736 120.112 60.554 120.069 61.0404H123.305Z" fill="#961010"/>
<path d="M116.316 58.7581C116.715 58.7581 117.07 58.8422 117.382 59.0106C117.694 59.1728 117.94 59.4191 118.121 59.7496C118.302 60.0801 118.392 60.4824 118.392 60.9563V63.9777H117.551V61.0779C117.551 60.5665 117.423 60.1768 117.167 59.9086C116.918 59.6342 116.578 59.497 116.147 59.497C115.705 59.497 115.352 59.6405 115.09 59.9273C114.828 60.208 114.698 60.6164 114.698 61.1527V63.9777H113.856V61.0779C113.856 60.5665 113.728 60.1768 113.472 59.9086C113.223 59.6342 112.883 59.497 112.453 59.497C112.01 59.497 111.657 59.6405 111.395 59.9273C111.134 60.208 111.003 60.6164 111.003 61.1527V63.9777H110.151V58.8516H111.003V59.5906C111.171 59.3224 111.395 59.1166 111.676 58.9732C111.963 58.8298 112.278 58.7581 112.621 58.7581C113.051 58.7581 113.432 58.8547 113.762 59.048C114.093 59.2414 114.339 59.5251 114.501 59.8993C114.645 59.5376 114.882 59.2569 115.212 59.0574C115.543 58.8578 115.91 58.7581 116.316 58.7581Z" fill="#961010"/>
<path d="M109.309 61.2182C109.309 61.3803 109.299 61.5518 109.281 61.7326H105.183C105.215 62.2378 105.386 62.6338 105.698 62.9206C106.016 63.2013 106.399 63.3416 106.848 63.3416C107.216 63.3416 107.522 63.2574 107.765 63.089C108.015 62.9144 108.189 62.6837 108.289 62.3968H109.206C109.069 62.8894 108.794 63.2917 108.383 63.6035C107.971 63.9091 107.46 64.0618 106.848 64.0618C106.362 64.0618 105.926 63.9527 105.539 63.7344C105.158 63.5162 104.859 63.2075 104.641 62.8084C104.423 62.403 104.313 61.9353 104.313 61.4052C104.313 60.8752 104.419 60.4106 104.632 60.0115C104.844 59.6123 105.14 59.3068 105.52 59.0947C105.907 58.8765 106.35 58.7673 106.848 58.7673C107.335 58.7673 107.765 58.8733 108.139 59.0854C108.514 59.2974 108.8 59.5905 109 59.9647C109.206 60.3326 109.309 60.7504 109.309 61.2182ZM108.429 61.0404C108.429 60.7161 108.358 60.4386 108.214 60.2079C108.071 59.9709 107.874 59.7932 107.625 59.6747C107.382 59.55 107.11 59.4876 106.811 59.4876C106.381 59.4876 106.013 59.6248 105.707 59.8992C105.408 60.1736 105.236 60.554 105.193 61.0404H108.429Z" fill="#961010"/>
<path d="M98.9121 61.4052C98.9121 60.8752 99.0181 60.4137 99.2301 60.0208C99.4422 59.6217 99.7353 59.313 100.109 59.0947C100.49 58.8765 100.923 58.7673 101.41 58.7673C102.04 58.7673 102.557 58.9201 102.963 59.2257C103.374 59.5313 103.645 59.9553 103.776 60.4979H102.86C102.772 60.1861 102.601 59.9397 102.345 59.7589C102.096 59.578 101.784 59.4876 101.41 59.4876C100.923 59.4876 100.53 59.656 100.231 59.9927C99.9317 60.3233 99.7821 60.7941 99.7821 61.4052C99.7821 62.0226 99.9317 62.4997 100.231 62.8364C100.53 63.1732 100.923 63.3416 101.41 63.3416C101.784 63.3416 102.096 63.2543 102.345 63.0796C102.595 62.905 102.766 62.6556 102.86 62.3313H103.776C103.639 62.8551 103.365 63.2761 102.953 63.5941C102.542 63.9059 102.027 64.0618 101.41 64.0618C100.923 64.0618 100.49 63.9527 100.109 63.7344C99.7353 63.5162 99.4422 63.2075 99.2301 62.8084C99.0181 62.4093 98.9121 61.9415 98.9121 61.4052Z" fill="#961010"/>
<path d="M92.8711 61.3959C92.8711 60.872 92.9771 60.4137 93.1891 60.0208C93.4012 59.6217 93.6911 59.313 94.0591 59.0947C94.4333 58.8765 94.848 58.7673 95.3032 58.7673C95.7522 58.7673 96.142 58.864 96.4725 59.0573C96.803 59.2506 97.0493 59.4938 97.2115 59.7869V58.8515H98.0721V63.9777H97.2115V63.0235C97.0431 63.3229 96.7905 63.5723 96.4538 63.7719C96.1233 63.9652 95.7366 64.0618 95.2938 64.0618C94.8386 64.0618 94.427 63.9496 94.0591 63.7251C93.6911 63.5006 93.4012 63.1857 93.1891 62.7803C92.9771 62.375 92.8711 61.9135 92.8711 61.3959ZM97.2115 61.4052C97.2115 61.0186 97.1335 60.6818 96.9776 60.395C96.8217 60.1081 96.6097 59.8898 96.3415 59.7402C96.0796 59.5843 95.7896 59.5063 95.4716 59.5063C95.1535 59.5063 94.8636 59.5812 94.6016 59.7308C94.3397 59.8805 94.1308 60.0988 93.9749 60.3856C93.819 60.6725 93.741 61.0092 93.741 61.3959C93.741 61.7888 93.819 62.1318 93.9749 62.4249C94.1308 62.7117 94.3397 62.9331 94.6016 63.089C94.8636 63.2387 95.1535 63.3135 95.4716 63.3135C95.7896 63.3135 96.0796 63.2387 96.3415 63.089C96.6097 62.9331 96.8217 62.7117 96.9776 62.4249C97.1335 62.1318 97.2115 61.7919 97.2115 61.4052Z" fill="#961010"/>
<path d="M92.0182 57.0554V63.9776H91.167V57.0554H92.0182Z" fill="#961010"/>
<path d="M90.3903 59.366C90.3903 59.9086 90.2032 60.3607 89.8291 60.7224C89.4611 61.0779 88.8968 61.2556 88.136 61.2556H86.8825V63.9777H86.0312V57.4578H88.136C88.8718 57.4578 89.43 57.6355 89.8104 57.991C90.197 58.3464 90.3903 58.8048 90.3903 59.366ZM88.136 60.554C88.6099 60.554 88.9591 60.4511 89.1836 60.2453C89.4081 60.0395 89.5204 59.7464 89.5204 59.366C89.5204 58.5616 89.0589 58.1593 88.136 58.1593H86.8825V60.554H88.136Z" fill="#961010"/>
<path d="M78.6286 59.8056C78.8032 59.5 79.0589 59.2506 79.3956 59.0572C79.7324 58.8639 80.1159 58.7672 80.5462 58.7672C81.0077 58.7672 81.4224 58.8764 81.7903 59.0946C82.1583 59.3129 82.4482 59.6216 82.6603 60.0207C82.8723 60.4136 82.9783 60.872 82.9783 61.3958C82.9783 61.9134 82.8723 62.3749 82.6603 62.7802C82.4482 63.1856 82.1551 63.5005 81.781 63.725C81.413 63.9495 81.0014 64.0618 80.5462 64.0618C80.1034 64.0618 79.7137 63.9651 79.3769 63.7718C79.0464 63.5785 78.797 63.3321 78.6286 63.0328V63.9776H77.7773V57.0554H78.6286V59.8056ZM82.1084 61.3958C82.1084 61.0092 82.0304 60.6724 81.8745 60.3855C81.7186 60.0987 81.5066 59.8804 81.2384 59.7307C80.9765 59.5811 80.6865 59.5062 80.3685 59.5062C80.0567 59.5062 79.7667 59.5842 79.4985 59.7401C79.2366 59.8898 79.0246 60.1111 78.8624 60.4042C78.7065 60.6911 78.6286 61.0247 78.6286 61.4051C78.6286 61.7918 78.7065 62.1317 78.8624 62.4248C79.0246 62.7116 79.2366 62.933 79.4985 63.0889C79.7667 63.2386 80.0567 63.3134 80.3685 63.3134C80.6865 63.3134 80.9765 63.2386 81.2384 63.0889C81.5066 62.933 81.7186 62.7116 81.8745 62.4248C82.0304 62.1317 82.1084 61.7887 82.1084 61.3958Z" fill="#961010"/>
<path d="M74.3096 64.0618C73.8294 64.0618 73.3928 63.9527 73 63.7344C72.6133 63.5162 72.3078 63.2075 72.0833 62.8084C71.865 62.403 71.7559 61.9353 71.7559 61.4052C71.7559 60.8814 71.8681 60.4199 72.0926 60.0208C72.3233 59.6155 72.6352 59.3068 73.028 59.0947C73.4209 58.8765 73.8606 58.7673 74.347 58.7673C74.8334 58.7673 75.2731 58.8765 75.6659 59.0947C76.0588 59.3068 76.3675 59.6123 76.592 60.0115C76.8227 60.4106 76.9381 60.8752 76.9381 61.4052C76.9381 61.9353 76.8196 62.403 76.5827 62.8084C76.3519 63.2075 76.037 63.5162 75.6379 63.7344C75.2388 63.9527 74.796 64.0618 74.3096 64.0618ZM74.3096 63.3135C74.6151 63.3135 74.902 63.2418 75.1702 63.0984C75.4383 62.9549 75.6535 62.7398 75.8156 62.4529C75.984 62.166 76.0682 61.8168 76.0682 61.4052C76.0682 60.9936 75.9871 60.6444 75.825 60.3576C75.6628 60.0707 75.4508 59.8587 75.1889 59.7215C74.9269 59.578 74.6432 59.5063 74.3376 59.5063C74.0258 59.5063 73.739 59.578 73.477 59.7215C73.2214 59.8587 73.0156 60.0707 72.8597 60.3576C72.7038 60.6444 72.6258 60.9936 72.6258 61.4052C72.6258 61.8231 72.7006 62.1754 72.8503 62.4623C73.0062 62.7491 73.212 62.9643 73.4677 63.1077C73.7234 63.2449 74.004 63.3135 74.3096 63.3135Z" fill="#961010"/>
<path d="M70.6777 57.4578V62.2752C70.6777 62.8115 70.5125 63.2418 70.1819 63.5661C69.8514 63.8841 69.4149 64.0432 68.8723 64.0432C68.3236 64.0432 67.8839 63.881 67.5534 63.5567C67.2229 63.2262 67.0576 62.7772 67.0576 62.2097H67.9089C67.9151 62.5278 67.9962 62.7866 68.1521 62.9861C68.3142 63.1857 68.5543 63.2855 68.8723 63.2855C69.1904 63.2855 69.4274 63.1919 69.5833 63.0048C69.7392 62.8115 69.8171 62.5683 69.8171 62.2752V57.4578H70.6777Z" fill="#961010"/>
<path d="M63.5516 63.9775L62.7003 63.1169C62.3823 63.4475 62.0424 63.6938 61.6807 63.8559C61.319 64.0118 60.9105 64.0898 60.4553 64.0898C60.0063 64.0898 59.6072 64.0087 59.2579 63.8466C58.915 63.6844 58.6468 63.4537 58.4535 63.1544C58.2664 62.855 58.1729 62.5058 58.1729 62.1067C58.1729 61.6514 58.3007 61.2523 58.5564 60.9093C58.8183 60.5601 59.2018 60.2857 59.7069 60.0862C59.5074 59.8492 59.364 59.6309 59.2767 59.4314C59.1894 59.2318 59.1457 59.0135 59.1457 58.7766C59.1457 58.5022 59.2143 58.2559 59.3515 58.0376C59.4949 57.8131 59.6976 57.6385 59.9595 57.5137C60.2214 57.389 60.5239 57.3267 60.8669 57.3267C61.2036 57.3267 61.4967 57.3921 61.7462 57.5231C61.9956 57.6541 62.1827 57.838 62.3074 58.075C62.4322 58.3057 62.4883 58.5645 62.4758 58.8514H61.6246C61.6308 58.5957 61.5591 58.3962 61.4094 58.2527C61.2598 58.1031 61.0664 58.0282 60.8295 58.0282C60.58 58.0282 60.3773 58.0999 60.2214 58.2434C60.0718 58.3806 59.9969 58.5583 59.9969 58.7766C59.9969 58.9637 60.0468 59.1445 60.1466 59.3191C60.2526 59.4937 60.4272 59.7089 60.6704 59.9646L62.6161 61.9196L62.7845 61.6577L63.4206 60.5913H64.3373L63.5703 61.9196C63.4642 62.1067 63.3395 62.3031 63.1961 62.5089L64.6647 63.9775H63.5516ZM60.4553 63.3602C60.792 63.3602 61.0945 63.2947 61.3627 63.1637C61.637 63.0328 61.8959 62.8301 62.1391 62.5557L60.2214 60.6287C59.4232 60.9343 59.0241 61.4176 59.0241 62.0786C59.0241 62.4466 59.1551 62.7521 59.417 62.9953C59.6851 63.2386 60.0312 63.3602 60.4553 63.3602Z" fill="#961010"/>
<path d="M54.2449 59.553V62.5744C54.2449 62.8239 54.2979 63.0016 54.4039 63.1076C54.5099 63.2074 54.6939 63.2573 54.9558 63.2573H55.5825V63.9776H54.8155C54.3415 63.9776 53.9861 63.8684 53.7491 63.6502C53.5121 63.4319 53.3936 63.0733 53.3936 62.5744V59.553H52.7295V58.8514H53.3936V57.5605H54.2449V58.8514H55.5825V59.553H54.2449Z" fill="#961010"/>
<path d="M50.0015 58.7581C50.6251 58.7581 51.1302 58.9483 51.5169 59.3287C51.9035 59.7028 52.0968 60.2454 52.0968 60.9563V63.9777H51.255V61.0779C51.255 60.5665 51.1271 60.1768 50.8714 59.9086C50.6158 59.6342 50.2665 59.497 49.8238 59.497C49.3748 59.497 49.0162 59.6374 48.748 59.918C48.4861 60.1986 48.3551 60.6071 48.3551 61.1434V63.9777H47.5039V58.8516H48.3551V59.5812C48.5235 59.3193 48.7511 59.1166 49.038 58.9732C49.3311 58.8298 49.6523 58.7581 50.0015 58.7581Z" fill="#961010"/>
<path d="M46.6612 61.2182C46.6612 61.3803 46.6518 61.5518 46.6331 61.7326H42.536C42.5671 62.2378 42.7386 62.6338 43.0504 62.9206C43.3685 63.2013 43.752 63.3416 44.201 63.3416C44.569 63.3416 44.8745 63.2574 45.1177 63.089C45.3672 62.9144 45.5418 62.6837 45.6416 62.3968H46.5583C46.4211 62.8894 46.1467 63.2917 45.7351 63.6035C45.3235 63.9091 44.8122 64.0618 44.201 64.0618C43.7146 64.0618 43.2781 63.9527 42.8914 63.7344C42.511 63.5162 42.2117 63.2075 41.9934 62.8084C41.7751 62.403 41.666 61.9353 41.666 61.4052C41.666 60.8752 41.772 60.4106 41.9841 60.0115C42.1961 59.6123 42.4923 59.3068 42.8727 59.0947C43.2594 58.8765 43.7021 58.7673 44.201 58.7673C44.6874 58.7673 45.1177 58.8733 45.4919 59.0854C45.8661 59.2974 46.1529 59.5905 46.3525 59.9647C46.5583 60.3326 46.6612 60.7504 46.6612 61.2182ZM45.7819 61.0404C45.7819 60.7161 45.7102 60.4386 45.5667 60.2079C45.4233 59.9709 45.2269 59.7932 44.9774 59.6747C44.7342 59.55 44.4629 59.4876 44.1636 59.4876C43.7333 59.4876 43.3654 59.6248 43.0598 59.8992C42.7605 60.1736 42.589 60.554 42.5453 61.0404H45.7819Z" fill="#961010"/>
<path d="M38.7914 58.7581C39.1905 58.7581 39.546 58.8422 39.8578 59.0106C40.1696 59.1728 40.4159 59.4191 40.5968 59.7496C40.7776 60.0801 40.8681 60.4824 40.8681 60.9563V63.9777H40.0262V61.0779C40.0262 60.5665 39.8983 60.1768 39.6426 59.9086C39.3932 59.6342 39.0533 59.497 38.623 59.497C38.1803 59.497 37.8279 59.6405 37.566 59.9273C37.3041 60.208 37.1731 60.6164 37.1731 61.1527V63.9777H36.3312V61.0779C36.3312 60.5665 36.2034 60.1768 35.9477 59.9086C35.6983 59.6342 35.3584 59.497 34.9281 59.497C34.4853 59.497 34.133 59.6405 33.8711 59.9273C33.6091 60.208 33.4782 60.6164 33.4782 61.1527V63.9777H32.627V58.8516H33.4782V59.5906C33.6466 59.3224 33.8711 59.1166 34.1517 58.9732C34.4386 58.8298 34.7535 58.7581 35.0965 58.7581C35.5268 58.7581 35.9072 58.8547 36.2377 59.048C36.5682 59.2414 36.8145 59.5251 36.9767 59.8993C37.1201 59.5376 37.3571 59.2569 37.6876 59.0574C38.0181 58.8578 38.3861 58.7581 38.7914 58.7581Z" fill="#961010"/>
<path d="M32.0516 58.8516L28.9647 66.3911H28.0854L29.0956 63.9216L27.0283 58.8516H27.9731L29.582 63.0049L31.1723 58.8516H32.0516Z" fill="#961010"/>
<path d="M24.1699 64.0618C23.6897 64.0618 23.2532 63.9527 22.8603 63.7344C22.4737 63.5162 22.1681 63.2075 21.9436 62.8084C21.7253 62.403 21.6162 61.9353 21.6162 61.4052C21.6162 60.8814 21.7285 60.4199 21.953 60.0208C22.1837 59.6155 22.4955 59.3068 22.8884 59.0947C23.2813 58.8765 23.7209 58.7673 24.2073 58.7673C24.6938 58.7673 25.1334 58.8765 25.5263 59.0947C25.9192 59.3068 26.2279 59.6123 26.4524 60.0115C26.6831 60.4106 26.7985 60.8752 26.7985 61.4052C26.7985 61.9353 26.68 62.403 26.443 62.8084C26.2123 63.2075 25.8973 63.5162 25.4982 63.7344C25.0991 63.9527 24.6563 64.0618 24.1699 64.0618ZM24.1699 63.3135C24.4755 63.3135 24.7624 63.2418 25.0305 63.0984C25.2987 62.9549 25.5138 62.7398 25.676 62.4529C25.8443 62.166 25.9285 61.8168 25.9285 61.4052C25.9285 60.9936 25.8475 60.6444 25.6853 60.3576C25.5232 60.0707 25.3111 59.8587 25.0492 59.7215C24.7873 59.578 24.5036 59.5063 24.198 59.5063C23.8862 59.5063 23.5993 59.578 23.3374 59.7215C23.0817 59.8587 22.8759 60.0707 22.72 60.3576C22.5641 60.6444 22.4862 60.9936 22.4862 61.4052C22.4862 61.8231 22.561 62.1754 22.7107 62.4623C22.8666 62.7491 23.0724 62.9643 23.328 63.1077C23.5837 63.2449 23.8644 63.3135 24.1699 63.3135Z" fill="#961010"/>
<path d="M20.7633 57.0554V63.9776H19.9121V57.0554H20.7633Z" fill="#961010"/>
<path d="M14.7233 59.7963C14.8917 59.5032 15.1411 59.26 15.4716 59.0667C15.8084 58.8671 16.1982 58.7673 16.6409 58.7673C17.0962 58.7673 17.5078 58.8765 17.8757 59.0947C18.2499 59.313 18.543 59.6217 18.755 60.0208C18.967 60.4137 19.073 60.872 19.073 61.3959C19.073 61.9135 18.967 62.375 18.755 62.7803C18.543 63.1857 18.2499 63.5006 17.8757 63.7251C17.5078 63.9496 17.0962 64.0618 16.6409 64.0618C16.2044 64.0618 15.8178 63.9652 15.481 63.7719C15.1505 63.5723 14.8979 63.326 14.7233 63.0329V66.4098H13.8721V58.8515H14.7233V59.7963ZM18.2031 61.3959C18.2031 61.0092 18.1251 60.6725 17.9692 60.3856C17.8133 60.0988 17.6013 59.8805 17.3331 59.7308C17.0712 59.5812 16.7812 59.5063 16.4632 59.5063C16.1514 59.5063 15.8614 59.5843 15.5933 59.7402C15.3313 59.8898 15.1193 60.1112 14.9572 60.4043C14.8013 60.6912 14.7233 61.0248 14.7233 61.4052C14.7233 61.7919 14.8013 62.1318 14.9572 62.4249C15.1193 62.7117 15.3313 62.9331 15.5933 63.089C15.8614 63.2387 16.1514 63.3135 16.4632 63.3135C16.7812 63.3135 17.0712 63.2387 17.3331 63.089C17.6013 62.9331 17.8133 62.7117 17.9692 62.4249C18.1251 62.1318 18.2031 61.7888 18.2031 61.3959Z" fill="#961010"/>
<path d="M10.6791 58.7581C11.0782 58.7581 11.4337 58.8422 11.7455 59.0106C12.0573 59.1728 12.3036 59.4191 12.4845 59.7496C12.6653 60.0801 12.7558 60.4824 12.7558 60.9563V63.9777H11.9139V61.0779C11.9139 60.5665 11.786 60.1768 11.5303 59.9086C11.2809 59.6342 10.941 59.497 10.5107 59.497C10.068 59.497 9.71562 59.6405 9.4537 59.9273C9.19178 60.208 9.06082 60.6164 9.06082 61.1527V63.9777H8.21894V61.0779C8.21894 60.5665 8.09109 60.1768 7.83541 59.9086C7.58596 59.6342 7.24609 59.497 6.8158 59.497C6.37303 59.497 6.02069 59.6405 5.75877 59.9273C5.49685 60.208 5.36589 60.6164 5.36589 61.1527V63.9777H4.51465V58.8516H5.36589V59.5906C5.53426 59.3224 5.75876 59.1166 6.03939 58.9732C6.32626 58.8298 6.64118 58.7581 6.98417 58.7581C7.41447 58.7581 7.79488 58.8547 8.12539 59.048C8.45591 59.2414 8.70224 59.5251 8.86438 59.8993C9.00781 59.5376 9.24479 59.2569 9.5753 59.0574C9.90582 58.8578 10.2738 58.7581 10.6791 58.7581Z" fill="#961010"/>
<path d="M0.851238 58.1501V60.3296H3.22722V61.0312H0.851238V63.2762H3.50785V63.9778H0V57.4485H3.50785V58.1501H0.851238Z" fill="#961010"/>
<path d="M123.58 44.074C123.402 43.8523 123.18 43.6694 122.914 43.5252C122.659 43.37 122.343 43.2924 121.966 43.2924C121.612 43.2924 121.301 43.37 121.035 43.5252C120.78 43.6694 120.653 43.8855 120.653 44.1738C120.653 44.4066 120.725 44.5951 120.869 44.7392C121.024 44.8833 121.201 44.9997 121.401 45.0884C121.612 45.1771 121.833 45.2436 122.066 45.288C122.299 45.3323 122.499 45.3711 122.665 45.4044C122.986 45.482 123.286 45.5762 123.563 45.6871C123.851 45.798 124.095 45.9421 124.295 46.1195C124.505 46.2969 124.666 46.513 124.777 46.768C124.899 47.023 124.96 47.3335 124.96 47.6993C124.96 48.1428 124.866 48.5253 124.677 48.8468C124.489 49.1572 124.245 49.4122 123.945 49.6117C123.646 49.8113 123.302 49.9554 122.914 50.0441C122.537 50.1328 122.155 50.1771 121.767 50.1771C121.113 50.1771 120.536 50.0774 120.037 49.8778C119.55 49.6783 119.112 49.3124 118.724 48.7802L119.854 47.849C120.098 48.0929 120.37 48.3091 120.669 48.4975C120.969 48.686 121.335 48.7802 121.767 48.7802C121.955 48.7802 122.144 48.7636 122.332 48.7304C122.532 48.686 122.704 48.625 122.848 48.5474C123.003 48.4587 123.125 48.3534 123.214 48.2315C123.313 48.0984 123.363 47.9488 123.363 47.7825C123.363 47.5607 123.291 47.3778 123.147 47.2337C123.014 47.0895 122.848 46.9787 122.648 46.9011C122.46 46.8124 122.255 46.7459 122.033 46.7015C121.822 46.6461 121.634 46.6017 121.468 46.5685C121.146 46.4909 120.841 46.4022 120.553 46.3024C120.265 46.2026 120.01 46.0696 119.788 45.9033C119.566 45.737 119.389 45.5263 119.256 45.2714C119.123 45.0164 119.056 44.7004 119.056 44.3235C119.056 43.9133 119.139 43.5585 119.306 43.2592C119.483 42.9487 119.71 42.6937 119.987 42.4942C120.276 42.2946 120.597 42.145 120.952 42.0452C121.318 41.9454 121.684 41.8955 122.05 41.8955C122.582 41.8955 123.092 41.9953 123.58 42.1948C124.067 42.3944 124.455 42.727 124.744 43.1926L123.58 44.074Z" fill="#961010"/>
<path d="M117.454 49.9776H115.958V48.8468H115.925C115.636 49.2681 115.237 49.5952 114.727 49.828C114.228 50.0608 113.713 50.1772 113.181 50.1772C112.571 50.1772 112.017 50.0719 111.518 49.8612C111.03 49.6506 110.609 49.3568 110.254 48.9799C109.91 48.6029 109.644 48.165 109.456 47.6661C109.267 47.1672 109.173 46.624 109.173 46.0364C109.173 45.4488 109.267 44.9056 109.456 44.4067C109.644 43.8967 109.91 43.4588 110.254 43.0929C110.609 42.716 111.03 42.4222 111.518 42.2115C112.017 42.0009 112.571 41.8956 113.181 41.8956C113.746 41.8956 114.278 42.0175 114.777 42.2614C115.276 42.4942 115.658 42.8157 115.925 43.2259H115.958V37.4055H117.454V49.9776ZM113.364 48.7803C113.763 48.7803 114.123 48.7138 114.444 48.5807C114.766 48.4366 115.038 48.2481 115.259 48.0153C115.481 47.7714 115.653 47.4832 115.775 47.1506C115.897 46.8069 115.958 46.4355 115.958 46.0364C115.958 45.6373 115.897 45.2714 115.775 44.9388C115.653 44.5951 115.481 44.3069 115.259 44.0741C115.038 43.8302 114.766 43.6417 114.444 43.5087C114.123 43.3645 113.763 43.2925 113.364 43.2925C112.964 43.2925 112.604 43.3645 112.283 43.5087C111.961 43.6417 111.689 43.8302 111.468 44.0741C111.246 44.3069 111.074 44.5951 110.952 44.9388C110.83 45.2714 110.769 45.6373 110.769 46.0364C110.769 46.4355 110.83 46.8069 110.952 47.1506C111.074 47.4832 111.246 47.7714 111.468 48.0153C111.689 48.2481 111.961 48.4366 112.283 48.5807C112.604 48.7138 112.964 48.7803 113.364 48.7803Z" fill="#961010"/>
<path d="M100.647 42.0951H102.144V43.309H102.177C102.366 42.8878 102.693 42.5496 103.159 42.2946C103.624 42.0285 104.162 41.8955 104.772 41.8955C105.149 41.8955 105.509 41.9565 105.853 42.0784C106.207 42.1893 106.512 42.3667 106.767 42.6106C107.033 42.8545 107.244 43.1705 107.399 43.5585C107.554 43.9354 107.632 44.3844 107.632 44.9055V49.9776H106.135V45.3212C106.135 44.9554 106.085 44.645 105.986 44.39C105.886 44.1239 105.753 43.9133 105.587 43.758C105.42 43.5917 105.226 43.4753 105.004 43.4088C104.794 43.3312 104.572 43.2924 104.339 43.2924C104.029 43.2924 103.741 43.3423 103.475 43.4421C103.208 43.5419 102.976 43.7026 102.776 43.9243C102.577 44.135 102.421 44.4066 102.31 44.7392C102.2 45.0718 102.144 45.4654 102.144 45.9199V49.9776H100.647V42.0951Z" fill="#961010"/>
<path d="M98.7238 49.9777H97.2271V48.7638H97.1938C97.0054 49.1851 96.6783 49.5287 96.2127 49.7948C95.747 50.0498 95.2093 50.1773 94.5996 50.1773C94.2116 50.1773 93.8457 50.1163 93.502 49.9944C93.1583 49.8835 92.8534 49.7061 92.5874 49.4622C92.3324 49.2183 92.1273 48.9079 91.9721 48.5309C91.8169 48.1429 91.7393 47.6884 91.7393 47.1673V42.0952H93.2359V46.7516C93.2359 47.1174 93.2858 47.4334 93.3856 47.6995C93.4854 47.9544 93.6184 48.1651 93.7847 48.3314C93.951 48.4866 94.1395 48.603 94.3501 48.6806C94.5719 48.7471 94.7991 48.7804 95.032 48.7804C95.3424 48.7804 95.6306 48.7305 95.8967 48.6307C96.1628 48.5309 96.3956 48.3757 96.5952 48.1651C96.7947 47.9434 96.9499 47.6662 97.0608 47.3336C97.1717 47.001 97.2271 46.6074 97.2271 46.1529V42.0952H98.7238V49.9777Z" fill="#961010"/>
<path d="M82.9053 38.2039H90.3055V39.7005H84.5017V43.3924H89.9064V44.889H84.5017V49.9778H82.9053V38.2039Z" fill="#961010"/>
<path d="M68.6131 38.2039V45.4212C68.6131 45.787 68.6629 46.1695 68.7627 46.5686C68.8625 46.9567 69.0288 47.317 69.2616 47.6496C69.4944 47.9822 69.7993 48.2538 70.1763 48.4644C70.5532 48.6751 71.0188 48.7804 71.5732 48.7804C72.1275 48.7804 72.5931 48.6751 72.9701 48.4644C73.347 48.2538 73.6519 47.9822 73.8847 47.6496C74.1175 47.317 74.2838 46.9567 74.3836 46.5686C74.4834 46.1695 74.5333 45.787 74.5333 45.4212V38.2039H76.1297V45.6706C76.1297 46.358 76.0133 46.9844 75.7805 47.5498C75.5477 48.1041 75.2262 48.5864 74.816 48.9966C74.4058 49.4068 73.9235 49.7228 73.3692 49.9445C72.8149 50.1662 72.2162 50.2771 71.5732 50.2771C70.9301 50.2771 70.3315 50.1662 69.7771 49.9445C69.2228 49.7228 68.7406 49.4068 68.3304 48.9966C67.9202 48.5864 67.5986 48.1041 67.3658 47.5498C67.133 46.9844 67.0166 46.358 67.0166 45.6706V38.2039H68.6131Z" fill="#961010"/>
<path d="M62.9375 38.2039H64.534V49.9778H62.9375V38.2039Z" fill="#961010"/>
<path d="M53.1035 38.2039H60.7033V39.7005H54.7V43.2094H60.2876V44.7061H54.7V48.4811H61.0027V49.9778H53.1035V38.2039Z" fill="#961010"/>
<path d="M44.5442 47.5166C44.8325 47.9489 45.1983 48.2704 45.6418 48.4811C46.0963 48.6806 46.562 48.7804 47.0387 48.7804C47.3048 48.7804 47.5764 48.7416 47.8536 48.664C48.1307 48.5753 48.3802 48.4478 48.6019 48.2815C48.8347 48.1152 49.0232 47.9101 49.1673 47.6662C49.3114 47.4223 49.3835 47.1396 49.3835 46.8181C49.3835 46.3636 49.2394 46.0199 48.9511 45.7871C48.6629 45.5432 48.3026 45.3436 47.8702 45.1884C47.4489 45.0221 46.9833 44.8669 46.4733 44.7228C45.9744 44.5675 45.5088 44.3569 45.0764 44.0908C44.6551 43.8247 44.3003 43.47 44.0121 43.0265C43.7238 42.572 43.5797 41.9622 43.5797 41.1972C43.5797 40.8536 43.6518 40.4877 43.7959 40.0997C43.9511 39.7116 44.1895 39.3569 44.511 39.0354C44.8325 38.7139 45.2427 38.4478 45.7416 38.2371C46.2515 38.0154 46.8613 37.9045 47.5708 37.9045C48.2139 37.9045 48.8292 37.9932 49.4168 38.1706C50.0043 38.348 50.5199 38.7083 50.9633 39.2516L49.6662 40.4323C49.4666 40.1218 49.1839 39.8724 48.8181 39.6839C48.4522 39.4955 48.0365 39.4012 47.5708 39.4012C47.1274 39.4012 46.756 39.4622 46.4566 39.5842C46.1684 39.695 45.9356 39.8447 45.7582 40.0332C45.5808 40.2105 45.4533 40.4046 45.3757 40.6152C45.3092 40.8258 45.2759 41.0199 45.2759 41.1972C45.2759 41.6961 45.4201 42.0786 45.7083 42.3447C45.9966 42.6108 46.3513 42.827 46.7726 42.9933C47.205 43.1596 47.6706 43.3092 48.1695 43.4423C48.6795 43.5753 49.1451 43.7638 49.5664 44.0077C49.9988 44.2405 50.3591 44.562 50.6474 44.9722C50.9356 45.3713 51.0797 45.9256 51.0797 46.6352C51.0797 47.2006 50.9689 47.7106 50.7471 48.1651C50.5365 48.6197 50.2482 49.0022 49.8824 49.3126C49.5165 49.623 49.0842 49.8614 48.5853 50.0277C48.0864 50.194 47.5542 50.2771 46.9888 50.2771C46.2349 50.2771 45.5198 50.1441 44.8436 49.878C44.1673 49.6119 43.6296 49.2017 43.2305 48.6474L44.5442 47.5166Z" fill="#961010"/>
<path d="M39.362 45.421H39.2955C38.9296 45.5984 38.4973 45.6871 37.9984 45.6871C37.5771 45.6871 37.1503 45.6151 36.7179 45.4709C36.2855 45.3268 35.8919 45.1051 35.5372 44.8057C35.1935 44.4953 34.9108 44.1073 34.689 43.6417C34.4673 43.1649 34.3564 42.6051 34.3564 41.962C34.3564 41.319 34.4618 40.7536 34.6724 40.2658C34.8941 39.7669 35.1879 39.3512 35.5538 39.0186C35.9196 38.686 36.3465 38.4365 36.8343 38.2702C37.3221 38.0928 37.8432 38.0042 38.3975 38.0042C38.9518 38.0042 39.4729 38.0928 39.9607 38.2702C40.4485 38.4476 40.8753 38.7026 41.2412 39.0352C41.607 39.3678 41.8953 39.7669 42.1059 40.2325C42.3277 40.6982 42.4385 41.2192 42.4385 41.7957C42.4385 42.1616 42.4108 42.4942 42.3554 42.7935C42.2999 43.0929 42.2168 43.3811 42.1059 43.6583C42.0062 43.9244 41.8842 44.1904 41.7401 44.4565C41.5959 44.7226 41.4352 44.9942 41.2578 45.2714L38.2811 49.9776H36.4019L39.362 45.421ZM40.8421 41.8456C40.8421 41.4909 40.7811 41.1638 40.6591 40.8645C40.5483 40.5651 40.382 40.3101 40.1602 40.0995C39.9496 39.8778 39.6946 39.7059 39.3953 39.584C39.0959 39.462 38.7633 39.4011 38.3975 39.4011C38.0316 39.4011 37.699 39.462 37.3997 39.584C37.1004 39.7059 36.8398 39.8778 36.6181 40.0995C36.4075 40.3101 36.2412 40.5651 36.1192 40.8645C36.0083 41.1638 35.9529 41.4909 35.9529 41.8456C35.9529 42.2004 36.0083 42.5275 36.1192 42.8268C36.2412 43.1261 36.4075 43.3867 36.6181 43.6084C36.8398 43.819 37.1004 43.9853 37.3997 44.1073C37.699 44.2292 38.0316 44.2902 38.3975 44.2902C38.7633 44.2902 39.0959 44.2292 39.3953 44.1073C39.6946 43.9853 39.9496 43.819 40.1602 43.6084C40.382 43.3867 40.5483 43.1261 40.6591 42.8268C40.7811 42.5275 40.8421 42.2004 40.8421 41.8456Z" fill="#961010"/>
<path d="M30.4538 45.421H30.3873C30.0214 45.5984 29.5891 45.6871 29.0902 45.6871C28.6689 45.6871 28.242 45.6151 27.8097 45.4709C27.3773 45.3268 26.9837 45.1051 26.629 44.8057C26.2853 44.4953 26.0026 44.1073 25.7808 43.6417C25.5591 43.1649 25.4482 42.6051 25.4482 41.962C25.4482 41.319 25.5536 40.7536 25.7642 40.2658C25.9859 39.7669 26.2797 39.3512 26.6456 39.0186C27.0114 38.686 27.4383 38.4365 27.9261 38.2702C28.4139 38.0928 28.935 38.0042 29.4893 38.0042C30.0436 38.0042 30.5647 38.0928 31.0525 38.2702C31.5403 38.4476 31.9671 38.7026 32.333 39.0352C32.6988 39.3678 32.9871 39.7669 33.1977 40.2325C33.4195 40.6982 33.5303 41.2192 33.5303 41.7957C33.5303 42.1616 33.5026 42.4942 33.4472 42.7935C33.3917 43.0929 33.3086 43.3811 33.1977 43.6583C33.0979 43.9244 32.976 44.1904 32.8319 44.4565C32.6877 44.7226 32.527 44.9942 32.3496 45.2714L29.3729 49.9776H27.4937L30.4538 45.421ZM31.9339 41.8456C31.9339 41.4909 31.8729 41.1638 31.7509 40.8645C31.6401 40.5651 31.4738 40.3101 31.252 40.0995C31.0414 39.8778 30.7864 39.7059 30.4871 39.584C30.1877 39.462 29.8551 39.4011 29.4893 39.4011C29.1234 39.4011 28.7908 39.462 28.4915 39.584C28.1922 39.7059 27.9316 39.8778 27.7099 40.0995C27.4993 40.3101 27.333 40.5651 27.211 40.8645C27.1001 41.1638 27.0447 41.4909 27.0447 41.8456C27.0447 42.2004 27.1001 42.5275 27.211 42.8268C27.333 43.1261 27.4993 43.3867 27.7099 43.6084C27.9316 43.819 28.1922 43.9853 28.4915 44.1073C28.7908 44.2292 29.1234 44.2902 29.4893 44.2902C29.8551 44.2902 30.1877 44.2292 30.4871 44.1073C30.7864 43.9853 31.0414 43.819 31.252 43.6084C31.4738 43.3867 31.6401 43.1261 31.7509 42.8268C31.8729 42.5275 31.9339 42.2004 31.9339 41.8456Z" fill="#961010"/>
<path d="M20.4486 40.0331L18.2867 42.0287L17.3555 40.9145L20.6315 38.2039H22.0451V49.9778H20.4486V40.0331Z" fill="#961010"/>
<path d="M11.5404 40.0331L9.37853 42.0287L8.44727 40.9145L11.7233 38.2039H13.1369V49.9778H11.5404V40.0331Z" fill="#961010"/>
<defs>
<linearGradient id="paint0_linear_40_924" x1="185.027" y1="130.867" x2="184.592" y2="-31.9556" gradientUnits="userSpaceOnUse">
<stop offset="0.167912" stop-color="#FFFBEA" stop-opacity="0"/>
<stop offset="0.758769" stop-color="#F8C62C"/>
</linearGradient>
</defs>
</svg>
