<svg width="175" height="193" viewBox="0 0 175 193" fill="none" xmlns="http://www.w3.org/2000/svg">
<path d="M171.463 192.303H52.8163C34.7015 178.576 18.7813 162.129 8.54698 141.329C3.38527 130.836 0.67707 120.039 0.0870392 108.532C-1.55995 76.4387 20.3667 58.4088 48.8877 50.3033C64.619 45.8314 80.6453 44.1865 97.0283 43.7323C102.067 43.5922 106.594 43.293 111.605 43.8278C114.146 44.0974 116.745 43.9 119.443 43.8193L90.124 21.4937L124.779 38.3096L117.762 20.4643L128.412 36.1235L132.451 0C132.961 3.27701 133.139 6.2781 133.417 9.58694L135.618 35.8242L149.685 15.7101L139.744 38.0209L171.678 23.5758L142.764 45.2647C151.511 46.0139 159.614 46.362 168.002 47.801L142.925 49.656L174.282 74.7662L140.202 57.0759L151.271 80.5625L135.306 58.4046L131.227 100.337L128.111 58.4491L116.185 74.4691C118.375 67.9448 121.273 62.7576 124.004 56.5687L92.707 72.2087L118.94 50.9697C98.0746 54.0833 72.542 73.2084 65.5104 94.1035C59.054 113.286 68.641 130.127 82.0249 143.329C104.856 165.845 141.951 181.679 171.468 192.303H171.463Z" fill="#FBF9F0"/>
</svg>
