<svg width="193" height="213" viewBox="0 0 193 213" fill="none" xmlns="http://www.w3.org/2000/svg">
<path d="M189.577 212.619H58.3959C38.3674 197.441 20.7653 179.257 9.44989 156.26C3.74289 144.658 0.748597 132.721 0.0962342 119.997C-1.72475 84.5138 22.5183 64.5792 54.0523 55.6174C71.4455 50.6731 89.1649 48.8544 107.278 48.3523C112.849 48.1974 117.855 47.8665 123.395 48.4579C126.204 48.7559 129.079 48.5377 132.061 48.4485L99.6449 23.7643L137.961 42.3566L130.203 22.6262L141.978 39.9396L146.444 0C147.007 3.62319 147.204 6.94133 147.511 10.5997L149.945 39.6087L165.498 17.3697L154.507 42.0375L189.814 26.0663L157.846 50.0465C167.516 50.8749 176.476 51.2597 185.75 52.8508L158.024 54.9017L192.693 82.6647L155.014 63.1055L167.251 89.0733L149.6 64.5745L145.09 110.937L141.645 64.6238L128.459 82.3361C130.881 75.1226 134.084 69.3874 137.104 62.5447L102.501 79.837L131.505 56.3543C108.435 59.7968 80.2054 80.9422 72.4311 104.045C65.2926 125.254 75.8923 143.874 90.6902 158.47C115.933 183.366 156.947 200.871 189.582 212.619H189.577Z" fill="url(#paint0_linear_35_40)"/>
<defs>
<linearGradient id="paint0_linear_35_40" x1="201.719" y1="335.353" x2="204.614" y2="-113.334" gradientUnits="userSpaceOnUse">
<stop stop-color="#F8C62C"/>
<stop offset="0.613678" stop-color="#FFFBEA"/>
</linearGradient>
</defs>
</svg>
