<svg width="381" height="76" viewBox="0 0 381 76" fill="none" xmlns="http://www.w3.org/2000/svg">
<path d="M375.159 68.5401C374.109 68.5401 373.167 68.3651 372.334 68.0151C371.5 67.6484 370.842 67.1484 370.359 66.5151C369.875 65.8651 369.609 65.1234 369.559 64.2901H371.909C371.975 64.9734 372.292 65.5317 372.859 65.9651C373.442 66.3984 374.2 66.6151 375.134 66.6151C376 66.6151 376.684 66.4234 377.184 66.0401C377.684 65.6567 377.934 65.1734 377.934 64.5901C377.934 63.9901 377.667 63.5484 377.134 63.2651C376.6 62.9651 375.775 62.6734 374.659 62.3901C373.642 62.1234 372.809 61.8567 372.159 61.5901C371.525 61.3067 370.975 60.8984 370.509 60.3651C370.059 59.8151 369.834 59.0984 369.834 58.2151C369.834 57.5151 370.042 56.8734 370.459 56.2901C370.875 55.7067 371.467 55.2484 372.234 54.9151C373 54.5651 373.875 54.3901 374.859 54.3901C376.375 54.3901 377.6 54.7734 378.534 55.5401C379.467 56.3067 379.967 57.3567 380.034 58.6901H377.759C377.709 57.9734 377.417 57.3984 376.884 56.9651C376.367 56.5317 375.667 56.3151 374.784 56.3151C373.967 56.3151 373.317 56.4901 372.834 56.8401C372.35 57.1901 372.109 57.6484 372.109 58.2151C372.109 58.6651 372.25 59.0401 372.534 59.3401C372.834 59.6234 373.2 59.8567 373.634 60.0401C374.084 60.2067 374.7 60.3984 375.484 60.6151C376.467 60.8817 377.267 61.1484 377.884 61.4151C378.5 61.6651 379.025 62.0484 379.459 62.5651C379.909 63.0817 380.142 63.7567 380.159 64.5901C380.159 65.3401 379.95 66.0151 379.534 66.6151C379.117 67.2151 378.525 67.6901 377.759 68.0401C377.009 68.3734 376.142 68.5401 375.159 68.5401Z" fill="#FFFDF4"/>
<path d="M353.314 61.4151C353.314 60.0151 353.598 58.7901 354.164 57.7401C354.731 56.6734 355.506 55.8484 356.489 55.2651C357.489 54.6817 358.606 54.3901 359.839 54.3901C360.906 54.3901 361.898 54.6401 362.814 55.1401C363.731 55.6234 364.431 56.2651 364.914 57.0651V49.8151H367.214V68.3151H364.914V65.7401C364.464 66.5567 363.798 67.2317 362.914 67.7651C362.031 68.2817 360.998 68.5401 359.814 68.5401C358.598 68.5401 357.489 68.2401 356.489 67.6401C355.506 67.0401 354.731 66.1984 354.164 65.1151C353.598 64.0317 353.314 62.7984 353.314 61.4151ZM364.914 61.4401C364.914 60.4067 364.706 59.5067 364.289 58.7401C363.873 57.9734 363.306 57.3901 362.589 56.9901C361.889 56.5734 361.114 56.3651 360.264 56.3651C359.414 56.3651 358.639 56.5651 357.939 56.9651C357.239 57.3651 356.681 57.9484 356.264 58.7151C355.848 59.4817 355.639 60.3817 355.639 61.4151C355.639 62.4651 355.848 63.3817 356.264 64.1651C356.681 64.9317 357.239 65.5234 357.939 65.9401C358.639 66.3401 359.414 66.5401 360.264 66.5401C361.114 66.5401 361.889 66.3401 362.589 65.9401C363.306 65.5234 363.873 64.9317 364.289 64.1651C364.706 63.3817 364.914 62.4734 364.914 61.4401Z" fill="#FFFDF4"/>
<path d="M345.599 54.3651C347.266 54.3651 348.616 54.8734 349.649 55.89C350.682 56.89 351.199 58.3401 351.199 60.2401V68.315H348.949V60.565C348.949 59.1984 348.607 58.1567 347.924 57.44C347.24 56.7067 346.307 56.34 345.124 56.34C343.924 56.34 342.966 56.715 342.249 57.465C341.549 58.215 341.199 59.3067 341.199 60.7401V68.315H338.924V54.615H341.199V56.565C341.649 55.865 342.257 55.3234 343.024 54.94C343.807 54.5567 344.666 54.3651 345.599 54.3651Z" fill="#FFFDF4"/>
<path d="M335.832 54.6151V68.3151H333.557V66.2901C333.123 66.9901 332.515 67.5401 331.732 67.9401C330.965 68.3234 330.115 68.5151 329.182 68.5151C328.115 68.5151 327.157 68.2984 326.307 67.8651C325.457 67.4151 324.782 66.7484 324.282 65.8651C323.798 64.9817 323.557 63.9067 323.557 62.6401V54.6151H325.807V62.3401C325.807 63.6901 326.148 64.7317 326.832 65.4651C327.515 66.1817 328.448 66.5401 329.632 66.5401C330.848 66.5401 331.807 66.1651 332.507 65.4151C333.207 64.6651 333.557 63.5734 333.557 62.1401V54.6151H335.832Z" fill="#FFFDF4"/>
<path d="M321.684 50.8901V52.7401H314.109V58.6151H320.259V60.4651H314.109V68.3151H311.834V50.8901H321.684Z" fill="#FFFDF4"/>
<path d="M300.337 56.49V64.565C300.337 65.2317 300.479 65.7067 300.762 65.99C301.045 66.2567 301.537 66.39 302.237 66.39H303.912V68.315H301.862C300.595 68.315 299.645 68.0234 299.012 67.44C298.379 66.8567 298.062 65.8984 298.062 64.565V56.49H296.287V54.615H298.062V51.165H300.337V54.615H303.912V56.49H300.337Z" fill="#FFFDF4"/>
<path d="M288.997 54.3651C290.664 54.3651 292.014 54.8734 293.047 55.89C294.081 56.89 294.597 58.3401 294.597 60.2401V68.315H292.347V60.565C292.347 59.1984 292.006 58.1567 291.322 57.44C290.639 56.7067 289.706 56.34 288.522 56.34C287.322 56.34 286.364 56.715 285.647 57.465C284.947 58.215 284.597 59.3067 284.597 60.7401V68.315H282.322V54.615H284.597V56.565C285.047 55.865 285.656 55.3234 286.422 54.94C287.206 54.5567 288.064 54.3651 288.997 54.3651Z" fill="#FFFDF4"/>
<path d="M280.069 60.9401C280.069 61.3734 280.044 61.8317 279.994 62.3151H269.044C269.127 63.6651 269.585 64.7234 270.419 65.4901C271.269 66.2401 272.294 66.6151 273.494 66.6151C274.477 66.6151 275.294 66.3901 275.944 65.9401C276.61 65.4734 277.077 64.8567 277.344 64.0901H279.794C279.427 65.4067 278.694 66.4817 277.594 67.3151C276.494 68.1317 275.127 68.5401 273.494 68.5401C272.194 68.5401 271.027 68.2484 269.994 67.6651C268.977 67.0817 268.177 66.2567 267.594 65.1901C267.01 64.1067 266.719 62.8567 266.719 61.4401C266.719 60.0234 267.002 58.7817 267.569 57.7151C268.135 56.6484 268.927 55.8317 269.944 55.2651C270.977 54.6817 272.16 54.3901 273.494 54.3901C274.794 54.3901 275.944 54.6734 276.944 55.2401C277.944 55.8067 278.71 56.5901 279.244 57.5901C279.794 58.5734 280.069 59.6901 280.069 60.9401ZM277.719 60.4651C277.719 59.5984 277.527 58.8567 277.144 58.2401C276.76 57.6067 276.235 57.1317 275.569 56.8151C274.919 56.4817 274.194 56.3151 273.394 56.3151C272.244 56.3151 271.26 56.6817 270.444 57.4151C269.644 58.1484 269.185 59.1651 269.069 60.4651H277.719Z" fill="#FFFDF4"/>
<path d="M259.038 54.3651C260.104 54.3651 261.054 54.59 261.888 55.04C262.721 55.4734 263.379 56.1317 263.863 57.015C264.346 57.8984 264.588 58.9734 264.588 60.2401V68.315H262.338V60.565C262.338 59.1984 261.996 58.1567 261.312 57.44C260.646 56.7067 259.738 56.34 258.588 56.34C257.404 56.34 256.463 56.7234 255.763 57.4901C255.063 58.2401 254.713 59.3317 254.713 60.765V68.315H252.463V60.565C252.463 59.1984 252.121 58.1567 251.438 57.44C250.771 56.7067 249.863 56.34 248.713 56.34C247.529 56.34 246.588 56.7234 245.888 57.4901C245.188 58.2401 244.838 59.3317 244.838 60.765V68.315H242.562V54.615H244.838V56.59C245.288 55.8734 245.888 55.3234 246.638 54.94C247.404 54.5567 248.246 54.3651 249.163 54.3651C250.313 54.3651 251.329 54.6234 252.213 55.14C253.096 55.6567 253.754 56.415 254.188 57.415C254.571 56.4484 255.204 55.6984 256.088 55.165C256.971 54.6317 257.954 54.3651 259.038 54.3651Z" fill="#FFFDF4"/>
<path d="M241.025 54.6151L232.775 74.7651H230.425L233.125 68.1651L227.6 54.6151H230.125L234.425 65.7151L238.675 54.6151H241.025Z" fill="#FFFDF4"/>
<path d="M219.96 68.5401C218.676 68.5401 217.51 68.2484 216.46 67.6651C215.426 67.0817 214.61 66.2567 214.01 65.1901C213.426 64.1067 213.135 62.8567 213.135 61.4401C213.135 60.0401 213.435 58.8067 214.035 57.7401C214.651 56.6567 215.485 55.8317 216.535 55.2651C217.585 54.6817 218.76 54.3901 220.06 54.3901C221.36 54.3901 222.535 54.6817 223.585 55.2651C224.635 55.8317 225.46 56.6484 226.06 57.7151C226.676 58.7817 226.985 60.0234 226.985 61.4401C226.985 62.8567 226.668 64.1067 226.035 65.1901C225.418 66.2567 224.576 67.0817 223.51 67.6651C222.443 68.2484 221.26 68.5401 219.96 68.5401ZM219.96 66.5401C220.776 66.5401 221.543 66.3484 222.26 65.9651C222.976 65.5817 223.551 65.0067 223.985 64.2401C224.435 63.4734 224.66 62.5401 224.66 61.4401C224.66 60.3401 224.443 59.4067 224.01 58.6401C223.576 57.8734 223.01 57.3067 222.31 56.9401C221.61 56.5567 220.851 56.3651 220.035 56.3651C219.201 56.3651 218.435 56.5567 217.735 56.9401C217.051 57.3067 216.501 57.8734 216.085 58.6401C215.668 59.4067 215.46 60.3401 215.46 61.4401C215.46 62.5567 215.66 63.4984 216.06 64.2651C216.476 65.0317 217.026 65.6067 217.71 65.9901C218.393 66.3567 219.143 66.5401 219.96 66.5401Z" fill="#FFFDF4"/>
<path d="M210.857 49.8151V68.3151H208.582V49.8151H210.857Z" fill="#FFFDF4"/>
<path d="M194.712 57.1401C195.162 56.3567 195.829 55.7067 196.712 55.1901C197.612 54.6567 198.654 54.3901 199.837 54.3901C201.054 54.3901 202.154 54.6817 203.137 55.2651C204.137 55.8484 204.921 56.6734 205.488 57.7401C206.054 58.7901 206.337 60.0151 206.337 61.4151C206.337 62.7984 206.054 64.0317 205.488 65.1151C204.921 66.1984 204.137 67.0401 203.137 67.6401C202.154 68.2401 201.054 68.5401 199.837 68.5401C198.671 68.5401 197.638 68.2817 196.738 67.7651C195.854 67.2317 195.179 66.5734 194.712 65.7901V74.8151H192.438V54.6151H194.712V57.1401ZM204.012 61.4151C204.012 60.3817 203.804 59.4817 203.387 58.7151C202.971 57.9484 202.404 57.3651 201.688 56.9651C200.988 56.5651 200.213 56.3651 199.363 56.3651C198.529 56.3651 197.754 56.5734 197.037 56.9901C196.337 57.3901 195.771 57.9817 195.337 58.7651C194.921 59.5317 194.712 60.4234 194.712 61.4401C194.712 62.4734 194.921 63.3817 195.337 64.1651C195.771 64.9317 196.337 65.5234 197.037 65.9401C197.754 66.3401 198.529 66.5401 199.363 66.5401C200.213 66.5401 200.988 66.3401 201.688 65.9401C202.404 65.5234 202.971 64.9317 203.387 64.1651C203.804 63.3817 204.012 62.4651 204.012 61.4151Z" fill="#FFFDF4"/>
<path d="M183.905 54.3651C184.971 54.3651 185.921 54.59 186.755 55.04C187.588 55.4734 188.246 56.1317 188.73 57.015C189.213 57.8984 189.455 58.9734 189.455 60.2401V68.315H187.205V60.565C187.205 59.1984 186.863 58.1567 186.18 57.44C185.513 56.7067 184.605 56.34 183.455 56.34C182.271 56.34 181.33 56.7234 180.63 57.4901C179.93 58.2401 179.58 59.3317 179.58 60.765V68.315H177.33V60.565C177.33 59.1984 176.988 58.1567 176.305 57.44C175.638 56.7067 174.73 56.34 173.58 56.34C172.396 56.34 171.455 56.7234 170.755 57.4901C170.055 58.2401 169.705 59.3317 169.705 60.765V68.315H167.43V54.615H169.705V56.59C170.155 55.8734 170.755 55.3234 171.505 54.94C172.271 54.5567 173.113 54.3651 174.03 54.3651C175.18 54.3651 176.196 54.6234 177.08 55.14C177.963 55.6567 178.621 56.415 179.055 57.415C179.438 56.4484 180.071 55.6984 180.955 55.165C181.838 54.6317 182.821 54.3651 183.905 54.3651Z" fill="#FFFDF4"/>
<path d="M157.638 52.7401V58.5651H163.988V60.4401H157.638V66.4401H164.738V68.3151H155.363V50.8651H164.738V52.7401H157.638Z" fill="#FFFDF4"/>
<path d="M132.453 61.4151C132.453 60.0151 132.736 58.7901 133.303 57.7401C133.87 56.6734 134.645 55.8484 135.628 55.2651C136.628 54.6817 137.745 54.3901 138.978 54.3901C140.045 54.3901 141.036 54.6401 141.953 55.1401C142.87 55.6234 143.57 56.2651 144.053 57.0651V49.8151H146.353V68.3151H144.053V65.7401C143.603 66.5567 142.936 67.2317 142.053 67.7651C141.17 68.2817 140.136 68.5401 138.953 68.5401C137.736 68.5401 136.628 68.2401 135.628 67.6401C134.645 67.0401 133.87 66.1984 133.303 65.1151C132.736 64.0317 132.453 62.7984 132.453 61.4151ZM144.053 61.4401C144.053 60.4067 143.845 59.5067 143.428 58.7401C143.011 57.9734 142.445 57.3901 141.728 56.9901C141.028 56.5734 140.253 56.3651 139.403 56.3651C138.553 56.3651 137.778 56.5651 137.078 56.9651C136.378 57.3651 135.82 57.9484 135.403 58.7151C134.986 59.4817 134.778 60.3817 134.778 61.4151C134.778 62.4651 134.986 63.3817 135.403 64.1651C135.82 64.9317 136.378 65.5234 137.078 65.9401C137.778 66.3401 138.553 66.5401 139.403 66.5401C140.253 66.5401 141.028 66.3401 141.728 65.9401C142.445 65.5234 143.011 64.9317 143.428 64.1651C143.845 63.3817 144.053 62.4734 144.053 61.4401Z" fill="#FFFDF4"/>
<path d="M124.738 54.3651C126.404 54.3651 127.754 54.8734 128.787 55.89C129.821 56.89 130.337 58.3401 130.337 60.2401V68.315H128.087V60.565C128.087 59.1984 127.746 58.1567 127.062 57.44C126.379 56.7067 125.446 56.34 124.262 56.34C123.062 56.34 122.104 56.715 121.387 57.465C120.687 58.215 120.337 59.3067 120.337 60.7401V68.315H118.062V54.615H120.337V56.565C120.787 55.865 121.396 55.3234 122.162 54.94C122.946 54.5567 123.804 54.3651 124.738 54.3651Z" fill="#FFFDF4"/>
<path d="M101.068 61.4151C101.068 60.0151 101.352 58.7901 101.918 57.7401C102.485 56.6734 103.26 55.8484 104.243 55.2651C105.243 54.6817 106.352 54.3901 107.568 54.3901C108.768 54.3901 109.81 54.6484 110.693 55.1651C111.577 55.6817 112.235 56.3317 112.668 57.1151V54.6151H114.968V68.3151H112.668V65.7651C112.218 66.5651 111.543 67.2317 110.643 67.7651C109.76 68.2817 108.727 68.5401 107.543 68.5401C106.327 68.5401 105.227 68.2401 104.243 67.6401C103.26 67.0401 102.485 66.1984 101.918 65.1151C101.352 64.0317 101.068 62.7984 101.068 61.4151ZM112.668 61.4401C112.668 60.4067 112.46 59.5067 112.043 58.7401C111.627 57.9734 111.06 57.3901 110.343 56.9901C109.643 56.5734 108.868 56.3651 108.018 56.3651C107.168 56.3651 106.393 56.5651 105.693 56.9651C104.993 57.3651 104.435 57.9484 104.018 58.7151C103.602 59.4817 103.393 60.3817 103.393 61.4151C103.393 62.4651 103.602 63.3817 104.018 64.1651C104.435 64.9317 104.993 65.5234 105.693 65.9401C106.393 66.3401 107.168 66.5401 108.018 66.5401C108.868 66.5401 109.643 66.3401 110.343 65.9401C111.06 65.5234 111.627 64.9317 112.043 64.1651C112.46 63.3817 112.668 62.4734 112.668 61.4401Z" fill="#FFFDF4"/>
<path d="M85.5078 54.3901C86.6911 54.3901 87.7245 54.6484 88.6078 55.1651C89.5078 55.6817 90.1745 56.3317 90.6078 57.1151V54.6151H92.9078V68.6151C92.9078 69.8651 92.6412 70.9734 92.1078 71.9401C91.5745 72.9234 90.8078 73.6901 89.8078 74.2401C88.8245 74.7901 87.6745 75.0651 86.3578 75.0651C84.5578 75.0651 83.0578 74.6401 81.8578 73.7901C80.6578 72.9401 79.9495 71.7817 79.7328 70.3151H81.9828C82.2328 71.1484 82.7495 71.8151 83.5328 72.3151C84.3161 72.8317 85.2578 73.0901 86.3578 73.0901C87.6078 73.0901 88.6245 72.6984 89.4078 71.9151C90.2078 71.1317 90.6078 70.0317 90.6078 68.6151V65.7401C90.1578 66.5401 89.4912 67.2067 88.6078 67.7401C87.7245 68.2734 86.6911 68.5401 85.5078 68.5401C84.2911 68.5401 83.1828 68.2401 82.1828 67.6401C81.1995 67.0401 80.4245 66.1984 79.8578 65.1151C79.2912 64.0317 79.0078 62.7984 79.0078 61.4151C79.0078 60.0151 79.2912 58.7901 79.8578 57.7401C80.4245 56.6734 81.1995 55.8484 82.1828 55.2651C83.1828 54.6817 84.2911 54.3901 85.5078 54.3901ZM90.6078 61.4401C90.6078 60.4067 90.3995 59.5067 89.9828 58.7401C89.5662 57.9734 88.9995 57.3901 88.2828 56.9901C87.5828 56.5734 86.8078 56.3651 85.9578 56.3651C85.1078 56.3651 84.3328 56.5651 83.6328 56.9651C82.9328 57.3651 82.3745 57.9484 81.9578 58.7151C81.5412 59.4817 81.3328 60.3817 81.3328 61.4151C81.3328 62.4651 81.5412 63.3817 81.9578 64.1651C82.3745 64.9317 82.9328 65.5234 83.6328 65.9401C84.3328 66.3401 85.1078 66.5401 85.9578 66.5401C86.8078 66.5401 87.5828 66.3401 88.2828 65.9401C88.9995 65.5234 89.5662 64.9317 89.9828 64.1651C90.3995 63.3817 90.6078 62.4734 90.6078 61.4401Z" fill="#FFFDF4"/>
<path d="M71.2922 54.3651C72.9589 54.3651 74.3089 54.8734 75.3422 55.89C76.3755 56.89 76.8922 58.3401 76.8922 60.2401V68.315H74.6422V60.565C74.6422 59.1984 74.3005 58.1567 73.6172 57.44C72.9339 56.7067 72.0005 56.34 70.8172 56.34C69.6172 56.34 68.6589 56.715 67.9422 57.465C67.2422 58.215 66.8922 59.3067 66.8922 60.7401V68.315H64.6172V54.615H66.8922V56.565C67.3422 55.865 67.9505 55.3234 68.7172 54.94C69.5005 54.5567 70.3588 54.3651 71.2922 54.3651Z" fill="#FFFDF4"/>
<path d="M60.3898 52.39C59.9565 52.39 59.5898 52.24 59.2898 51.94C58.9898 51.64 58.8398 51.2734 58.8398 50.84C58.8398 50.4067 58.9898 50.04 59.2898 49.74C59.5898 49.44 59.9565 49.29 60.3898 49.29C60.8065 49.29 61.1565 49.44 61.4398 49.74C61.7398 50.04 61.8898 50.4067 61.8898 50.84C61.8898 51.2734 61.7398 51.64 61.4398 51.94C61.1565 52.24 60.8065 52.39 60.3898 52.39ZM61.4898 54.615V68.315H59.2148V54.615H61.4898Z" fill="#FFFDF4"/>
<path d="M50.6477 54.3651C52.3143 54.3651 53.6643 54.8734 54.6977 55.89C55.731 56.89 56.2477 58.3401 56.2477 60.2401V68.315H53.9977V60.565C53.9977 59.1984 53.656 58.1567 52.9727 57.44C52.2893 56.7067 51.356 56.34 50.1727 56.34C48.9727 56.34 48.0143 56.715 47.2977 57.465C46.5977 58.215 46.2477 59.3067 46.2477 60.7401V68.315H43.9727V54.615H46.2477V56.565C46.6977 55.865 47.306 55.3234 48.0727 54.94C48.856 54.5567 49.7143 54.3651 50.6477 54.3651Z" fill="#FFFDF4"/>
<path d="M39.7453 52.39C39.312 52.39 38.9453 52.24 38.6453 51.94C38.3453 51.64 38.1953 51.2734 38.1953 50.84C38.1953 50.4067 38.3453 50.04 38.6453 49.74C38.9453 49.44 39.312 49.29 39.7453 49.29C40.162 49.29 40.512 49.44 40.7953 49.74C41.0953 50.04 41.2453 50.4067 41.2453 50.84C41.2453 51.2734 41.0953 51.64 40.7953 51.94C40.512 52.24 40.162 52.39 39.7453 52.39ZM40.8453 54.615V68.315H38.5703V54.615H40.8453Z" fill="#FFFDF4"/>
<path d="M21.5762 61.4151C21.5762 60.0151 21.8595 58.7901 22.4262 57.7401C22.9928 56.6734 23.7678 55.8484 24.7512 55.2651C25.7512 54.6817 26.8595 54.3901 28.0762 54.3901C29.2762 54.3901 30.3178 54.6484 31.2012 55.1651C32.0845 55.6817 32.7428 56.3317 33.1762 57.1151V54.6151H35.4762V68.3151H33.1762V65.7651C32.7262 66.5651 32.0512 67.2317 31.1512 67.7651C30.2678 68.2817 29.2345 68.5401 28.0512 68.5401C26.8345 68.5401 25.7345 68.2401 24.7512 67.6401C23.7678 67.0401 22.9928 66.1984 22.4262 65.1151C21.8595 64.0317 21.5762 62.7984 21.5762 61.4151ZM33.1762 61.4401C33.1762 60.4067 32.9678 59.5067 32.5512 58.7401C32.1345 57.9734 31.5678 57.3901 30.8512 56.9901C30.1512 56.5734 29.3762 56.3651 28.5262 56.3651C27.6762 56.3651 26.9012 56.5651 26.2012 56.9651C25.5012 57.3651 24.9428 57.9484 24.5262 58.7151C24.1095 59.4817 23.9012 60.3817 23.9012 61.4151C23.9012 62.4651 24.1095 63.3817 24.5262 64.1651C24.9428 64.9317 25.5012 65.5234 26.2012 65.9401C26.9012 66.3401 27.6762 66.5401 28.5262 66.5401C29.3762 66.5401 30.1512 66.3401 30.8512 65.9401C31.5678 65.5234 32.1345 64.9317 32.5512 64.1651C32.9678 63.3817 33.1762 62.4734 33.1762 61.4401Z" fill="#FFFDF4"/>
<path d="M16.1246 56.84C16.5246 56.0567 17.0913 55.4484 17.8246 55.015C18.5746 54.5817 19.4829 54.3651 20.5496 54.3651V56.715H19.9496C17.3996 56.715 16.1246 58.0984 16.1246 60.8651V68.315H13.8496V54.615H16.1246V56.84Z" fill="#FFFDF4"/>
<path d="M11.8 50.8901V52.7401H7.05V68.3151H4.775V52.7401H0V50.8901H11.8Z" fill="#FFFDF4"/>
<path d="M256.52 0.751587V18.8738C256.52 19.7925 256.646 20.7529 256.896 21.755C257.147 22.7293 257.564 23.6341 258.149 24.4692C258.733 25.3043 259.499 25.9863 260.445 26.5152C261.392 27.0442 262.561 27.3086 263.953 27.3086C265.345 27.3086 266.514 27.0442 267.46 26.5152C268.407 25.9863 269.172 25.3043 269.757 24.4692C270.342 23.6341 270.759 22.7293 271.01 21.755C271.26 20.7529 271.386 19.7925 271.386 18.8738V0.751587H275.394V19.5002C275.394 21.2261 275.102 22.7989 274.517 24.2186C273.933 25.6105 273.125 26.8215 272.095 27.8514C271.065 28.8814 269.855 29.6748 268.463 30.2316C267.071 30.7883 265.568 31.0667 263.953 31.0667C262.338 31.0667 260.835 30.7883 259.443 30.2316C258.051 29.6748 256.84 28.8814 255.81 27.8514C254.78 26.8215 253.973 25.6105 253.389 24.2186C252.804 22.7989 252.512 21.2261 252.512 19.5002V0.751587H256.52Z" fill="#FFFDF4"/>
<path d="M242.268 0.751587H246.276V30.3151H242.268V0.751587Z" fill="#FFFDF4"/>
<path d="M217.576 0.751587H236.659V4.50965H221.585V13.3202H235.615V17.0783H221.585V26.557H237.41V30.3151H217.576V0.751587Z" fill="#FFFDF4"/>
<path d="M196.086 24.1352C196.81 25.2208 197.728 26.0281 198.842 26.557C199.983 27.0581 201.152 27.3086 202.349 27.3086C203.017 27.3086 203.699 27.2112 204.395 27.0163C205.091 26.7936 205.718 26.4735 206.274 26.0559C206.859 25.6384 207.332 25.1234 207.694 24.511C208.056 23.8985 208.237 23.1887 208.237 22.3814C208.237 21.2401 207.875 20.3771 207.151 19.7925C206.428 19.1801 205.523 18.679 204.437 18.2893C203.379 17.8717 202.21 17.482 200.93 17.1201C199.677 16.7304 198.508 16.2015 197.422 15.5334C196.364 14.8653 195.473 13.9745 194.75 12.8609C194.026 11.7196 193.664 10.1885 193.664 8.26775C193.664 7.40479 193.845 6.48615 194.207 5.51183C194.597 4.53752 195.195 3.64672 196.002 2.83943C196.81 2.03214 197.84 1.36404 199.092 0.835126C200.373 0.278375 201.904 0 203.686 0C205.3 0 206.845 0.2227 208.32 0.6681C209.796 1.1135 211.09 2.01822 212.204 3.38226L208.947 6.34696C208.446 5.56751 207.736 4.94116 206.817 4.46793C205.899 3.99469 204.855 3.75807 203.686 3.75807C202.572 3.75807 201.639 3.91118 200.888 4.21739C200.164 4.49576 199.579 4.87157 199.134 5.34481C198.689 5.79021 198.369 6.27737 198.174 6.80628C198.007 7.33519 197.923 7.82235 197.923 8.26775C197.923 9.52044 198.285 10.4808 199.009 11.1489C199.733 11.817 200.623 12.3599 201.681 12.7774C202.767 13.195 203.936 13.5708 205.189 13.9049C206.469 14.2389 207.638 14.7121 208.696 15.3246C209.782 15.9092 210.687 16.7164 211.41 17.7464C212.134 18.7486 212.496 20.1405 212.496 21.9221C212.496 23.3418 212.218 24.6223 211.661 25.7637C211.132 26.905 210.408 27.8654 209.49 28.6448C208.571 29.4243 207.485 30.0228 206.233 30.4404C204.98 30.8579 203.644 31.0667 202.224 31.0667C200.331 31.0667 198.536 30.7327 196.837 30.0646C195.139 29.3965 193.789 28.3665 192.787 26.9746L196.086 24.1352Z" fill="#FFFDF4"/>
<path d="M183.073 18.8738H182.906C181.987 19.3192 180.901 19.5419 179.649 19.5419C178.591 19.5419 177.519 19.361 176.433 18.9991C175.348 18.6372 174.359 18.0804 173.469 17.3288C172.606 16.5494 171.896 15.5751 171.339 14.4059C170.782 13.2089 170.504 11.8031 170.504 10.1885C170.504 8.57392 170.768 7.1542 171.297 5.92935C171.854 4.67666 172.592 3.63275 173.51 2.79762C174.429 1.9625 175.501 1.33615 176.726 0.918589C177.95 0.473189 179.259 0.250488 180.651 0.250488C182.043 0.250488 183.351 0.473189 184.576 0.918589C185.801 1.36399 186.872 2.00425 187.791 2.83938C188.71 3.67451 189.433 4.67666 189.962 5.84584C190.519 7.01501 190.797 8.32338 190.797 9.77093C190.797 10.6896 190.728 11.5247 190.589 12.2763C190.45 13.0279 190.241 13.7517 189.962 14.4476C189.712 15.1157 189.406 15.7838 189.044 16.4519C188.682 17.12 188.278 17.8021 187.833 18.498L180.358 30.315H175.64L183.073 18.8738ZM186.789 9.8962C186.789 9.0054 186.636 8.18419 186.33 7.43258C186.051 6.68096 185.634 6.0407 185.077 5.51178C184.548 4.95503 183.908 4.52355 183.156 4.21734C182.404 3.91113 181.569 3.75802 180.651 3.75802C179.732 3.75802 178.897 3.91113 178.145 4.21734C177.394 4.52355 176.74 4.95503 176.183 5.51178C175.654 6.0407 175.236 6.68096 174.93 7.43258C174.652 8.18419 174.513 9.0054 174.513 9.8962C174.513 10.787 174.652 11.6082 174.93 12.3598C175.236 13.1114 175.654 13.7656 176.183 14.3224C176.74 14.8513 177.394 15.2688 178.145 15.5751C178.897 15.8813 179.732 16.0344 180.651 16.0344C181.569 16.0344 182.404 15.8813 183.156 15.5751C183.908 15.2688 184.548 14.8513 185.077 14.3224C185.634 13.7656 186.051 13.1114 186.33 12.3598C186.636 11.6082 186.789 10.787 186.789 9.8962Z" fill="#FFFDF4"/>
<path d="M160.705 18.8738H160.538C159.62 19.3192 158.534 19.5419 157.281 19.5419C156.224 19.5419 155.152 19.361 154.066 18.9991C152.98 18.6372 151.992 18.0804 151.101 17.3288C150.238 16.5494 149.529 15.5751 148.972 14.4059C148.415 13.2089 148.137 11.8031 148.137 10.1885C148.137 8.57392 148.401 7.1542 148.93 5.92935C149.487 4.67666 150.225 3.63275 151.143 2.79762C152.062 1.9625 153.134 1.33615 154.358 0.918589C155.583 0.473189 156.892 0.250488 158.284 0.250488C159.675 0.250488 160.984 0.473189 162.209 0.918589C163.433 1.36399 164.505 2.00425 165.424 2.83938C166.342 3.67451 167.066 4.67666 167.595 5.84584C168.152 7.01501 168.43 8.32338 168.43 9.77093C168.43 10.6896 168.361 11.5247 168.222 12.2763C168.082 13.0279 167.874 13.7517 167.595 14.4476C167.345 15.1157 167.038 15.7838 166.677 16.4519C166.315 17.12 165.911 17.8021 165.466 18.498L157.991 30.315H153.273L160.705 18.8738ZM164.422 9.8962C164.422 9.0054 164.269 8.18419 163.962 7.43258C163.684 6.68096 163.266 6.0407 162.71 5.51178C162.181 4.95503 161.54 4.52355 160.789 4.21734C160.037 3.91113 159.202 3.75802 158.284 3.75802C157.365 3.75802 156.53 3.91113 155.778 4.21734C155.027 4.52355 154.372 4.95503 153.816 5.51178C153.287 6.0407 152.869 6.68096 152.563 7.43258C152.285 8.18419 152.145 9.0054 152.145 9.8962C152.145 10.787 152.285 11.6082 152.563 12.3598C152.869 13.1114 153.287 13.7656 153.816 14.3224C154.372 14.8513 155.027 15.2688 155.778 15.5751C156.53 15.8813 157.365 16.0344 158.284 16.0344C159.202 16.0344 160.037 15.8813 160.789 15.5751C161.54 15.2688 162.181 14.8513 162.71 14.3224C163.266 13.7656 163.684 13.1114 163.962 12.3598C164.269 11.6082 164.422 10.787 164.422 9.8962Z" fill="#FFFDF4"/>
<path d="M135.581 5.34478L130.153 10.3555L127.814 7.55787L136.04 0.751587H139.59V30.3151H135.581V5.34478Z" fill="#FFFDF4"/>
<path d="M113.214 5.34478L107.786 10.3555L105.447 7.55787L113.673 0.751587H117.223V30.3151H113.214V5.34478Z" fill="#FFFDF4"/>
</svg>
