<svg width="493" height="108" viewBox="0 0 493 108" fill="none" xmlns="http://www.w3.org/2000/svg">
<path d="M487.168 82.1225V93.293C487.168 94.2153 487.364 94.8724 487.756 95.2643C488.148 95.6332 488.828 95.8177 489.796 95.8177H492.114V98.4806H489.278C487.525 98.4806 486.211 98.0771 485.335 97.2702C484.459 96.4632 484.021 95.1375 484.021 93.293V82.1225H481.565V79.5287H484.021V74.7561H487.168V79.5287H492.114V82.1225H487.168Z" fill="#780E1C"/>
<path d="M471.479 79.1829C473.785 79.1829 475.652 79.8861 477.082 81.2925C478.511 82.6758 479.226 84.6817 479.226 87.3101V98.4806H476.113V87.7597C476.113 85.8691 475.641 84.4281 474.696 83.4367C473.75 82.4222 472.459 81.915 470.822 81.915C469.162 81.915 467.836 82.4337 466.845 83.4713C465.877 84.5088 465.392 86.0189 465.392 88.0017V98.4806H462.245V79.5287H465.392V82.2262C466.015 81.2579 466.857 80.5086 467.917 79.9783C469.001 79.448 470.188 79.1829 471.479 79.1829Z" fill="#780E1C"/>
<path d="M459.129 88.2785C459.129 88.8779 459.094 89.512 459.025 90.1806H443.877C443.992 92.0481 444.627 93.5122 445.779 94.5728C446.955 95.6103 448.373 96.129 450.033 96.129C451.393 96.129 452.523 95.8178 453.422 95.1953C454.345 94.5497 454.99 93.6966 455.359 92.6361H458.748C458.241 94.4575 457.227 95.9446 455.705 97.0974C454.183 98.2271 452.293 98.792 450.033 98.792C448.235 98.792 446.621 98.3885 445.191 97.5816C443.785 96.7746 442.678 95.6333 441.871 94.1577C441.064 92.6591 440.661 90.9299 440.661 88.9702C440.661 87.0104 441.053 85.2928 441.837 83.8172C442.621 82.3416 443.716 81.2119 445.122 80.428C446.552 79.621 448.189 79.2175 450.033 79.2175C451.831 79.2175 453.422 79.6095 454.806 80.3934C456.189 81.1773 457.25 82.2609 457.987 83.6443C458.748 85.0046 459.129 86.5493 459.129 88.2785ZM455.878 87.6214C455.878 86.4225 455.613 85.3965 455.082 84.5434C454.552 83.6673 453.826 83.0102 452.904 82.5722C452.004 82.111 451.001 81.8805 449.895 81.8805C448.304 81.8805 446.944 82.3877 445.814 83.4022C444.707 84.4166 444.073 85.823 443.912 87.6214H455.878Z" fill="#780E1C"/>
<path d="M430.034 79.1829C431.51 79.1829 432.824 79.4941 433.977 80.1166C435.13 80.7161 436.04 81.6268 436.709 82.8487C437.377 84.0707 437.712 85.5578 437.712 87.3101V98.4806H434.599V87.7597C434.599 85.8691 434.127 84.4281 433.181 83.4367C432.259 82.4222 431.003 81.915 429.412 81.915C427.775 81.915 426.472 82.4453 425.504 83.5058C424.535 84.5434 424.051 86.0535 424.051 88.0363V98.4806H420.939V87.7597C420.939 85.8691 420.466 84.4281 419.521 83.4367C418.598 82.4222 417.342 81.915 415.751 81.915C414.114 81.915 412.811 82.4453 411.843 83.5058C410.875 84.5434 410.391 86.0535 410.391 88.0363V98.4806H407.243V79.5287H410.391V82.2608C411.013 81.2694 411.843 80.5086 412.881 79.9783C413.941 79.448 415.105 79.1829 416.374 79.1829C417.964 79.1829 419.371 79.5402 420.593 80.255C421.815 80.9697 422.725 82.0187 423.325 83.4021C423.855 82.0649 424.731 81.0273 425.953 80.2895C427.175 79.5518 428.536 79.1829 430.034 79.1829Z" fill="#780E1C"/>
<path d="M404.127 88.2785C404.127 88.8779 404.092 89.512 404.023 90.1806H388.875C388.991 92.0481 389.625 93.5122 390.778 94.5728C391.953 95.6103 393.371 96.129 395.031 96.129C396.392 96.129 397.521 95.8178 398.421 95.1953C399.343 94.5497 399.988 93.6966 400.357 92.6361H403.747C403.239 94.4575 402.225 95.9446 400.703 97.0974C399.181 98.2271 397.291 98.792 395.031 98.792C393.233 98.792 391.619 98.3885 390.19 97.5816C388.783 96.7746 387.677 95.6333 386.87 94.1577C386.063 92.6591 385.659 90.9299 385.659 88.9702C385.659 87.0104 386.051 85.2928 386.835 83.8172C387.619 82.3416 388.714 81.2119 390.121 80.428C391.55 79.621 393.187 79.2175 395.031 79.2175C396.83 79.2175 398.421 79.6095 399.804 80.3934C401.187 81.1773 402.248 82.2609 402.986 83.6443C403.747 85.0046 404.127 86.5493 404.127 88.2785ZM400.876 87.6214C400.876 86.4225 400.611 85.3965 400.081 84.5434C399.55 83.6673 398.824 83.0102 397.902 82.5722C397.003 82.111 396 81.8805 394.893 81.8805C393.302 81.8805 391.942 82.3877 390.812 83.4022C389.706 84.4166 389.071 85.823 388.91 87.6214H400.876Z" fill="#780E1C"/>
<path d="M365.69 88.9702C365.69 87.0104 366.082 85.3043 366.866 83.8518C367.649 82.3762 368.733 81.2349 370.116 80.428C371.523 79.621 373.125 79.2175 374.924 79.2175C377.252 79.2175 379.166 79.7824 380.665 80.9121C382.186 82.0419 383.189 83.6097 383.673 85.6155H380.284C379.961 84.4627 379.327 83.552 378.382 82.8834C377.46 82.2148 376.307 81.8805 374.924 81.8805C373.125 81.8805 371.673 82.503 370.566 83.748C369.459 84.97 368.906 86.7107 368.906 88.9702C368.906 91.2527 369.459 93.0165 370.566 94.2615C371.673 95.5065 373.125 96.129 374.924 96.129C376.307 96.129 377.46 95.8062 378.382 95.1607C379.304 94.5151 379.938 93.5929 380.284 92.394H383.673C383.166 94.3307 382.152 95.8869 380.63 97.0628C379.108 98.2156 377.206 98.792 374.924 98.792C373.125 98.792 371.523 98.3885 370.116 97.5816C368.733 96.7746 367.649 95.6333 366.866 94.1577C366.082 92.6822 365.69 90.953 365.69 88.9702Z" fill="#780E1C"/>
<path d="M343.356 88.9356C343.356 86.9989 343.748 85.3043 344.532 83.8518C345.316 82.3762 346.388 81.2349 347.748 80.428C349.131 79.621 350.665 79.2175 352.348 79.2175C354.008 79.2175 355.449 79.5749 356.671 80.2896C357.893 81.0044 358.803 81.9035 359.403 82.9872V79.5288H362.585V98.4807H359.403V94.9532C358.78 96.0599 357.847 96.9821 356.602 97.7199C355.38 98.4346 353.95 98.792 352.313 98.792C350.63 98.792 349.108 98.377 347.748 97.547C346.388 96.717 345.316 95.5526 344.532 94.054C343.748 92.5554 343.356 90.8492 343.356 88.9356ZM359.403 88.9702C359.403 87.5407 359.115 86.2957 358.538 85.2351C357.962 84.1745 357.178 83.3676 356.187 82.8142C355.218 82.2378 354.146 81.9497 352.97 81.9497C351.794 81.9497 350.722 82.2263 349.754 82.7797C348.786 83.333 348.013 84.14 347.437 85.2005C346.86 86.2611 346.572 87.5061 346.572 88.9356C346.572 90.3881 346.86 91.6562 347.437 92.7398C348.013 93.8004 348.786 94.6189 349.754 95.1953C350.722 95.7486 351.794 96.0253 352.97 96.0253C354.146 96.0253 355.218 95.7486 356.187 95.1953C357.178 94.6189 357.962 93.8004 358.538 92.7398C359.115 91.6562 359.403 90.3996 359.403 88.9702Z" fill="#780E1C"/>
<path d="M340.206 72.8887V98.4807H337.059V72.8887H340.206Z" fill="#780E1C"/>
<path d="M334.185 81.4308C334.185 83.4367 333.493 85.1082 332.11 86.4455C330.749 87.7597 328.663 88.4168 325.85 88.4168H321.216V98.4807H318.069V74.3757H325.85C328.571 74.3757 330.634 75.0328 332.04 76.347C333.47 77.6612 334.185 79.3558 334.185 81.4308ZM325.85 85.823C327.602 85.823 328.893 85.4426 329.723 84.6817C330.553 83.9209 330.968 82.8372 330.968 81.4308C330.968 78.4566 329.262 76.9695 325.85 76.9695H321.216V85.823H325.85Z" fill="#780E1C"/>
<path d="M290.699 83.0563C291.345 81.9266 292.29 81.0043 293.535 80.2896C294.78 79.5749 296.198 79.2175 297.789 79.2175C299.495 79.2175 301.028 79.621 302.389 80.4279C303.749 81.2349 304.821 82.3762 305.605 83.8518C306.389 85.3043 306.781 86.9989 306.781 88.9356C306.781 90.8492 306.389 92.5553 305.605 94.054C304.821 95.5526 303.737 96.7169 302.354 97.547C300.994 98.377 299.472 98.792 297.789 98.792C296.152 98.792 294.711 98.4346 293.466 97.7199C292.244 97.0051 291.322 96.0944 290.699 94.9877V98.4807H287.552V72.8887H290.699V83.0563ZM303.565 88.9356C303.565 87.5061 303.276 86.2611 302.7 85.2005C302.124 84.14 301.34 83.333 300.348 82.7796C299.38 82.2263 298.308 81.9496 297.132 81.9496C295.979 81.9496 294.907 82.2378 293.916 82.8142C292.947 83.3676 292.163 84.1861 291.564 85.2697C290.988 86.3303 290.699 87.5638 290.699 88.9702C290.699 90.3996 290.988 91.6562 291.564 92.7398C292.163 93.8004 292.947 94.6189 293.916 95.1953C294.907 95.7486 295.979 96.0253 297.132 96.0253C298.308 96.0253 299.38 95.7486 300.348 95.1953C301.34 94.6189 302.124 93.8004 302.7 92.7398C303.276 91.6562 303.565 90.3881 303.565 88.9356Z" fill="#780E1C"/>
<path d="M274.734 98.792C272.959 98.792 271.345 98.3885 269.892 97.5816C268.463 96.7746 267.333 95.6333 266.503 94.1577C265.696 92.6591 265.292 90.9299 265.292 88.9702C265.292 87.0335 265.707 85.3273 266.538 83.8518C267.391 82.3531 268.543 81.2119 269.996 80.428C271.448 79.621 273.074 79.2175 274.872 79.2175C276.671 79.2175 278.296 79.621 279.749 80.428C281.201 81.2119 282.342 82.3416 283.172 83.8172C284.025 85.2928 284.452 87.0104 284.452 88.9702C284.452 90.9299 284.014 92.6591 283.138 94.1577C282.285 95.6333 281.12 96.7746 279.645 97.5816C278.169 98.3885 276.532 98.792 274.734 98.792ZM274.734 96.0253C275.864 96.0253 276.924 95.7601 277.916 95.2299C278.907 94.6996 279.702 93.9041 280.302 92.8436C280.924 91.783 281.236 90.4919 281.236 88.9702C281.236 87.4485 280.936 86.1574 280.336 85.0968C279.737 84.0362 278.953 83.2523 277.985 82.7451C277.016 82.2148 275.967 81.9497 274.838 81.9497C273.685 81.9497 272.624 82.2148 271.656 82.7451C270.711 83.2523 269.95 84.0362 269.373 85.0968C268.797 86.1574 268.509 87.4485 268.509 88.9702C268.509 90.5149 268.785 91.8176 269.339 92.8781C269.915 93.9387 270.676 94.7341 271.621 95.2644C272.567 95.7717 273.604 96.0253 274.734 96.0253Z" fill="#780E1C"/>
<path d="M261.306 74.3757V92.1864C261.306 94.1692 260.695 95.7601 259.473 96.959C258.251 98.1348 256.637 98.7228 254.631 98.7228C252.602 98.7228 250.977 98.1233 249.755 96.9244C248.533 95.7024 247.922 94.0424 247.922 91.9443H251.069C251.092 93.1202 251.392 94.077 251.968 94.8148C252.568 95.5526 253.455 95.9215 254.631 95.9215C255.807 95.9215 256.683 95.5756 257.26 94.8839C257.836 94.1692 258.124 93.27 258.124 92.1864V74.3757H261.306Z" fill="#780E1C"/>
<path d="M234.958 98.4807L231.811 95.299C230.635 96.521 229.378 97.4317 228.041 98.0311C226.704 98.6075 225.194 98.8957 223.511 98.8957C221.851 98.8957 220.375 98.596 219.084 97.9965C217.816 97.3971 216.825 96.544 216.11 95.4373C215.418 94.3306 215.072 93.0395 215.072 91.5639C215.072 89.8809 215.545 88.4053 216.49 87.1372C217.459 85.8461 218.876 84.8316 220.744 84.0938C220.006 83.2177 219.476 82.4108 219.153 81.673C218.83 80.9352 218.669 80.1282 218.669 79.2521C218.669 78.2376 218.923 77.3269 219.43 76.52C219.96 75.69 220.709 75.0444 221.678 74.5833C222.646 74.1222 223.764 73.8916 225.032 73.8916C226.277 73.8916 227.361 74.1337 228.283 74.6179C229.206 75.102 229.897 75.7822 230.358 76.6583C230.819 77.5114 231.027 78.4682 230.981 79.5288H227.834C227.857 78.5835 227.592 77.8457 227.038 77.3154C226.485 76.7621 225.77 76.4854 224.894 76.4854C223.972 76.4854 223.223 76.7505 222.646 77.2808C222.093 77.7881 221.816 78.4451 221.816 79.2521C221.816 79.9438 222.001 80.6124 222.369 81.258C222.761 81.9035 223.407 82.699 224.306 83.6442L231.5 90.8723L232.122 89.9039L234.474 85.9614H237.863L235.027 90.8723C234.635 91.5639 234.174 92.2902 233.644 93.051L239.073 98.4807H234.958ZM223.511 96.1982C224.756 96.1982 225.874 95.9561 226.865 95.4719C227.88 94.9877 228.837 94.2384 229.736 93.224L222.646 86.0997C219.695 87.2294 218.219 89.0163 218.219 91.4602C218.219 92.8205 218.704 93.9502 219.672 94.8494C220.663 95.7486 221.943 96.1982 223.511 96.1982Z" fill="#780E1C"/>
<path d="M200.552 82.1225V93.293C200.552 94.2153 200.748 94.8724 201.14 95.2643C201.532 95.6332 202.212 95.8177 203.18 95.8177H205.497V98.4806H202.661C200.909 98.4806 199.595 98.0771 198.719 97.2702C197.843 96.4632 197.405 95.1375 197.405 93.293V82.1225H194.949V79.5287H197.405V74.7561H200.552V79.5287H205.497V82.1225H200.552Z" fill="#780E1C"/>
<path d="M184.863 79.1829C187.168 79.1829 189.036 79.8861 190.465 81.2925C191.895 82.6758 192.61 84.6817 192.61 87.3101V98.4806H189.497V87.7597C189.497 85.8691 189.024 84.4281 188.079 83.4367C187.134 82.4222 185.843 81.915 184.206 81.915C182.546 81.915 181.22 82.4337 180.229 83.4713C179.26 84.5088 178.776 86.0189 178.776 88.0017V98.4806H175.629V79.5287H178.776V82.2262C179.399 81.2579 180.24 80.5086 181.301 79.9783C182.384 79.448 183.572 79.1829 184.863 79.1829Z" fill="#780E1C"/>
<path d="M172.512 88.2785C172.512 88.8779 172.478 89.512 172.409 90.1806H157.261C157.376 92.0481 158.01 93.5122 159.163 94.5728C160.339 95.6103 161.757 96.129 163.417 96.129C164.777 96.129 165.907 95.8178 166.806 95.1953C167.728 94.5497 168.374 93.6966 168.743 92.6361H172.132C171.625 94.4575 170.61 95.9446 169.089 97.0974C167.567 98.2271 165.676 98.792 163.417 98.792C161.619 98.792 160.005 98.3885 158.575 97.5816C157.169 96.7746 156.062 95.6333 155.255 94.1577C154.448 92.6591 154.045 90.9299 154.045 88.9702C154.045 87.0104 154.437 85.2928 155.221 83.8172C156.004 82.3416 157.1 81.2119 158.506 80.428C159.935 79.621 161.572 79.2175 163.417 79.2175C165.215 79.2175 166.806 79.6095 168.189 80.3934C169.573 81.1773 170.633 82.2609 171.371 83.6443C172.132 85.0046 172.512 86.5493 172.512 88.2785ZM169.262 87.6214C169.262 86.4225 168.996 85.3965 168.466 84.5434C167.936 83.6673 167.21 83.0102 166.287 82.5722C165.388 82.111 164.385 81.8805 163.279 81.8805C161.688 81.8805 160.327 82.3877 159.198 83.4022C158.091 84.4166 157.457 85.823 157.296 87.6214H169.262Z" fill="#780E1C"/>
<path d="M143.418 79.1829C144.894 79.1829 146.208 79.4941 147.361 80.1166C148.513 80.7161 149.424 81.6268 150.093 82.8487C150.761 84.0707 151.096 85.5578 151.096 87.3101V98.4806H147.983V87.7597C147.983 85.8691 147.51 84.4281 146.565 83.4367C145.643 82.4222 144.386 81.915 142.795 81.915C141.158 81.915 139.856 82.4453 138.887 83.5058C137.919 84.5434 137.435 86.0535 137.435 88.0363V98.4806H134.322V87.7597C134.322 85.8691 133.85 84.4281 132.904 83.4367C131.982 82.4222 130.726 81.915 129.135 81.915C127.498 81.915 126.195 82.4453 125.227 83.5058C124.259 84.5434 123.774 86.0535 123.774 88.0363V98.4806H120.627V79.5287H123.774V82.2608C124.397 81.2694 125.227 80.5086 126.264 79.9783C127.325 79.448 128.489 79.1829 129.757 79.1829C131.348 79.1829 132.755 79.5402 133.977 80.255C135.199 80.9697 136.109 82.0187 136.709 83.4021C137.239 82.0649 138.115 81.0273 139.337 80.2895C140.559 79.5518 141.919 79.1829 143.418 79.1829Z" fill="#780E1C"/>
<path d="M118.501 79.5288L107.089 107.403H103.838L107.573 98.2732L99.9297 79.5288H103.423L109.371 94.884L115.25 79.5288H118.501Z" fill="#780E1C"/>
<path d="M89.3591 98.792C87.5838 98.792 85.9699 98.3885 84.5174 97.5816C83.0879 96.7746 81.9582 95.6333 81.1282 94.1577C80.3212 92.6591 79.9177 90.9299 79.9177 88.9702C79.9177 87.0335 80.3327 85.3273 81.1627 83.8518C82.0158 82.3531 83.1686 81.2119 84.6211 80.428C86.0736 79.621 87.6991 79.2175 89.4974 79.2175C91.2958 79.2175 92.9212 79.621 94.3738 80.428C95.8263 81.2119 96.9676 82.3416 97.7976 83.8172C98.6506 85.2928 99.0772 87.0104 99.0772 88.9702C99.0772 90.9299 98.6391 92.6591 97.763 94.1577C96.9099 95.6333 95.7456 96.7746 94.27 97.5816C92.7944 98.3885 91.1575 98.792 89.3591 98.792ZM89.3591 96.0253C90.4888 96.0253 91.5494 95.7601 92.5408 95.2299C93.5322 94.6996 94.3277 93.9041 94.9271 92.8436C95.5496 91.783 95.8609 90.4919 95.8609 88.9702C95.8609 87.4485 95.5611 86.1574 94.9617 85.0968C94.3622 84.0362 93.5783 83.2523 92.61 82.7451C91.6416 82.2148 90.5926 81.9497 89.4629 81.9497C88.3101 81.9497 87.2495 82.2148 86.2812 82.7451C85.3359 83.2523 84.575 84.0362 83.9986 85.0968C83.4222 86.1574 83.134 87.4485 83.134 88.9702C83.134 90.5149 83.4107 91.8176 83.964 92.8781C84.5404 93.9387 85.3013 94.7341 86.2466 95.2644C87.1919 95.7717 88.2294 96.0253 89.3591 96.0253Z" fill="#780E1C"/>
<path d="M76.7672 72.8887V98.4807H73.6201V72.8887H76.7672Z" fill="#780E1C"/>
<path d="M54.4337 83.0218C55.0563 81.9381 55.9785 81.0389 57.2005 80.3242C58.4455 79.5864 59.8865 79.2175 61.5234 79.2175C63.2065 79.2175 64.7282 79.621 66.0885 80.428C67.4719 81.2349 68.5555 82.3762 69.3394 83.8518C70.1233 85.3043 70.5152 86.9989 70.5152 88.9356C70.5152 90.8492 70.1233 92.5554 69.3394 94.054C68.5555 95.5526 67.4719 96.717 66.0885 97.547C64.7282 98.377 63.2065 98.792 61.5234 98.792C59.9095 98.792 58.4801 98.4346 57.235 97.7199C56.0131 96.9821 55.0793 96.0714 54.4337 94.9878V107.473H51.2866V79.5288H54.4337V83.0218ZM67.2989 88.9356C67.2989 87.5061 67.0107 86.2611 66.4343 85.2005C65.8579 84.14 65.074 83.333 64.0826 82.7797C63.1143 82.2263 62.0422 81.9497 60.8663 81.9497C59.7135 81.9497 58.6415 82.2378 57.65 82.8142C56.6817 83.3676 55.8978 84.1861 55.2983 85.2697C54.722 86.3303 54.4337 87.5638 54.4337 88.9702C54.4337 90.3996 54.722 91.6562 55.2983 92.7398C55.8978 93.8004 56.6817 94.6189 57.65 95.1953C58.6415 95.7486 59.7135 96.0253 60.8663 96.0253C62.0422 96.0253 63.1143 95.7486 64.0826 95.1953C65.074 94.6189 65.8579 93.8004 66.4343 92.7398C67.0107 91.6562 67.2989 90.3881 67.2989 88.9356Z" fill="#780E1C"/>
<path d="M39.4841 79.1829C40.9597 79.1829 42.2739 79.4941 43.4267 80.1166C44.5795 80.7161 45.4902 81.6268 46.1588 82.8487C46.8274 84.0707 47.1617 85.5578 47.1617 87.3101V98.4806H44.0492V87.7597C44.0492 85.8691 43.5765 84.4281 42.6312 83.4367C41.709 82.4222 40.4525 81.915 38.8616 81.915C37.2246 81.915 35.922 82.4453 34.9536 83.5058C33.9853 84.5434 33.5011 86.0535 33.5011 88.0363V98.4806H30.3886V87.7597C30.3886 85.8691 29.9159 84.4281 28.9706 83.4367C28.0484 82.4222 26.7918 81.915 25.201 81.915C23.564 81.915 22.2614 82.4453 21.293 83.5058C20.3247 84.5434 19.8405 86.0535 19.8405 88.0363V98.4806H16.6934V79.5287H19.8405V82.2608C20.463 81.2694 21.293 80.5086 22.3305 79.9783C23.3911 79.448 24.5554 79.1829 25.8235 79.1829C27.4143 79.1829 28.8208 79.5402 30.0427 80.255C31.2647 80.9697 32.1754 82.0187 32.7748 83.4021C33.3051 82.0649 34.1813 81.0273 35.4032 80.2895C36.6252 79.5518 37.9855 79.1829 39.4841 79.1829Z" fill="#780E1C"/>
<path d="M3.14713 76.9349V84.9929H11.9314V87.5867H3.14713V95.8868H12.9689V98.4806H0V74.3411H12.9689V76.9349H3.14713Z" fill="#780E1C"/>
<path d="M456.89 24.6545C456.234 23.8348 455.414 23.1585 454.431 22.6256C453.488 22.0518 452.32 21.7649 450.926 21.7649C449.614 21.7649 448.467 22.0518 447.483 22.6256C446.54 23.1585 446.069 23.9577 446.069 25.0234C446.069 25.8842 446.335 26.581 446.868 27.1138C447.442 27.6467 448.098 28.0771 448.836 28.405C449.614 28.7329 450.434 28.9788 451.295 29.1427C452.156 29.3067 452.894 29.4502 453.508 29.5731C454.697 29.86 455.804 30.2084 456.828 30.6183C457.894 31.0282 458.796 31.5611 459.534 32.2169C460.312 32.8727 460.907 33.672 461.317 34.6147C461.767 35.5574 461.993 36.7051 461.993 38.0577C461.993 39.6972 461.645 41.1113 460.948 42.3C460.251 43.4477 459.349 44.3904 458.242 45.1282C457.136 45.866 455.865 46.3988 454.431 46.7267C453.037 47.0546 451.623 47.2186 450.188 47.2186C447.77 47.2186 445.639 46.8497 443.794 46.1119C441.991 45.3741 440.372 44.0215 438.937 42.0541L443.118 38.611C444.02 39.5128 445.024 40.312 446.13 41.0089C447.237 41.7057 448.59 42.0541 450.188 42.0541C450.885 42.0541 451.582 41.9926 452.279 41.8696C453.016 41.7056 453.652 41.4802 454.185 41.1933C454.758 40.8654 455.209 40.476 455.537 40.0251C455.906 39.5333 456.091 38.9799 456.091 38.3651C456.091 37.5453 455.824 36.869 455.291 36.3362C454.799 35.8033 454.185 35.3935 453.447 35.1065C452.75 34.7786 451.992 34.5327 451.172 34.3688C450.393 34.1638 449.696 33.9999 449.082 33.8769C447.893 33.59 446.766 33.2621 445.7 32.8932C444.634 32.5243 443.692 32.0324 442.872 31.4176C442.052 30.8028 441.396 30.024 440.904 29.0813C440.413 28.1385 440.167 26.9704 440.167 25.5768C440.167 24.0602 440.474 22.7486 441.089 21.6419C441.745 20.4942 442.585 19.5515 443.61 18.8137C444.675 18.0759 445.864 17.5226 447.176 17.1537C448.528 16.7848 449.881 16.6003 451.233 16.6003C453.201 16.6003 455.086 16.9692 456.89 17.707C458.693 18.4448 460.128 19.6745 461.194 21.396L456.89 24.6545Z" fill="#780E1C"/>
<path d="M434.244 46.4807H428.711V42.2999H428.588C427.522 43.8574 426.047 45.0666 424.161 45.9273C422.317 46.7881 420.411 47.2185 418.443 47.2185C416.189 47.2185 414.139 46.8291 412.295 46.0503C410.492 45.2715 408.934 44.1853 407.622 42.7917C406.352 41.3981 405.368 39.7791 404.671 37.9346C403.974 36.0902 403.626 34.0817 403.626 31.9094C403.626 29.737 403.974 27.7286 404.671 25.8841C405.368 23.9986 406.352 22.3796 407.622 21.027C408.934 19.6334 410.492 18.5472 412.295 17.7684C414.139 16.9896 416.189 16.6002 418.443 16.6002C420.534 16.6002 422.501 17.0511 424.346 17.9529C426.19 18.8136 427.604 20.0023 428.588 21.5188H428.711V0H434.244V46.4807ZM419.12 42.054C420.595 42.054 421.927 41.808 423.116 41.3162C424.305 40.7833 425.309 40.0865 426.129 39.2258C426.948 38.324 427.584 37.2583 428.034 36.0287C428.485 34.758 428.711 33.3849 428.711 31.9094C428.711 30.4338 428.485 29.0812 428.034 27.8515C427.584 26.5809 426.948 25.5152 426.129 24.6544C425.309 23.7527 424.305 23.0559 423.116 22.564C421.927 22.0312 420.595 21.7648 419.12 21.7648C417.644 21.7648 416.312 22.0312 415.123 22.564C413.935 23.0559 412.93 23.7527 412.111 24.6544C411.291 25.5152 410.655 26.5809 410.205 27.8515C409.754 29.0812 409.528 30.4338 409.528 31.9094C409.528 33.3849 409.754 34.758 410.205 36.0287C410.655 37.2583 411.291 38.324 412.111 39.2258C412.93 40.0865 413.935 40.7833 415.123 41.3162C416.312 41.808 417.644 42.054 419.12 42.054Z" fill="#780E1C"/>
<path d="M372.106 17.3381H377.639V21.8263H377.762C378.459 20.2688 379.668 19.0187 381.39 18.0759C383.111 17.0922 385.099 16.6003 387.354 16.6003C388.747 16.6003 390.079 16.8258 391.35 17.2766C392.662 17.6865 393.789 18.3423 394.731 19.2441C395.715 20.1458 396.494 21.314 397.068 22.7486C397.642 24.1422 397.929 25.8022 397.929 27.7287V46.4808H392.395V29.2657C392.395 27.9131 392.211 26.7654 391.842 25.8227C391.473 24.839 390.981 24.0602 390.366 23.4864C389.751 22.8715 389.034 22.4412 388.214 22.1952C387.436 21.9083 386.616 21.7649 385.755 21.7649C384.607 21.7649 383.542 21.9493 382.558 22.3182C381.574 22.6871 380.713 23.2814 379.976 24.1012C379.238 24.88 378.664 25.8842 378.254 27.1138C377.844 28.3435 377.639 29.7986 377.639 31.4791V46.4808H372.106V17.3381Z" fill="#780E1C"/>
<path d="M364.995 46.4808H359.462V41.9926H359.339C358.642 43.5501 357.433 44.8208 355.711 45.8045C353.99 46.7472 352.002 47.2186 349.747 47.2186C348.313 47.2186 346.96 46.9931 345.689 46.5423C344.419 46.1324 343.292 45.4766 342.308 44.5748C341.365 43.6731 340.607 42.5254 340.033 41.1318C339.459 39.6972 339.172 38.0167 339.172 36.0903V17.3381H344.706V34.5532C344.706 35.9058 344.89 37.074 345.259 38.0577C345.628 39.0004 346.12 39.7792 346.735 40.394C347.35 40.9679 348.046 41.3982 348.825 41.6852C349.645 41.9311 350.485 42.0541 351.346 42.0541C352.494 42.0541 353.559 41.8696 354.543 41.5007C355.527 41.1318 356.387 40.558 357.125 39.7792C357.863 38.9594 358.437 37.9347 358.847 36.7051C359.257 35.4754 359.462 34.0204 359.462 32.3398V17.3381H364.995V46.4808Z" fill="#780E1C"/>
<path d="M306.512 2.95117H333.871V8.48458H312.414V22.1337H332.396V27.6671H312.414V46.4807H306.512V2.95117Z" fill="#780E1C"/>
<path d="M253.672 2.95117V29.6345C253.672 30.9871 253.857 32.4012 254.226 33.8768C254.595 35.3114 255.209 36.6435 256.07 37.8732C256.931 39.1028 258.058 40.107 259.452 40.8858C260.845 41.6646 262.567 42.054 264.616 42.054C266.666 42.054 268.387 41.6646 269.781 40.8858C271.174 40.107 272.302 39.1028 273.162 37.8732C274.023 36.6435 274.638 35.3114 275.007 33.8768C275.376 32.4012 275.56 30.9871 275.56 29.6345V2.95117H281.462V30.5568C281.462 33.098 281.032 35.4139 280.171 37.5043C279.31 39.5537 278.122 41.3367 276.605 42.8532C275.089 44.3698 273.306 45.538 271.256 46.3577C269.207 47.1775 266.994 47.5874 264.616 47.5874C262.239 47.5874 260.026 47.1775 257.976 46.3577C255.927 45.538 254.144 44.3698 252.627 42.8532C251.111 41.3367 249.922 39.5537 249.061 37.5043C248.2 35.4139 247.77 33.098 247.77 30.5568V2.95117H253.672Z" fill="#780E1C"/>
<path d="M232.687 2.95117H238.589V46.4807H232.687V2.95117Z" fill="#780E1C"/>
<path d="M196.331 2.95117H224.428V8.48458H202.233V21.4574H222.891V26.9908H202.233V40.9473H225.535V46.4807H196.331V2.95117Z" fill="#780E1C"/>
<path d="M164.688 37.3813C165.754 38.9798 167.106 40.1685 168.746 40.9473C170.427 41.6851 172.148 42.054 173.911 42.054C174.894 42.054 175.898 41.9105 176.923 41.6236C177.948 41.2957 178.87 40.8243 179.69 40.2095C180.551 39.5947 181.247 38.8364 181.78 37.9346C182.313 37.0329 182.58 35.9877 182.58 34.799C182.58 33.1185 182.047 31.8479 180.981 30.9871C179.915 30.0854 178.583 29.3476 176.985 28.7738C175.427 28.1589 173.706 27.5851 171.82 27.0523C169.976 26.4784 168.254 25.6996 166.656 24.7159C165.098 23.7322 163.786 22.4206 162.721 20.7811C161.655 19.1005 161.122 16.8462 161.122 14.018C161.122 12.7474 161.389 11.3947 161.921 9.96016C162.495 8.52557 163.377 7.21394 164.565 6.02528C165.754 4.83662 167.27 3.85291 169.115 3.07413C171 2.25436 173.255 1.84448 175.878 1.84448C178.255 1.84448 180.53 2.17239 182.702 2.8282C184.875 3.48401 186.781 4.81613 188.42 6.82455L183.625 11.1898C182.887 10.0421 181.842 9.1199 180.489 8.4231C179.137 7.7263 177.599 7.3779 175.878 7.3779C174.238 7.3779 172.865 7.60333 171.759 8.0542C170.693 8.46409 169.832 9.01743 169.176 9.71423C168.521 10.37 168.049 11.0873 167.762 11.8661C167.516 12.6449 167.393 13.3622 167.393 14.018C167.393 15.8625 167.926 17.2766 168.992 18.2603C170.058 19.244 171.369 20.0433 172.927 20.6581C174.525 21.2729 176.247 21.8263 178.091 22.3181C179.977 22.81 181.698 23.5068 183.256 24.4085C184.854 25.2693 186.187 26.4579 187.252 27.9745C188.318 29.4501 188.851 31.4995 188.851 34.1227C188.851 36.2131 188.441 38.0986 187.621 39.7791C186.842 41.4596 185.777 42.8737 184.424 44.0214C183.071 45.1691 181.473 46.0503 179.628 46.6651C177.784 47.28 175.816 47.5874 173.726 47.5874C170.939 47.5874 168.295 47.0955 165.795 46.1118C163.295 45.1281 161.307 43.6115 159.831 41.5621L164.688 37.3813Z" fill="#780E1C"/>
<path d="M145.526 29.6345H145.28C143.928 30.2903 142.329 30.6182 140.485 30.6182C138.927 30.6182 137.349 30.3518 135.751 29.819C134.152 29.2861 132.697 28.4664 131.385 27.3597C130.115 26.212 129.069 24.7774 128.25 23.0559C127.43 21.2934 127.02 19.2235 127.02 16.8462C127.02 14.4689 127.409 12.3785 128.188 10.575C129.008 8.73051 130.094 7.19345 131.447 5.9638C132.799 4.73416 134.377 3.81192 136.181 3.1971C137.984 2.54128 139.911 2.21338 141.96 2.21338C144.01 2.21338 145.936 2.54128 147.74 3.1971C149.543 3.85291 151.121 4.79564 152.474 6.02529C153.826 7.25493 154.892 8.73051 155.671 10.452C156.491 12.1735 156.9 14.1 156.9 16.2314C156.9 17.584 156.798 18.8136 156.593 19.9203C156.388 21.027 156.081 22.0927 155.671 23.1174C155.302 24.1011 154.851 25.0848 154.318 26.0685C153.785 27.0523 153.191 28.0565 152.535 29.0812L141.53 46.4807H134.582L145.526 29.6345ZM150.998 16.4158C150.998 15.1042 150.773 13.895 150.322 12.7883C149.912 11.6817 149.297 10.7389 148.477 9.96016C147.699 9.14039 146.756 8.50508 145.649 8.05421C144.543 7.60333 143.313 7.3779 141.96 7.3779C140.608 7.3779 139.378 7.60333 138.271 8.05421C137.165 8.50508 136.201 9.14039 135.382 9.96016C134.603 10.7389 133.988 11.6817 133.537 12.7883C133.127 13.895 132.922 15.1042 132.922 16.4158C132.922 17.7274 133.127 18.9366 133.537 20.0433C133.988 21.15 134.603 22.1132 135.382 22.9329C136.201 23.7117 137.165 24.3265 138.271 24.7774C139.378 25.2283 140.608 25.4537 141.96 25.4537C143.313 25.4537 144.543 25.2283 145.649 24.7774C146.756 24.3265 147.699 23.7117 148.477 22.9329C149.297 22.1132 149.912 21.15 150.322 20.0433C150.773 18.9366 150.998 17.7274 150.998 16.4158Z" fill="#780E1C"/>
<path d="M112.592 29.6345H112.346C110.994 30.2903 109.395 30.6182 107.551 30.6182C105.993 30.6182 104.415 30.3518 102.817 29.819C101.218 29.2861 99.7631 28.4664 98.4514 27.3597C97.1808 26.212 96.1356 24.7774 95.3158 23.0559C94.4961 21.2934 94.0862 19.2235 94.0862 16.8462C94.0862 14.4689 94.4756 12.3785 95.2543 10.575C96.0741 8.73051 97.1603 7.19345 98.5129 5.9638C99.8655 4.73416 101.444 3.81192 103.247 3.1971C105.051 2.54128 106.977 2.21338 109.026 2.21338C111.076 2.21338 113.002 2.54128 114.806 3.1971C116.609 3.85291 118.187 4.79564 119.54 6.02529C120.893 7.25493 121.958 8.73051 122.737 10.452C123.557 12.1735 123.967 14.1 123.967 16.2314C123.967 17.584 123.864 18.8136 123.659 19.9203C123.454 21.027 123.147 22.0927 122.737 23.1174C122.368 24.1011 121.917 25.0848 121.384 26.0685C120.852 27.0523 120.257 28.0565 119.601 29.0812L108.596 46.4807H101.649L112.592 29.6345ZM118.064 16.4158C118.064 15.1042 117.839 13.895 117.388 12.7883C116.978 11.6817 116.363 10.7389 115.544 9.96016C114.765 9.14039 113.822 8.50508 112.715 8.05421C111.609 7.60333 110.379 7.3779 109.026 7.3779C107.674 7.3779 106.444 7.60333 105.337 8.05421C104.231 8.50508 103.268 9.14039 102.448 9.96016C101.669 10.7389 101.054 11.6817 100.603 12.7883C100.193 13.895 99.9885 15.1042 99.9885 16.4158C99.9885 17.7274 100.193 18.9366 100.603 20.0433C101.054 21.15 101.669 22.1132 102.448 22.9329C103.268 23.7117 104.231 24.3265 105.337 24.7774C106.444 25.2283 107.674 25.4537 109.026 25.4537C110.379 25.4537 111.609 25.2283 112.715 24.7774C113.822 24.3265 114.765 23.7117 115.544 22.9329C116.363 22.1132 116.978 21.15 117.388 20.0433C117.839 18.9366 118.064 17.7274 118.064 16.4158Z" fill="#780E1C"/>
<path d="M75.6005 9.71423L67.6078 17.0921L64.1648 12.9728L76.2768 2.95117H81.5028V46.4807H75.6005V9.71423Z" fill="#780E1C"/>
<path d="M42.6667 9.71423L34.674 17.0921L31.231 12.9728L43.343 2.95117H48.569V46.4807H42.6667V9.71423Z" fill="#780E1C"/>
</svg>
