<?xml version="1.0" encoding="UTF-8"?>
<svg id="Layer_1" xmlns="http://www.w3.org/2000/svg" version="1.1" viewBox="0 0 400 400">
  <!-- Generator: Adobe Illustrator 30.3.0, SVG Export Plug-In . SVG Version: 2.1.3 Build 182)  -->
  <defs>
    <style>
      .st0 {
        fill: #ffd203;
      }

      .st1 {
        fill: #1a1a1a;
      }
    </style>
  </defs>
  <path class="st1" d="M244.99,126.38c-1.36,0-2.72-.51-3.76-1.55l-40.96-40.54c-.71-.7-1.51-.8-1.96-.8-.43,0-1.25.12-1.95.83l-37.43,38.22c-2.07,2.11-5.45,2.15-7.56.08-2.11-2.07-2.15-5.45-.08-7.56l37.43-38.22c2.52-2.58,5.9-4.01,9.51-4.04,3.62-.04,7.01,1.35,9.57,3.89l40.96,40.54c2.1,2.08,2.12,5.46.04,7.56-1.05,1.06-2.42,1.59-3.8,1.59Z"/>
  <path class="st1" d="M305.44,327.21H94.56c-7.42,0-13.46-6.04-13.46-13.46v-121.55c0-3.54,1.36-6.88,3.84-9.42l20.89-21.33c2.07-2.11,5.46-2.14,7.56-.08,2.11,2.07,2.15,5.45.08,7.56l-20.89,21.33c-.51.52-.79,1.2-.79,1.93v121.55c0,1.52,1.24,2.76,2.76,2.76h210.88c1.52,0,2.76-1.24,2.76-2.76v-121.47c0-.73-.3-1.45-.82-1.96l-21.29-21.08c-2.1-2.08-2.12-5.46-.04-7.56,2.08-2.1,5.46-2.12,7.56-.04l21.29,21.08c2.54,2.51,3.99,6,3.99,9.56v121.47c0,7.42-6.04,13.46-13.46,13.46Z"/>
  <path class="st1" d="M310.57,324.09c-1.18,0-2.37-.39-3.36-1.19l-106.33-85.9c-1.45-1.17-3.54-1.16-4.97.02l-101.91,83.79c-2.28,1.88-5.65,1.55-7.53-.74-1.88-2.28-1.55-5.65.74-7.53l101.91-83.79c5.34-4.39,13.11-4.42,18.49-.08l106.33,85.9c2.3,1.86,2.66,5.22.8,7.52-1.06,1.31-2.6,1.99-4.16,1.99Z"/>
  <path class="st0" d="M287.1,208.91h-.02c-2.95-.01-5.34-2.42-5.33-5.37l.31-74.31c0-.83-.4-1.42-.74-1.76-.56-.56-1.32-.87-2.14-.87H120.7c-1.59,0-2.89,1.17-2.89,2.62v72.12c0,2.95-2.39,5.35-5.35,5.35s-5.35-2.39-5.35-5.35v-72.12c0-7.34,6.1-13.32,13.59-13.32h158.48c3.69,0,7.15,1.43,9.73,4.02,2.51,2.52,3.88,5.84,3.86,9.36l-.31,74.31c-.01,2.95-2.41,5.33-5.35,5.33Z"/>
  <path class="st1" d="M198.88,145.54c-.08,0-.17,0-.26,0-7.35.14-13.22,6.23-13.08,13.58.07,3.56,1.52,6.88,4.08,9.35,2.57,2.47,5.96,3.79,9.5,3.73,7.35-.14,13.22-6.23,13.08-13.58-.14-7.27-6.09-13.08-13.33-13.08Z"/>
  <path class="st1" d="M216.42,180.83c-4.48-2.82-10.44-4.64-17.02-4.84-.41-.01-.82-.02-1.22-.02-6.96,0-13.26,1.85-17.82,4.86-4.39,2.91-7.15,6.9-7.29,11.37-.14,4.38,2.31,8.63,6.87,11.98,4.83,3.54,11.36,5.6,18.41,5.82,7.03.22,13.7-1.44,18.73-4.68,4.76-3.06,7.46-7.15,7.6-11.53.16-5.04-3.06-9.68-8.27-12.96Z"/>
  <path class="st1" d="M167.63,248.8c-1.02,0-2.06-.29-2.97-.9l-79.08-52.91c-2.46-1.64-3.11-4.96-1.47-7.42,1.64-2.46,4.96-3.11,7.42-1.47l79.08,52.91c2.46,1.64,3.11,4.96,1.47,7.42-1.03,1.54-2.73,2.38-4.45,2.38Z"/>
  <path class="st1" d="M227.9,255.89c-1.66,0-3.3-.77-4.35-2.23-1.73-2.4-1.18-5.74,1.22-7.47l83.79-60.29c2.4-1.73,5.74-1.18,7.47,1.22,1.73,2.4,1.18,5.74-1.22,7.47l-83.79,60.29c-.94.68-2.04,1.01-3.12,1.01Z"/>
</svg>