<?xml version="1.0" encoding="UTF-8"?>
<svg id="Layer_1" xmlns="http://www.w3.org/2000/svg" version="1.1" viewBox="0 0 400 400">
  <!-- Generator: Adobe Illustrator 30.3.0, SVG Export Plug-In . SVG Version: 2.1.3 Build 182)  -->
  <defs>
    <style>
      .st0 {
        fill: #ffd203;
      }

      .st1 {
        fill: #1a1a1a;
      }
    </style>
  </defs>
  <path class="st1" d="M190.43,201.31c-.01-.12-.02-.25-.02-.38l.38-53.74c.01-2.04,1.68-3.68,3.72-3.67,2.04.01,3.68,1.68,3.67,3.72l-.38,53.74c-.01,2.04-1.68,3.68-3.72,3.67-1.91-.01-3.48-1.48-3.65-3.34Z"/>
  <path class="st1" d="M264.41,224.43c-.12.01-.24.02-.36.02l-51.61.15c-1.96,0-3.57-1.64-3.59-3.68-.02-2.04,1.55-3.69,3.51-3.7l51.61-.15c1.96,0,3.57,1.64,3.59,3.68.02,1.91-1.36,3.49-3.14,3.68Z"/>
  <g>
    <path class="st1" d="M194.16,115.59c-.08,0-.17,0-.25,0-5.64-.12-9.66-4.22-9.56-9.75.09-5.3,4.12-9.23,9.58-9.33,2.87-.06,5.45.91,7.29,2.71,1.78,1.74,2.76,4.17,2.76,6.83h0s0,0,0,0c0,2.66-.98,5.08-2.77,6.83-1.79,1.75-4.28,2.71-7.03,2.71ZM194.15,100.61c-.05,0-.1,0-.15,0-2.72.05-5.49,1.71-5.55,5.3-.07,3.77,2.74,5.52,5.55,5.58,1.77.04,3.27-.49,4.33-1.54.99-.97,1.54-2.36,1.54-3.9h0c0-1.55-.54-2.94-1.53-3.91-1.03-1.01-2.47-1.54-4.19-1.54Z"/>
    <path class="st1" d="M194.16,116.12h-.26c-5.94-.13-10.18-4.46-10.08-10.29.1-5.6,4.34-9.74,10.1-9.85,3-.05,5.72.96,7.67,2.86,1.88,1.84,2.91,4.4,2.91,7.21,0,2.8-1.04,5.36-2.93,7.21-1.88,1.84-4.51,2.86-7.4,2.86ZM194.17,97.04c-.08,0-.16,0-.24,0-5.16.09-8.97,3.8-9.06,8.81-.09,5.23,3.71,9.1,9.05,9.22h.24c2.61,0,4.98-.91,6.66-2.56,1.68-1.65,2.61-3.94,2.61-6.45,0-2.52-.92-4.81-2.6-6.45-1.69-1.66-4.05-2.56-6.67-2.56ZM194.19,112.02c-.07,0-.14,0-.2,0-3.07-.07-6.14-1.98-6.07-6.12.07-3.94,3.1-5.76,6.07-5.82h.16c1.86,0,3.43.58,4.56,1.69,1.09,1.07,1.69,2.59,1.69,4.28,0,1.69-.6,3.21-1.7,4.28-1.13,1.11-2.69,1.69-4.51,1.69ZM194.15,101.14h-.14c-2.47.05-4.98,1.54-5.04,4.78-.06,3.64,2.67,5,5.03,5.05,1.62.05,2.99-.44,3.95-1.39.89-.87,1.38-2.12,1.38-3.52,0-1.41-.49-2.66-1.37-3.53-.92-.91-2.24-1.39-3.82-1.39Z"/>
  </g>
  <g>
    <g>
      <path class="st1" d="M213.67,135.1c-.84,0-1.52-.68-1.52-1.52,0-5.64-4.58-10.22-10.22-10.22h-15.94c-5.64,0-10.22,4.59-10.22,10.22,0,.84-.68,1.52-1.52,1.52s-1.52-.68-1.52-1.52c0-7.31,5.95-13.26,13.26-13.26h15.94c7.31,0,13.26,5.95,13.26,13.26,0,.84-.68,1.52-1.52,1.52Z"/>
      <path class="st1" d="M213.67,136.16c-1.42,0-2.58-1.16-2.58-2.58,0-5.05-4.11-9.17-9.16-9.17h-15.94c-5.05,0-9.16,4.11-9.16,9.17,0,1.42-1.16,2.58-2.58,2.58s-2.58-1.16-2.58-2.58c0-7.9,6.42-14.32,14.32-14.32h15.94c7.9,0,14.32,6.42,14.32,14.32,0,1.42-1.16,2.58-2.58,2.58ZM185.99,122.3h15.94c6.22,0,11.28,5.06,11.28,11.28,0,.26.21.47.47.47s.47-.21.47-.47c0-6.73-5.48-12.21-12.21-12.21h-15.94c-6.73,0-12.21,5.48-12.21,12.21,0,.26.21.47.47.47s.47-.21.47-.47c0-6.22,5.06-11.28,11.28-11.28Z"/>
    </g>
    <g>
      <path class="st1" d="M213.67,135.56c-1.09,0-1.98-.89-1.98-1.98,0-5.38-4.38-9.77-9.77-9.77h-15.94c-5.38,0-9.77,4.38-9.77,9.77,0,1.09-.89,1.98-1.98,1.98s-1.98-.89-1.98-1.98c0-7.57,6.15-13.72,13.72-13.72h15.94c7.56,0,13.72,6.15,13.72,13.72,0,1.09-.89,1.98-1.98,1.98ZM185.99,122.9h15.94c5.89,0,10.68,4.79,10.68,10.68,0,.59.48,1.07,1.07,1.07s1.07-.48,1.07-1.07c0-7.06-5.75-12.81-12.81-12.81h-15.94c-7.06,0-12.81,5.75-12.81,12.81,0,.59.48,1.07,1.07,1.07s1.07-.48,1.07-1.07c0-5.89,4.79-10.68,10.68-10.68Z"/>
      <path class="st1" d="M213.67,136.61c-1.67,0-3.03-1.36-3.03-3.03,0-4.8-3.91-8.71-8.71-8.71h-15.94c-4.8,0-8.71,3.91-8.71,8.71,0,1.67-1.36,3.03-3.03,3.03s-3.03-1.36-3.03-3.03c0-8.15,6.63-14.78,14.78-14.78h15.94c8.15,0,14.78,6.63,14.78,14.78,0,1.67-1.36,3.03-3.03,3.03ZM185.99,121.85h15.94c6.47,0,11.73,5.26,11.73,11.73.02-6.48-5.25-11.75-11.73-11.75h-15.94c-6.48,0-11.75,5.27-11.75,11.75.02-6.47,5.28-11.73,11.75-11.73Z"/>
    </g>
  </g>
  <path class="st1" d="M193.73,147.67c-18.95,0-34.37-15.42-34.37-34.37s15.42-34.37,34.37-34.37,34.37,15.42,34.37,34.37-15.42,34.37-34.37,34.37ZM193.73,86.32c-14.88,0-26.98,12.1-26.98,26.98s12.1,26.98,26.98,26.98,26.98-12.1,26.98-26.98-12.1-26.98-26.98-26.98Z"/>
  <g>
    <path class="st1" d="M296.9,224.1c-.08,0-.17,0-.25,0-5.64-.12-9.66-4.22-9.56-9.75.09-5.3,4.12-9.23,9.58-9.33,2.87-.06,5.45.91,7.29,2.71,1.78,1.74,2.76,4.17,2.76,6.83h0s0,0,0,0c0,2.66-.98,5.08-2.77,6.83-1.79,1.75-4.28,2.71-7.03,2.71ZM296.89,209.12c-.05,0-.1,0-.15,0-2.72.05-5.49,1.71-5.55,5.3-.07,3.77,2.74,5.52,5.55,5.58,1.77.04,3.27-.49,4.33-1.54.99-.97,1.54-2.36,1.54-3.9h0c0-1.55-.54-2.94-1.53-3.91-1.03-1.01-2.47-1.54-4.19-1.54Z"/>
    <path class="st1" d="M296.9,224.63h-.26c-5.94-.13-10.18-4.46-10.08-10.29.1-5.6,4.34-9.74,10.1-9.85,3-.05,5.72.96,7.67,2.86,1.88,1.84,2.91,4.4,2.91,7.21,0,2.8-1.04,5.36-2.93,7.21-1.88,1.84-4.51,2.86-7.4,2.86ZM296.91,205.54c-.08,0-.16,0-.24,0-5.16.09-8.97,3.8-9.06,8.81-.09,5.23,3.71,9.1,9.05,9.22h.24c2.61,0,4.98-.91,6.66-2.56,1.68-1.65,2.61-3.94,2.61-6.45,0-2.52-.92-4.81-2.6-6.45-1.69-1.66-4.05-2.56-6.67-2.56ZM296.93,220.53c-.07,0-.14,0-.2,0-3.07-.07-6.14-1.98-6.07-6.12.07-3.94,3.1-5.76,6.07-5.82h.16c1.86,0,3.43.58,4.56,1.69,1.09,1.07,1.69,2.59,1.69,4.28,0,1.69-.6,3.21-1.7,4.28-1.13,1.11-2.69,1.69-4.51,1.69ZM296.89,209.64h-.14c-2.47.05-4.98,1.54-5.04,4.78-.06,3.64,2.67,5,5.03,5.05,1.62.05,2.99-.44,3.95-1.39.89-.87,1.38-2.12,1.38-3.52,0-1.41-.49-2.66-1.37-3.53-.92-.91-2.24-1.39-3.82-1.39Z"/>
  </g>
  <g>
    <g>
      <path class="st1" d="M316.41,243.61c-.84,0-1.52-.68-1.52-1.52,0-5.64-4.58-10.22-10.22-10.22h-15.94c-5.64,0-10.22,4.59-10.22,10.22,0,.84-.68,1.52-1.52,1.52s-1.52-.68-1.52-1.52c0-7.31,5.95-13.26,13.26-13.26h15.94c7.31,0,13.26,5.95,13.26,13.26,0,.84-.68,1.52-1.52,1.52Z"/>
      <path class="st1" d="M316.41,244.66c-1.42,0-2.58-1.16-2.58-2.58,0-5.05-4.11-9.17-9.16-9.17h-15.94c-5.05,0-9.16,4.11-9.16,9.17,0,1.42-1.16,2.58-2.58,2.58s-2.58-1.16-2.58-2.58c0-7.9,6.42-14.32,14.32-14.32h15.94c7.9,0,14.32,6.42,14.32,14.32,0,1.42-1.16,2.58-2.58,2.58ZM288.73,230.81h15.94c6.22,0,11.28,5.06,11.28,11.28,0,.26.21.47.47.47s.47-.21.47-.47c0-6.73-5.48-12.21-12.21-12.21h-15.94c-6.73,0-12.21,5.48-12.21,12.21,0,.26.21.47.47.47s.47-.21.47-.47c0-6.22,5.06-11.28,11.28-11.28Z"/>
    </g>
    <g>
      <path class="st1" d="M316.41,244.06c-1.09,0-1.98-.89-1.98-1.98,0-5.38-4.38-9.77-9.77-9.77h-15.94c-5.38,0-9.77,4.38-9.77,9.77,0,1.09-.89,1.98-1.98,1.98s-1.98-.89-1.98-1.98c0-7.57,6.15-13.72,13.72-13.72h15.94c7.56,0,13.72,6.15,13.72,13.72,0,1.09-.89,1.98-1.98,1.98ZM288.73,231.41h15.94c5.89,0,10.68,4.79,10.68,10.68,0,.59.48,1.07,1.07,1.07s1.07-.48,1.07-1.07c0-7.06-5.75-12.81-12.81-12.81h-15.94c-7.06,0-12.81,5.75-12.81,12.81,0,.59.48,1.07,1.07,1.07s1.07-.48,1.07-1.07c0-5.89,4.79-10.68,10.68-10.68Z"/>
      <path class="st1" d="M316.41,245.12c-1.67,0-3.03-1.36-3.03-3.03,0-4.8-3.91-8.71-8.71-8.71h-15.94c-4.8,0-8.71,3.91-8.71,8.71,0,1.67-1.36,3.03-3.03,3.03s-3.03-1.36-3.03-3.03c0-8.15,6.63-14.78,14.78-14.78h15.94c8.15,0,14.78,6.63,14.78,14.78,0,1.67-1.36,3.03-3.03,3.03ZM288.73,230.35h15.94c6.47,0,11.73,5.26,11.73,11.73.02-6.48-5.25-11.75-11.73-11.75h-15.94c-6.48,0-11.75,5.27-11.75,11.75.02-6.47,5.28-11.73,11.75-11.73Z"/>
    </g>
  </g>
  <path class="st1" d="M296.47,256.18c-18.95,0-34.37-15.42-34.37-34.37s15.42-34.37,34.37-34.37,34.37,15.42,34.37,34.37-15.42,34.37-34.37,34.37ZM296.47,194.83c-14.88,0-26.98,12.1-26.98,26.98s12.1,26.98,26.98,26.98,26.98-12.1,26.98-26.98-12.1-26.98-26.98-26.98Z"/>
  <path class="st1" d="M123.08,224.43c.12.01.24.02.36.02l51.61.15c1.96,0,3.57-1.64,3.59-3.68.02-2.04-1.55-3.69-3.51-3.7l-51.61-.15c-1.96,0-3.57,1.64-3.59,3.68-.02,1.91,1.36,3.49,3.14,3.68Z"/>
  <g>
    <path class="st1" d="M83.55,221.39c-1.79-1.75-2.77-4.18-2.77-6.83,0,0,0,0,0,0h0c0-2.66.98-5.08,2.76-6.83,1.83-1.8,4.42-2.77,7.29-2.71,5.46.1,9.49,4.02,9.58,9.33.1,5.53-3.93,9.63-9.56,9.75-.08,0-.17,0-.25,0-2.75,0-5.24-.96-7.03-2.71ZM86.41,210.66c-.99.97-1.53,2.35-1.53,3.91h0c0,1.54.55,2.93,1.54,3.9,1.06,1.04,2.57,1.58,4.33,1.54,2.81-.06,5.62-1.81,5.55-5.58-.06-3.59-2.83-5.25-5.55-5.3-.05,0-.1,0-.15,0-1.71,0-3.16.53-4.19,1.54Z"/>
    <path class="st1" d="M83.18,221.77c-1.89-1.85-2.93-4.41-2.93-7.21,0-2.8,1.04-5.36,2.91-7.21,1.94-1.91,4.67-2.91,7.67-2.86,5.75.11,10,4.25,10.1,9.85.1,5.84-4.14,10.16-10.08,10.29h-.26c-2.89,0-5.52-1.01-7.4-2.86ZM83.91,208.11c-1.67,1.64-2.6,3.94-2.6,6.45,0,2.51.93,4.8,2.61,6.45,1.68,1.65,4.05,2.56,6.66,2.56h.24c5.33-.12,9.14-3.99,9.05-9.22-.09-5.01-3.9-8.71-9.06-8.81-.08,0-.16,0-.24,0-2.62,0-4.98.91-6.67,2.56ZM86.05,218.84c-1.1-1.07-1.7-2.59-1.7-4.28,0-1.69.6-3.21,1.69-4.28,1.13-1.11,2.7-1.69,4.56-1.69h.16c2.97.06,6,1.88,6.07,5.82.07,4.14-3,6.05-6.07,6.12-.07,0-.14,0-.2,0-1.82,0-3.38-.58-4.51-1.69ZM86.78,211.03c-.88.87-1.37,2.12-1.37,3.53,0,1.4.49,2.65,1.38,3.52.96.94,2.33,1.43,3.95,1.39,2.36-.05,5.1-1.4,5.03-5.05-.06-3.24-2.57-4.74-5.04-4.78h-.14c-1.57,0-2.89.48-3.82,1.39Z"/>
  </g>
  <g>
    <g>
      <path class="st1" d="M71.07,243.61c.84,0,1.52-.68,1.52-1.52,0-5.64,4.58-10.22,10.22-10.22h15.94c5.64,0,10.22,4.59,10.22,10.22,0,.84.68,1.52,1.52,1.52s1.52-.68,1.52-1.52c0-7.31-5.95-13.26-13.26-13.26h-15.94c-7.31,0-13.26,5.95-13.26,13.26,0,.84.68,1.52,1.52,1.52Z"/>
      <path class="st1" d="M68.5,242.09c0-7.9,6.42-14.32,14.32-14.32h15.94c7.9,0,14.32,6.42,14.32,14.32,0,1.42-1.16,2.58-2.58,2.58s-2.58-1.16-2.58-2.58c0-5.05-4.11-9.17-9.16-9.17h-15.94c-5.05,0-9.16,4.11-9.16,9.17,0,1.42-1.16,2.58-2.58,2.58s-2.58-1.16-2.58-2.58ZM110.03,242.09c0,.26.21.47.47.47s.47-.21.47-.47c0-6.73-5.48-12.21-12.21-12.21h-15.94c-6.73,0-12.21,5.48-12.21,12.21,0,.26.21.47.47.47s.47-.21.47-.47c0-6.22,5.06-11.28,11.28-11.28h15.94c6.22,0,11.28,5.06,11.28,11.28Z"/>
    </g>
    <g>
      <path class="st1" d="M69.1,242.09c0-7.57,6.15-13.72,13.72-13.72h15.94c7.56,0,13.72,6.15,13.72,13.72,0,1.09-.89,1.98-1.98,1.98s-1.98-.89-1.98-1.98c0-5.38-4.38-9.77-9.77-9.77h-15.94c-5.39,0-9.77,4.38-9.77,9.77,0,1.09-.89,1.98-1.98,1.98s-1.98-.89-1.98-1.98ZM109.43,242.09c0,.59.48,1.07,1.07,1.07s1.07-.48,1.07-1.07c0-7.06-5.75-12.81-12.81-12.81h-15.94c-7.06,0-12.81,5.75-12.81,12.81,0,.59.48,1.07,1.07,1.07s1.07-.48,1.07-1.07c0-5.89,4.79-10.68,10.68-10.68h15.94c5.89,0,10.68,4.79,10.68,10.68Z"/>
      <path class="st1" d="M68.04,242.09c0-8.15,6.63-14.78,14.78-14.78h15.94c8.15,0,14.78,6.63,14.78,14.78,0,1.67-1.36,3.03-3.03,3.03s-3.03-1.36-3.03-3.03c0-4.8-3.91-8.71-8.71-8.71h-15.94c-4.8,0-8.71,3.91-8.71,8.71,0,1.67-1.36,3.03-3.03,3.03s-3.03-1.36-3.03-3.03ZM110.51,242.09c0-6.48-5.27-11.75-11.75-11.75h-15.94c-6.48,0-11.75,5.27-11.73,11.75,0-6.47,5.26-11.73,11.73-11.73h15.94c6.47,0,11.73,5.26,11.75,11.73Z"/>
    </g>
  </g>
  <path class="st1" d="M56.64,221.81c0-18.95,15.42-34.37,34.37-34.37,18.95,0,34.37,15.42,34.37,34.37,0,18.95-15.42,34.37-34.37,34.37-18.95,0-34.37-15.42-34.37-34.37ZM64.04,221.81c0,14.88,12.1,26.98,26.98,26.98,14.88,0,26.98-12.1,26.98-26.98,0-14.88-12.1-26.98-26.98-26.98-14.88,0-26.98,12.1-26.98,26.98Z"/>
  <g>
    <circle class="st0" cx="194.64" cy="221.86" r="43.45"/>
    <path class="st1" d="M194.76,198.07c-.06,0-.13,0-.19,0-5.47.1-9.83,4.64-9.73,10.1.05,2.65,1.13,5.12,3.04,6.96,1.91,1.84,4.43,2.82,7.07,2.77,5.47-.1,9.83-4.64,9.73-10.1-.1-5.4-4.53-9.73-9.91-9.73Z"/>
    <path class="st1" d="M207.8,224.32c-3.33-2.1-7.76-3.45-12.66-3.6-.3,0-.61-.01-.91-.01-5.18,0-9.87,1.37-13.25,3.61-3.27,2.16-5.32,5.13-5.42,8.45-.1,3.25,1.71,6.42,5.11,8.91,3.59,2.63,8.45,4.17,13.69,4.33,5.23.16,10.19-1.07,13.93-3.48,3.54-2.28,5.55-5.32,5.65-8.58.12-3.75-2.27-7.2-6.15-9.64Z"/>
  </g>
</svg>