<?xml version="1.0" encoding="UTF-8"?>
<svg id="Layer_1" xmlns="http://www.w3.org/2000/svg" version="1.1" viewBox="0 0 400 400">
  <!-- Generator: Adobe Illustrator 30.3.0, SVG Export Plug-In . SVG Version: 2.1.3 Build 182)  -->
  <defs>
    <style>
      .st0 {
        fill: #ffd203;
      }

      .st1 {
        fill: #1a1a1a;
      }
    </style>
  </defs>
  <path class="st1" d="M181.71,206.43c-.14.02-.29.02-.44.02l-61.9.44c-2.35.02-4.27-1.88-4.29-4.23-.02-2.35,1.88-4.26,4.23-4.29l61.9-.44c2.35-.02,4.27,1.88,4.29,4.23.02,2.2-1.65,4.03-3.79,4.26Z"/>
  <path class="st1" d="M292.5,206.71c-.14.02-.28.02-.42.02l-59.44.17c-2.26,0-4.11-1.89-4.14-4.24-.03-2.35,1.79-4.25,4.04-4.27l59.44-.17c2.26,0,4.11,1.89,4.14,4.24.02,2.2-1.56,4.02-3.62,4.24Z"/>
  <g>
    <circle class="st0" cx="204.51" cy="201.56" r="50.04"/>
    <path class="st1" d="M204.64,174.17c-.07,0-.15,0-.22,0-6.3.12-11.32,5.34-11.2,11.64.06,3.05,1.3,5.9,3.5,8.01,2.2,2.12,5.1,3.25,8.14,3.19,6.3-.12,11.32-5.34,11.2-11.64-.12-6.22-5.22-11.21-11.42-11.21Z"/>
    <path class="st1" d="M219.67,204.4c-3.84-2.42-8.94-3.97-14.58-4.15-.35-.01-.7-.02-1.05-.02-5.96,0-11.36,1.58-15.26,4.16-3.76,2.49-6.13,5.91-6.25,9.74-.12,3.75,1.97,7.39,5.89,10.26,4.13,3.03,9.73,4.8,15.77,4.99,6.02.19,11.73-1.24,16.05-4.01,4.08-2.62,6.39-6.13,6.51-9.88.13-4.32-2.62-8.29-7.08-11.1Z"/>
  </g>
  <g>
    <path class="st1" d="M79.99,206.33c-.1,0-.2,0-.29,0-6.49-.14-11.12-4.86-11.01-11.23.11-6.11,4.74-10.63,11.03-10.74,3.3-.07,6.28,1.05,8.39,3.12,2.05,2.01,3.17,4.8,3.17,7.87h0s0,0,0,0c0,3.06-1.13,5.85-3.19,7.87-2.06,2.02-4.93,3.12-8.1,3.12ZM79.97,189.08c-.06,0-.12,0-.18,0-3.13.06-6.32,1.97-6.4,6.1-.08,4.35,3.16,6.36,6.39,6.43,2.04.05,3.76-.57,4.99-1.77,1.14-1.12,1.77-2.72,1.77-4.49h0c0-1.79-.63-3.38-1.76-4.5-1.18-1.16-2.85-1.77-4.82-1.77Z"/>
    <path class="st1" d="M79.99,206.94h-.3c-6.85-.15-11.73-5.13-11.61-11.85.11-6.45,5-11.22,11.63-11.34,3.46-.06,6.59,1.1,8.83,3.3,2.16,2.12,3.36,5.07,3.36,8.3,0,3.22-1.2,6.17-3.37,8.3-2.17,2.12-5.2,3.29-8.53,3.29ZM79.99,184.96c-.09,0-.18,0-.27,0-5.95.11-10.33,4.37-10.43,10.14-.11,6.02,4.28,10.48,10.42,10.61h.28c3.01,0,5.74-1.04,7.67-2.94,1.94-1.9,3.01-4.54,3.01-7.43,0-2.9-1.06-5.54-2.99-7.43-1.94-1.91-4.66-2.95-7.68-2.95ZM80.02,202.22c-.08,0-.16,0-.23,0-3.54-.08-7.07-2.28-6.99-7.05.08-4.54,3.57-6.64,6.99-6.7h.19c2.14,0,3.95.67,5.25,1.95,1.25,1.23,1.94,2.98,1.94,4.93,0,1.94-.69,3.69-1.96,4.93-1.3,1.28-3.1,1.95-5.2,1.95ZM79.97,189.68h-.16c-2.84.05-5.74,1.78-5.8,5.51-.07,4.2,3.08,5.75,5.8,5.81,1.87.05,3.44-.51,4.55-1.6,1.03-1,1.59-2.45,1.59-4.06,0-1.62-.56-3.06-1.58-4.06-1.06-1.05-2.59-1.6-4.4-1.6Z"/>
  </g>
  <g>
    <g>
      <path class="st1" d="M102.46,228.8c-.97,0-1.75-.78-1.75-1.75,0-6.49-5.28-11.77-11.77-11.77h-18.36c-6.49,0-11.77,5.28-11.77,11.77,0,.97-.78,1.75-1.75,1.75s-1.75-.78-1.75-1.75c0-8.42,6.85-15.28,15.28-15.28h18.36c8.42,0,15.28,6.85,15.28,15.28,0,.97-.78,1.75-1.75,1.75Z"/>
      <path class="st1" d="M102.46,230.02c-1.64,0-2.97-1.33-2.97-2.97,0-5.82-4.74-10.56-10.56-10.56h-18.36c-5.82,0-10.55,4.73-10.55,10.56,0,1.64-1.33,2.97-2.97,2.97s-2.97-1.33-2.97-2.97c0-9.09,7.4-16.49,16.49-16.49h18.36c9.09,0,16.49,7.4,16.49,16.49,0,1.64-1.33,2.97-2.97,2.97ZM70.58,214.06h18.36c7.16,0,12.99,5.83,12.99,12.99,0,.3.24.54.54.54s.54-.24.54-.54c0-7.75-6.31-14.06-14.06-14.06h-18.36c-7.75,0-14.06,6.31-14.06,14.06,0,.3.24.54.54.54s.54-.24.54-.54c0-7.16,5.83-12.99,12.99-12.99Z"/>
    </g>
    <g>
      <path class="st1" d="M102.46,229.33c-1.26,0-2.28-1.02-2.28-2.28,0-6.2-5.05-11.25-11.25-11.25h-18.36c-6.2,0-11.25,5.05-11.25,11.25,0,1.26-1.02,2.28-2.28,2.28s-2.28-1.02-2.28-2.28c0-8.71,7.09-15.8,15.8-15.8h18.36c8.71,0,15.8,7.09,15.8,15.8,0,1.26-1.02,2.28-2.28,2.28ZM70.58,214.75h18.36c6.78,0,12.3,5.52,12.3,12.3,0,.68.55,1.23,1.23,1.23s1.23-.55,1.23-1.23c0-8.13-6.62-14.75-14.75-14.75h-18.36c-8.13,0-14.75,6.62-14.75,14.75,0,.68.55,1.23,1.23,1.23s1.23-.55,1.23-1.23c0-6.78,5.52-12.3,12.3-12.3Z"/>
      <path class="st1" d="M102.46,230.54c-1.93,0-3.49-1.57-3.49-3.49,0-5.53-4.5-10.03-10.03-10.03h-18.36c-5.53,0-10.03,4.5-10.03,10.03,0,1.93-1.57,3.49-3.49,3.49s-3.49-1.57-3.49-3.49c0-9.38,7.63-17.02,17.02-17.02h18.36c9.38,0,17.02,7.63,17.02,17.02,0,1.93-1.57,3.49-3.49,3.49ZM70.58,213.54h18.36c7.45,0,13.51,6.06,13.51,13.51.02-7.46-6.05-13.54-13.51-13.54h-18.36c-7.46,0-13.54,6.07-13.54,13.54.02-7.45,6.08-13.51,13.54-13.51Z"/>
    </g>
  </g>
  <path class="st1" d="M79.49,243.28c-21.83,0-39.59-17.76-39.59-39.59s17.76-39.59,39.59-39.59,39.59,17.76,39.59,39.59-17.76,39.59-39.59,39.59ZM79.49,172.62c-17.13,0-31.07,13.94-31.07,31.07s13.94,31.07,31.07,31.07,31.07-13.94,31.07-31.07-13.94-31.07-31.07-31.07Z"/>
  <g>
    <path class="st1" d="M329.93,206.33c-.1,0-.2,0-.29,0-6.49-.14-11.12-4.86-11.01-11.23.11-6.11,4.74-10.63,11.03-10.74,3.3-.07,6.28,1.05,8.39,3.12,2.05,2.01,3.17,4.8,3.17,7.87h0s0,0,0,0c0,3.06-1.13,5.85-3.19,7.87-2.06,2.02-4.93,3.12-8.1,3.12ZM329.91,189.08c-.06,0-.12,0-.18,0-3.13.06-6.32,1.97-6.4,6.1-.08,4.35,3.16,6.36,6.39,6.43,2.04.05,3.76-.57,4.99-1.77,1.14-1.12,1.77-2.72,1.77-4.49h0c0-1.79-.63-3.38-1.76-4.5-1.18-1.16-2.85-1.77-4.82-1.77Z"/>
    <path class="st1" d="M329.93,206.94h-.3c-6.85-.15-11.73-5.13-11.61-11.85.11-6.45,5-11.22,11.63-11.34,3.46-.06,6.59,1.1,8.83,3.3,2.16,2.12,3.36,5.07,3.36,8.3,0,3.22-1.2,6.17-3.37,8.3-2.17,2.12-5.2,3.29-8.53,3.29ZM329.93,184.96c-.09,0-.18,0-.27,0-5.95.11-10.33,4.37-10.43,10.14-.11,6.02,4.28,10.48,10.42,10.61h.28c3.01,0,5.74-1.04,7.67-2.94,1.94-1.9,3.01-4.54,3.01-7.43,0-2.9-1.06-5.54-2.99-7.43-1.94-1.91-4.66-2.95-7.68-2.95ZM329.95,202.22c-.08,0-.16,0-.23,0-3.54-.08-7.07-2.28-6.99-7.05.08-4.54,3.57-6.64,6.99-6.7h.19c2.14,0,3.95.67,5.25,1.95,1.25,1.23,1.94,2.98,1.94,4.93,0,1.94-.69,3.69-1.96,4.93-1.3,1.28-3.1,1.95-5.2,1.95ZM329.91,189.68h-.16c-2.84.05-5.74,1.78-5.8,5.51-.07,4.2,3.08,5.75,5.8,5.81,1.87.05,3.44-.51,4.55-1.6,1.03-1,1.59-2.45,1.59-4.06,0-1.62-.56-3.06-1.58-4.06-1.06-1.05-2.59-1.6-4.4-1.6Z"/>
  </g>
  <g>
    <g>
      <path class="st1" d="M352.4,228.8c-.97,0-1.75-.78-1.75-1.75,0-6.49-5.28-11.77-11.77-11.77h-18.36c-6.49,0-11.77,5.28-11.77,11.77,0,.97-.78,1.75-1.75,1.75s-1.75-.78-1.75-1.75c0-8.42,6.85-15.28,15.28-15.28h18.36c8.42,0,15.28,6.85,15.28,15.28,0,.97-.78,1.75-1.75,1.75Z"/>
      <path class="st1" d="M352.4,230.02c-1.64,0-2.97-1.33-2.97-2.97,0-5.82-4.74-10.56-10.56-10.56h-18.36c-5.82,0-10.55,4.73-10.55,10.56,0,1.64-1.33,2.97-2.97,2.97s-2.97-1.33-2.97-2.97c0-9.09,7.4-16.49,16.49-16.49h18.36c9.09,0,16.49,7.4,16.49,16.49,0,1.64-1.33,2.97-2.97,2.97ZM320.51,214.06h18.36c7.16,0,12.99,5.83,12.99,12.99,0,.3.24.54.54.54s.54-.24.54-.54c0-7.75-6.31-14.06-14.06-14.06h-18.36c-7.75,0-14.06,6.31-14.06,14.06,0,.3.24.54.54.54s.54-.24.54-.54c0-7.16,5.83-12.99,12.99-12.99Z"/>
    </g>
    <g>
      <path class="st1" d="M352.4,229.33c-1.26,0-2.28-1.02-2.28-2.28,0-6.2-5.05-11.25-11.25-11.25h-18.36c-6.2,0-11.25,5.05-11.25,11.25,0,1.26-1.02,2.28-2.28,2.28s-2.28-1.02-2.28-2.28c0-8.71,7.09-15.8,15.8-15.8h18.36c8.71,0,15.8,7.09,15.8,15.8,0,1.26-1.02,2.28-2.28,2.28ZM320.51,214.75h18.36c6.78,0,12.3,5.52,12.3,12.3,0,.68.55,1.23,1.23,1.23s1.23-.55,1.23-1.23c0-8.13-6.62-14.75-14.75-14.75h-18.36c-8.13,0-14.75,6.62-14.75,14.75,0,.68.55,1.23,1.23,1.23s1.23-.55,1.23-1.23c0-6.78,5.52-12.3,12.3-12.3Z"/>
      <path class="st1" d="M352.4,230.54c-1.93,0-3.49-1.57-3.49-3.49,0-5.53-4.5-10.03-10.03-10.03h-18.36c-5.53,0-10.03,4.5-10.03,10.03,0,1.93-1.57,3.49-3.49,3.49s-3.49-1.57-3.49-3.49c0-9.38,7.63-17.02,17.02-17.02h18.36c9.38,0,17.02,7.63,17.02,17.02,0,1.93-1.57,3.49-3.49,3.49ZM320.51,213.54h18.36c7.45,0,13.51,6.06,13.51,13.51.02-7.46-6.05-13.54-13.51-13.54h-18.36c-7.46,0-13.54,6.07-13.54,13.54.02-7.45,6.08-13.51,13.54-13.51Z"/>
    </g>
  </g>
  <path class="st1" d="M329.43,243.28c-21.83,0-39.59-17.76-39.59-39.59s17.76-39.59,39.59-39.59,39.59,17.76,39.59,39.59-17.76,39.59-39.59,39.59ZM329.43,172.62c-17.13,0-31.07,13.94-31.07,31.07s13.94,31.07,31.07,31.07,31.07-13.94,31.07-31.07-13.94-31.07-31.07-31.07Z"/>
</svg>