<?xml version="1.0" encoding="UTF-8"?>
<svg id="Layer_1" xmlns="http://www.w3.org/2000/svg" version="1.1" viewBox="0 0 400 400">
  <!-- Generator: Adobe Illustrator 30.3.0, SVG Export Plug-In . SVG Version: 2.1.3 Build 182)  -->
  <defs>
    <style>
      .st0 {
        fill: #ffd203;
      }

      .st1 {
        fill: #1a1a1a;
      }
    </style>
  </defs>
  <path class="st1" d="M194.93,176.07c-.39,0-.78,0-1.17-.01-25.73-.55-44.09-19.25-43.65-44.47.43-24.57,18.4-42.04,43.72-42.51,13.22-.25,24.98,4.15,33.33,12.36,8.09,7.94,12.54,19,12.54,31.14h0c0,12.12-4.47,23.18-12.6,31.15-8.15,7.98-19.54,12.34-32.16,12.34ZM194.87,103.75c-.26,0-.52,0-.79,0-19.91.36-29.06,14.36-29.3,28.08-.25,14.38,8.71,29.1,29.29,29.53,9.23.19,17.11-2.62,22.75-8.14,5.28-5.18,8.19-12.51,8.19-20.65h0c0-8.17-2.89-15.51-8.14-20.67-5.45-5.35-13.04-8.16-21.99-8.16Z"/>
  <path class="st1" d="M290.03,257.99c-4.06,0-7.34-3.29-7.34-7.34,0-27.2-22.13-49.33-49.32-49.33h-76.92c-27.2,0-49.32,22.13-49.32,49.33,0,4.06-3.29,7.34-7.34,7.34s-7.34-3.29-7.34-7.34c0-35.3,28.72-64.01,64.01-64.01h76.92c35.29,0,64.01,28.72,64.01,64.01,0,4.06-3.29,7.34-7.34,7.34Z"/>
  <circle class="st0" cx="282.24" cy="229.84" r="50.6"/>
  <path class="st1" d="M276.72,248.33c-.1,0-.2,0-.31,0-1.59-.09-3.07-.83-4.09-2.05l-12.68-15.25c-2.02-2.43-1.68-6.03.74-8.04s6.03-1.69,8.04.74l8.74,10.51,23.3-22.59c2.27-2.2,5.88-2.14,8.08.12s2.14,5.88-.12,8.08l-27.73,26.88c-1.07,1.04-2.5,1.61-3.98,1.61Z"/>
</svg>