<?xml version="1.0" encoding="UTF-8"?>
<svg id="Layer_1" xmlns="http://www.w3.org/2000/svg" version="1.1" viewBox="0 0 400 400">
  <!-- Generator: Adobe Illustrator 30.3.0, SVG Export Plug-In . SVG Version: 2.1.3 Build 182)  -->
  <defs>
    <style>
      .st0 {
        fill: #ffd203;
      }

      .st1 {
        fill: #1a1a1a;
      }
    </style>
  </defs>
  <g>
    <path class="st1" d="M162.99,263.82s-65.87-38.95-65.89-38.93c-5.27-2.26-11.58-1.12-14.43,3.83l-11.37,19.74c-2.39,4.15-1.54,11.29,3.23,14.06l65.83,38.2c5.71,3.31,12.57,1.83,15.91-3.97l10.47-18.19c3.12-5.42,1.38-11.04-3.75-14.73ZM161.85,274.74l-10.84,18.84c-1.53,2.66-4.45,3.46-7.06,1.95l-65.97-38.16c-2.03-1.86-2.35-4.48-1.02-6.76l10.84-18.65c1.46-2.52,5.1-2.69,7.27-.89l64.44,37.26c2.14,1.24,3.68,4.09,2.35,6.41Z"/>
    <path class="st1" d="M146.59,304.58c-2.49,0-5-.69-7.31-2.03l-65.83-38.2c-5.82-3.37-6.93-11.89-4-16.96l11.37-19.74c3.23-5.61,10.43-7.59,17.11-4.72l-.05.11c1.23.56,3.87,2.11,10.6,6.09l55.74,32.95c6.2,4.47,7.91,11.34,4.35,17.52l-10.47,18.19c-1.83,3.18-4.7,5.42-8.08,6.33-1.12.3-2.28.45-3.44.45ZM91.74,225.91c-2.86,0-5.65,1.15-7.22,3.87l-11.37,19.74c-1.89,3.28-1.13,9.07,2.45,11.15l65.83,38.2c2.4,1.39,5.06,1.8,7.5,1.15,2.32-.62,4.22-2.12,5.49-4.34l10.47-18.19c2.45-4.26,1.3-8.7-3.07-11.89-21.99-13-63.36-37.46-65.66-38.8-1.38-.58-2.91-.9-4.41-.9ZM146.65,298.42c-1.28,0-2.57-.35-3.77-1.04l-66.17-38.28-.17-.16c-2.73-2.5-3.29-6.19-1.42-9.4l10.84-18.65c.94-1.62,2.52-2.7,4.45-3.04,2.06-.36,4.24.18,5.87,1.46l64.29,37.18c3.06,1.77,5.13,5.84,3.13,9.31h0s-10.84,18.84-10.84,18.84c-1.03,1.79-2.61,3.05-4.45,3.54-.58.16-1.17.23-1.77.23ZM79.28,255.66l65.75,38.03c.77.45,1.57.58,2.29.39.75-.2,1.39-.74,1.86-1.55l10.84-18.84c.7-1.21-.44-2.86-1.57-3.5l-64.59-37.35-.14-.12c-.68-.57-1.66-.83-2.56-.66-.48.08-1.12.32-1.51.98l-10.84,18.65c-.82,1.41-.65,2.85.47,3.97Z"/>
  </g>
  <g>
    <path class="st1" d="M323.61,162.55c-7.81-11.6-24.57-10.58-37.36-3.2l-43.32,24.1c-6.14-11.65-17.53-14.76-30.05-15.05h-39.63c-18.28-4.81-37.09-3.9-49.94,10.54-5.67,6.37-8.85,13.71-12.32,21.4-2.09,4.62-4.7,8.91-7.28,13.26,1.25.51,4.87,2.7,5.53,3.15,2.65-4.58,5.28-9,7.53-13.73,2.34-4.91,4.35-9.66,7.15-14.23,5.9-9.49,14.97-15.55,26.51-16.58,7.55-.53,14.48.63,21.61,2.33l42.08.1c5.63.01,11.22,1.41,15.95,4.01,6.21,3.42,10.39,11.2,7.26,16.26-1.09,1.76-3.69,3.76-6.35,3.77l-43.12.06c-1.53,0-2.99,2.26-2.8,3.43.25,1.53,1.71,2.69,3.46,2.86l41.48.04c8.58,0,15.33-6.49,14.71-15.31l45.82-25.57c7.94-4.59,19.38-6.27,26.16-.03,2.09,1.92,3.44,4.45,3.19,7.1-.24,2.65-1.93,4.73-4.51,6.22l-77.1,43.65c-6.6,3.81-13.5,6.22-21.09,6.26l-30.54.14c-5.55-.18-10.89,2.17-13.82,7.11l-8.79,14.82c1.8,1.04,3.63,2.02,5.43,3.04l8.05-13.85c1.92-3.3,5.41-4.89,9.13-4.9l29.35-.11c8.15-.03,16.28-1.77,23.42-5.89l78.7-44.47c7.56-4.36,10.76-12.99,5.52-20.76Z"/>
    <path class="st1" d="M169.44,255.37c-.48,0-.96-.12-1.4-.37-.77-.44-1.55-.87-2.33-1.3-1.04-.58-2.08-1.15-3.11-1.75-.66-.38-1.14-1.01-1.33-1.74-.19-.73-.08-1.52.3-2.17l8.79-14.82c3.29-5.55,9.4-8.73,16.35-8.5l30.43-.14c6.45-.03,12.89-1.95,19.68-5.88l77.12-43.66c1.9-1.1,2.94-2.45,3.09-4.01.14-1.55-.69-3.29-2.29-4.76-5.6-5.16-15.72-3.71-22.82.4l-44.37,24.76c-.12,4.16-1.67,8.01-4.44,10.99-3.31,3.55-7.97,5.51-13.11,5.51h-.02l-41.48-.04c-.09,0-.18,0-.27-.01-3.07-.3-5.53-2.45-5.99-5.23-.24-1.48.34-3.23,1.56-4.66,1.13-1.33,2.56-2.07,4.04-2.07l43.13-.06c1.44,0,3.24-1.28,3.94-2.42.87-1.41.69-3.09.39-4.25-.82-3.13-3.41-6.28-6.6-8.03-4.27-2.35-9.45-3.65-14.58-3.66l-42.08-.1c-.22,0-.44-.03-.65-.08-6.27-1.49-13.12-2.8-20.75-2.26-10.26.92-18.68,6.19-24.3,15.25-2.07,3.37-3.7,6.88-5.42,10.59-.52,1.11-1.04,2.23-1.58,3.36-2.07,4.34-4.37,8.3-6.81,12.5l-.83,1.43c-.4.68-1.06,1.17-1.83,1.35-.77.17-1.58.02-2.23-.43-.59-.4-4.03-2.47-4.99-2.86-.76-.31-1.36-.94-1.62-1.72-.26-.78-.17-1.64.25-2.35l.77-1.29c2.34-3.95,4.56-7.67,6.37-11.69l.43-.95c3.41-7.58,6.64-14.73,12.36-21.17,11.86-13.33,29.98-17.3,52.42-11.48h39.27c9.76.22,23.23,1.97,31.09,14.05l40.9-22.75c13.7-7.91,32.24-9.06,41.1,4.09,2.77,4.11,3.69,8.65,2.65,13.11-1.11,4.79-4.35,8.95-9.11,11.7l-78.72,44.49c-7.13,4.12-15.49,6.23-24.8,6.26l-29.35.11c-2.97.01-5.41,1.28-6.69,3.49l-8.05,13.85c-.53.91-1.48,1.41-2.46,1.41ZM167.93,248.44c.15.08.3.17.45.25l6.65-11.44c2.32-3.99,6.54-6.29,11.58-6.31l29.35-.11c8.32-.03,15.72-1.89,22.01-5.51l78.72-44.49c3.32-1.91,5.66-4.85,6.4-8.05.67-2.89.04-5.88-1.83-8.66-6.91-10.27-22.13-8.94-33.58-2.32l-43.36,24.12c-.67.37-1.46.46-2.19.24-.73-.22-1.35-.72-1.7-1.4-4.76-9.03-13.27-13.2-27.6-13.53h-39.57c-.24,0-.49-.02-.72-.09-20.69-5.45-36.53-2.19-47.09,9.67-5.15,5.78-8.2,12.55-11.43,19.72l-.43.96c-1.73,3.84-3.83,7.47-5.9,10.98.19.11.38.22.56.33,2.15-3.7,4.17-7.24,5.97-11.01.53-1.11,1.04-2.21,1.55-3.31,1.72-3.69,3.49-7.51,5.74-11.18,6.61-10.64,16.53-16.84,28.68-17.93,8.33-.59,15.87.83,22.2,2.32l41.75.1c6.16.02,12.15,1.52,17.31,4.36,4.55,2.5,8.14,6.93,9.35,11.56.84,3.21.48,6.21-1.05,8.68-1.57,2.54-5.08,5.11-8.77,5.11l-42.78.06c-.08.08-.16.19-.23.3.13.12.37.26.71.31l41.31.04h.02c3.55,0,6.73-1.31,8.96-3.7,2.1-2.25,3.12-5.29,2.89-8.56-.08-1.1.49-2.14,1.45-2.68l45.82-25.57c8.58-4.96,21.49-6.98,29.47.36,2.91,2.68,4.4,6.12,4.1,9.45-.32,3.45-2.36,6.37-5.92,8.42l-77.12,43.66c-7.65,4.42-15.01,6.59-22.48,6.63l-30.53.14c-4.96-.17-9.17,1.98-11.39,5.72l-7.31,12.32ZM187.85,202.14h0s0,0,0,0Z"/>
  </g>
  <path class="st0" d="M246.2,140.09c-17.01,6.07-35.43-1.1-44.28-16.12-9.1-15.44-5.95-35.14,7.76-47.01,10.84-9.39,25.96-11.77,39.42-5.72,12.14,5.45,20.78,17.54,21.69,31.6,1.06,16.34-8.87,31.65-24.6,37.26Z"/>
</svg>