<?xml version="1.0" encoding="UTF-8"?>
<svg id="Layer_1" xmlns="http://www.w3.org/2000/svg" version="1.1" viewBox="0 0 400 400">
  <!-- Generator: Adobe Illustrator 30.3.0, SVG Export Plug-In . SVG Version: 2.1.3 Build 182)  -->
  <defs>
    <style>
      .st0 {
        fill: #ffd203;
      }

      .st1 {
        fill: #1a1a1a;
      }
    </style>
  </defs>
  <path class="st0" d="M291.41,110.46h0c-22.26-22.26-58.35-22.26-80.61,0l-10.18,10.18c-2.08,2.08-5.46,2.08-7.54,0l-10.18-10.18c-22.26-22.26-58.35-22.26-80.61,0h0c-22.26,22.26-22.26,58.35,0,80.61l13.95,13.95-.26.26,70.65,70.65c5.5,5.5,14.42,5.52,19.94.03l71.14-70.68-.26-.26,13.95-13.95c22.26-22.26,22.26-58.35,0-80.61Z"/>
  <rect class="st1" x="258.04" y="152.22" width="25.75" height="107.41" rx="3.78" ry="3.78"/>
  <rect class="st1" x="257.36" y="152.22" width="27.1" height="107.41" rx="3.78" ry="3.78" transform="translate(476.84 -64.99) rotate(90)"/>
</svg>