<?xml version="1.0" encoding="UTF-8"?>
<svg id="Layer_1" xmlns="http://www.w3.org/2000/svg" version="1.1" viewBox="0 0 400 400">
  <!-- Generator: Adobe Illustrator 30.3.0, SVG Export Plug-In . SVG Version: 2.1.3 Build 182)  -->
  <defs>
    <style>
      .st0 {
        fill: #ffd203;
      }

      .st1 {
        fill: #1a1a1a;
      }
    </style>
  </defs>
  <g>
    <path class="st1" d="M343.39,265.84c2.51,12.91-8.45,26.26-25.37,26.26l-247.52.02c-7.15,0-16.17-3.36-17.99-8.46-2.04-5.72-1.31-11.67-.9-17.85l291.77.03Z"/>
    <path class="st1" d="M285.3,219.58c-1.11,1.18-4.56.43-5.64-.57l-8.43-10.77c-1.23,3.24-2.77,9.38-3.82,10.23s-5.02.16-5.53-1.17l-10.91-28.2c-.4-1.03.02-3.3.58-4.11.64-.92,3.17-1.93,4.29-1.58l28.91,8.98c1.6.5,2.63,3.65,2.06,5.15-.56,1.49-7.11,4.14-9.78,5.6l11.08,7.94c1.18,1.16.95,4.26-.14,5.41l-2.66,3.08Z"/>
    <path class="st1" d="M126.08,118.46c-.07,0-.15,0-.22,0-6.35.12-11.41,5.38-11.29,11.73.06,3.07,1.31,5.94,3.53,8.08,2.22,2.13,5.15,3.27,8.2,3.22,6.35-.12,11.41-5.38,11.29-11.73-.12-6.27-5.26-11.3-11.51-11.3Z"/>
    <path class="st1" d="M141.23,148.92c-3.87-2.43-9.01-4-14.69-4.18-.35-.01-.7-.02-1.05-.02-6.01,0-11.45,1.59-15.38,4.2-3.79,2.51-6.18,5.95-6.3,9.81-.12,3.78,1.99,7.45,5.93,10.34,4.17,3.05,9.81,4.84,15.9,5.03,6.07.19,11.83-1.25,16.17-4.04,4.11-2.64,6.44-6.18,6.56-9.96.13-4.35-2.64-8.36-7.14-11.19Z"/>
  </g>
  <path class="st0" d="M281.66,133.95h-109.87c-3.29,0-5.96-2.67-5.96-5.96s2.67-5.96,5.96-5.96h109.87c3.29,0,5.96,2.67,5.96,5.96s-2.67,5.96-5.96,5.96Z"/>
  <path class="st0" d="M281.66,163.65h-109.87c-3.29,0-5.96-2.67-5.96-5.96s2.67-5.96,5.96-5.96h109.87c3.29,0,5.96,2.67,5.96,5.96s-2.67,5.96-5.96,5.96Z"/>
  <path class="st0" d="M230.94,193.35h-59.15c-3.29,0-5.96-2.67-5.96-5.96s2.67-5.96,5.96-5.96h59.15c3.29,0,5.96,2.67,5.96,5.96s-2.67,5.96-5.96,5.96Z"/>
  <path class="st0" d="M230.94,223.04h-59.15c-3.29,0-5.96-2.67-5.96-5.96s2.67-5.96,5.96-5.96h59.15c3.29,0,5.96,2.67,5.96,5.96s-2.67,5.96-5.96,5.96Z"/>
  <path class="st1" d="M305.1,257.95H90.81c-8.98,0-16.29-7.31-16.29-16.29V101.8c0-8.98,7.31-16.29,16.29-16.29h214.28c8.98,0,16.29,7.31,16.29,16.29v139.85c0,8.98-7.31,16.29-16.29,16.29ZM90.81,97.43c-2.41,0-4.37,1.96-4.37,4.37v139.85c0,2.41,1.96,4.37,4.37,4.37h214.28c2.41,0,4.37-1.96,4.37-4.37V101.8c0-2.41-1.96-4.37-4.37-4.37H90.81Z"/>
</svg>