<?xml version="1.0" encoding="UTF-8"?>
<svg id="Layer_1" xmlns="http://www.w3.org/2000/svg" version="1.1" viewBox="0 0 400 400">
  <!-- Generator: Adobe Illustrator 30.3.0, SVG Export Plug-In . SVG Version: 2.1.3 Build 182)  -->
  <defs>
    <style>
      .st0 {
        fill: #ffd203;
      }

      .st1 {
        fill: #1a1a1a;
      }
    </style>
  </defs>
  <path class="st1" d="M110.21,320.25c-1.59,0-3.19-.3-4.72-.93-4.72-1.92-7.77-6.46-7.77-11.56v-24.36c0-.12-.1-.21-.21-.21h-10.43c-6.88,0-12.48-5.6-12.48-12.48v-117.59c0-6.88,5.6-12.48,12.48-12.48h37.07c3.39,0,6.13,2.75,6.13,6.13s-2.75,6.13-6.13,6.13h-37.07c-.12,0-.21.1-.21.21v117.59c0,.12.1.21.21.21h10.43c6.88,0,12.48,5.6,12.48,12.48v24.36c.05.17.22.23.28.22l24.97-25.58c2.34-2.39,5.59-3.76,8.93-3.76h101.13c.12,0,.21-.1.21-.21v-43.06c0-5.02,2.99-9.53,7.61-11.49,4.62-1.96,9.94-.97,13.54,2.52l25.08,24.27c.16.09.32.02.35-.04v-21.84c.01-6.88,5.61-12.48,12.49-12.48h8.35c.12,0,.21-.1.21-.21v-123.87c0-.12-.1-.21-.21-.21h-156.14c-.12,0-.21.1-.21.21v123.87c0,.12.1.21.21.21h68.05c3.39,0,6.13,2.75,6.13,6.13s-2.75,6.13-6.13,6.13h-68.05c-6.88,0-12.48-5.6-12.48-12.48v-123.87c0-6.88,5.6-12.48,12.48-12.48h156.14c6.88,0,12.48,5.6,12.48,12.48v123.87c0,6.88-5.6,12.48-12.48,12.48h-8.35c-.12,0-.21.1-.21.21v21.73c0,5.02-2.99,9.53-7.61,11.49-4.62,1.96-9.94.97-13.54-2.52l-25.08-24.27c-.16-.09-.31-.02-.35.04v43.18c-.01,6.88-5.61,12.48-12.49,12.48h-101.13c-.06,0-.11.02-.15.07l-24.88,25.5c-2.4,2.46-5.62,3.77-8.91,3.77Z"/>
  <path class="st0" d="M281.87,129.03h-89.9c-3.39,0-6.13-2.75-6.13-6.13s2.75-6.13,6.13-6.13h89.9c3.39,0,6.13,2.75,6.13,6.13s-2.75,6.13-6.13,6.13Z"/>
  <path class="st0" d="M281.87,159.59h-89.9c-3.39,0-6.13-2.75-6.13-6.13s2.75-6.13,6.13-6.13h89.9c3.39,0,6.13,2.75,6.13,6.13s-2.75,6.13-6.13,6.13Z"/>
  <path class="st0" d="M281.87,190.14h-89.9c-3.39,0-6.13-2.75-6.13-6.13s2.75-6.13,6.13-6.13h89.9c3.39,0,6.13,2.75,6.13,6.13s-2.75,6.13-6.13,6.13Z"/>
</svg>