<?xml version="1.0" encoding="UTF-8"?>
<svg id="Layer_1" xmlns="http://www.w3.org/2000/svg" version="1.1" viewBox="0 0 400 400">
  <!-- Generator: Adobe Illustrator 30.3.0, SVG Export Plug-In . SVG Version: 2.1.3 Build 182)  -->
  <defs>
    <style>
      .st0 {
        fill: #ffd203;
      }
    </style>
  </defs>
  <path d="M272.16,286.98l-32.34,32.36c-1.29,1.29-3.01,2.19-4.88,1.95-26.22-3.48-49.75-19.47-68.17-37.83-6.74-6.72-12.74-13.3-18.64-20.82-21.27-27.12-38.83-61.29-46.68-95.03-5.59-24.06-7.08-49.52,2-72.76.69-1.76,2.05-3.49,3.97-4.01l44.05-12.01c2.41-.66,5.39.83,6.25,3.23l22.87,64.07c.81,2.27-.19,5.08-2.22,6.35l-29.02,18.28,2.84,10.23c4.49,12.43,10.37,23.83,17.35,35.07,6.17,9.93,12.94,18.85,21.48,27.45l29.66-15.69c2.81-1.49,5.78-1.42,7.84,1.3l43.26,51.06c1.36,1.6,2.19,5,.38,6.81ZM222.56,239.64l-29.41,15.72c-2.49,1.15-4.8.77-6.84-.92-5.26-4.85-10.1-9.7-14.55-15.42-15.06-19.37-29.57-45.44-34.28-69.57-.57-3.14.83-5.27,3.35-6.84l27.44-17.14-19.35-54.18-35.66,9.67c-4.22,11.47-5.33,23.34-4.87,35.58.54,12.72,2.75,24.64,6.2,36.88,11.13,38.71,34.68,78.52,64.11,105.88,14.91,13.87,34.54,26.79,54.57,30.36l7.74-7.51,18.74-18.57-37.18-43.95Z"/>
  <path class="st0" d="M301.38,218.49c-.57,3.23-3.7,4.65-6.26,4.46-2.75-.21-5.38-2.85-4.87-6.01,2.76-17.15,1.53-34.34-3.99-50.89-7.55-22.61-21.74-42.22-41.29-55.8-7.01-4.86-14.06-8.68-21.99-11.61-3.24-1.2-5.15-3.91-4.15-7.36.86-2.98,4.32-4.85,7.7-3.53,17.3,6.75,32.66,17.1,45.09,30.95,24.03,26.79,36.1,63.88,29.76,99.79Z"/>
  <path class="st0" d="M259.06,208.21l.86-8.33c1.33-29.9-17.3-59.38-45.17-69.86-3.25-1.22-5.24-3.78-4.29-7.22.88-3.21,4.33-5.07,7.8-3.7,12.24,4.85,23.19,12.2,31.86,22.13,16.6,19.01,24.21,43.98,20.05,68.85-.52,3.08-3.57,4.7-6.06,4.51-3.01-.23-5.41-2.85-5.05-6.38Z"/>
  <path class="st0" d="M229.85,200.45c2.61-18.17-6.99-35.24-23.63-41.48-3.1-1.16-4.54-4.42-3.51-7.22s4.18-4.66,7.42-3.43c21.8,8.25,35.14,31.55,30.69,54.45-.58,3.01-4.32,4.27-6.42,3.88-2.79-.51-5.01-2.99-4.55-6.19Z"/>
</svg>