<?xml version="1.0" encoding="UTF-8"?>
<svg id="Layer_1" xmlns="http://www.w3.org/2000/svg" version="1.1" viewBox="0 0 400 400">
  <!-- Generator: Adobe Illustrator 30.3.0, SVG Export Plug-In . SVG Version: 2.1.3 Build 182)  -->
  <defs>
    <style>
      .st0 {
        fill: #ffd203;
      }

      .st1 {
        fill: #1a1a1a;
      }
    </style>
  </defs>
  <g>
    <path class="st0" d="M257.05,194.75c6.51,4.45,15.59,3.21,20.66-2.84,5.05-6.01,4.68-14.88-.85-20.62-4.2-4.35-11.98-6.87-19.31-2.31l-40.3-35.79c2.7-7.16,1.07-14.07-4.4-18.56-5.58-4.58-13.87-4.56-19.27.06-5.52,4.72-7.07,11.39-4.27,18.36l-40.09,35.57c-8.19-3.24-15.17-2.3-19.67,2.68-5.45,6.03-5.78,14.7-.78,20.62,2.97,3.52,7.31,5.54,11.91,5.54h0c3.13,0,6.16-.93,8.76-2.69,6.21-4.18,8.28-11.8,5.34-19.5l40.07-35.46c5.45,2.72,10.72,2.75,16.97.08l39.89,35.38c-2.91,7.64-.84,15.24,5.35,19.48Z"/>
    <path class="st1" d="M162.92,241.48h-56.92c-10.52,0-19.09-8.56-19.09-19.09V89.42c0-10.52,8.56-19.09,19.09-19.09h194.46c10.52,0,19.09,8.56,19.09,19.09v132.84c0,10.52-8.56,19.09-19.09,19.09h-48.3c-3.22,0-5.83-2.61-5.83-5.83s2.61-5.83,5.83-5.83h48.3c4.09,0,7.42-3.33,7.42-7.42V89.42c0-4.09-3.33-7.42-7.42-7.42H106c-4.09,0-7.42,3.33-7.42,7.42v132.97c0,4.09,3.33,7.42,7.42,7.42h56.92c3.22,0,5.83,2.61,5.83,5.83s-2.61,5.83-5.83,5.83Z"/>
  </g>
  <path class="st1" d="M206.33,272.49c-.24,0-.48,0-.72,0-16.05-.34-27.49-12.02-27.22-27.76.26-15.1,11.73-26.27,27.26-26.55,8.16-.17,15.52,2.59,20.74,7.72,5.06,4.97,7.84,11.87,7.85,19.44h0s0,0,0,0c0,7.56-2.8,14.46-7.89,19.45-5.09,4.99-12.18,7.71-20.02,7.71ZM206.29,229.83c-.15,0-.29,0-.44,0-7.74.14-15.63,4.86-15.81,15.09-.19,10.74,7.8,15.72,15.8,15.89,5.03.12,9.3-1.41,12.33-4.37,2.83-2.77,4.38-6.71,4.38-11.11h0c0-4.41-1.55-8.36-4.35-11.12-2.92-2.87-7.04-4.38-11.92-4.38Z"/>
  <g>
    <path class="st1" d="M262.42,322.95c-2.39,0-4.33-1.94-4.33-4.33,0-16.04-13.05-29.09-29.09-29.09h-45.37c-16.04,0-29.09,13.05-29.09,29.09,0,2.39-1.94,4.33-4.33,4.33s-4.33-1.94-4.33-4.33c0-20.82,16.94-37.76,37.76-37.76h45.37c20.82,0,37.76,16.94,37.76,37.76,0,2.39-1.94,4.33-4.33,4.33Z"/>
    <path class="st1" d="M262.42,324.25c-3.1,0-5.63-2.52-5.63-5.63,0-15.33-12.47-27.8-27.8-27.8h-45.37c-15.33,0-27.8,12.47-27.8,27.8,0,3.1-2.52,5.63-5.63,5.63s-5.63-2.52-5.63-5.63c0-21.53,17.52-39.05,39.05-39.05h45.37c21.53,0,39.05,17.52,39.05,39.05,0,3.1-2.52,5.63-5.63,5.63ZM183.63,288.23h45.37c16.76,0,30.39,13.63,30.39,30.39,0,1.67,1.36,3.03,3.03,3.03s3.03-1.36,3.03-3.03c0-20.1-16.36-36.46-36.46-36.46h-45.37c-20.1,0-36.46,16.36-36.46,36.46,0,1.67,1.36,3.03,3.03,3.03s3.03-1.36,3.03-3.03c0-16.76,13.63-30.39,30.39-30.39Z"/>
  </g>
</svg>