<?xml version="1.0" encoding="UTF-8"?>
<svg id="Layer_1" xmlns="http://www.w3.org/2000/svg" version="1.1" viewBox="0 0 400 400">
  <!-- Generator: Adobe Illustrator 30.3.0, SVG Export Plug-In . SVG Version: 2.1.3 Build 182)  -->
  <defs>
    <style>
      .st0 {
        fill: #ffd203;
      }

      .st1 {
        fill: #1a1a1a;
      }
    </style>
  </defs>
  <path class="st1" d="M136.15,131.13c-.25,0-.5,0-.76,0-16.79-.36-28.78-12.58-28.49-29.05.27-15.8,12.27-27.49,28.53-27.79,8.54-.17,16.25,2.71,21.71,8.08,5.29,5.2,8.21,12.43,8.21,20.35h0s0,0,0,0c0,7.91-2.93,15.14-8.25,20.35-5.33,5.22-12.75,8.07-20.95,8.07ZM136.12,86.49c-.15,0-.3,0-.46,0-8.1.15-16.36,5.09-16.55,15.79-.2,11.24,8.17,16.45,16.54,16.63,5.27.12,9.74-1.47,12.91-4.58,2.96-2.9,4.59-7.03,4.58-11.62h0c0-4.62-1.62-8.75-4.56-11.64-3.06-3.01-7.37-4.59-12.48-4.59Z"/>
  <g>
    <path class="st1" d="M194.86,183.94c-2.5,0-4.53-2.03-4.53-4.53,0-16.79-13.66-30.45-30.45-30.45h-47.48c-16.79,0-30.45,13.66-30.45,30.45,0,2.5-2.03,4.53-4.53,4.53s-4.53-2.03-4.53-4.53c0-21.79,17.73-39.52,39.52-39.52h47.48c21.79,0,39.52,17.73,39.52,39.52,0,2.5-2.03,4.53-4.53,4.53Z"/>
    <path class="st1" d="M194.86,185.3c-3.25,0-5.89-2.64-5.89-5.89,0-16.04-13.05-29.09-29.09-29.09h-47.48c-16.04,0-29.09,13.05-29.09,29.09,0,3.25-2.64,5.89-5.89,5.89s-5.89-2.64-5.89-5.89c0-22.54,18.34-40.87,40.87-40.87h47.48c22.54,0,40.87,18.34,40.87,40.87,0,3.25-2.64,5.89-5.89,5.89ZM112.4,147.6h47.48c17.54,0,31.81,14.27,31.81,31.81,0,1.75,1.42,3.18,3.18,3.18s3.18-1.42,3.18-3.18c0-21.04-17.12-38.16-38.16-38.16h-47.48c-21.04,0-38.16,17.12-38.16,38.16,0,1.75,1.42,3.18,3.18,3.18s3.18-1.42,3.18-3.18c0-17.54,14.27-31.81,31.81-31.81Z"/>
  </g>
  <path class="st0" d="M136.48,224.4c-.25,0-.5,0-.76,0-16.79-.36-28.78-12.58-28.49-29.05.27-15.8,12.27-27.49,28.53-27.79,8.54-.17,16.25,2.71,21.71,8.08,5.29,5.2,8.21,12.43,8.21,20.35h0s0,0,0,0c0,7.91-2.93,15.14-8.25,20.35-5.33,5.22-12.75,8.07-20.95,8.07ZM136.44,179.76c-.15,0-.3,0-.46,0-8.1.15-16.36,5.09-16.55,15.79-.2,11.24,8.17,16.45,16.54,16.63,5.27.12,9.74-1.47,12.91-4.58,2.96-2.9,4.59-7.03,4.58-11.62h0c0-4.62-1.62-8.75-4.56-11.64-3.06-3.01-7.37-4.59-12.48-4.59Z"/>
  <g>
    <path class="st0" d="M195.19,277.22c-2.5,0-4.53-2.03-4.53-4.53,0-16.79-13.66-30.45-30.45-30.45h-47.48c-16.79,0-30.45,13.66-30.45,30.45,0,2.5-2.03,4.53-4.53,4.53s-4.53-2.03-4.53-4.53c0-21.79,17.73-39.52,39.52-39.52h47.48c21.79,0,39.52,17.73,39.52,39.52,0,2.5-2.03,4.53-4.53,4.53Z"/>
    <path class="st0" d="M195.19,278.57c-3.25,0-5.89-2.64-5.89-5.89,0-16.04-13.05-29.09-29.09-29.09h-47.48c-16.04,0-29.09,13.05-29.09,29.09,0,3.25-2.64,5.89-5.89,5.89s-5.89-2.64-5.89-5.89c0-22.54,18.34-40.87,40.87-40.87h47.48c22.54,0,40.87,18.34,40.87,40.87,0,3.25-2.64,5.89-5.89,5.89ZM112.72,240.88h47.48c17.54,0,31.81,14.27,31.81,31.81,0,1.75,1.42,3.18,3.18,3.18s3.18-1.42,3.18-3.18c0-21.04-17.12-38.16-38.16-38.16h-47.48c-21.04,0-38.16,17.12-38.16,38.16,0,1.75,1.42,3.18,3.18,3.18s3.18-1.42,3.18-3.18c0-17.54,14.27-31.81,31.81-31.81Z"/>
  </g>
  <path class="st1" d="M273.77,224.4c-.25,0-.5,0-.76,0-16.79-.36-28.78-12.58-28.49-29.05.27-15.8,12.27-27.49,28.53-27.79,8.54-.17,16.25,2.71,21.71,8.08,5.29,5.2,8.21,12.43,8.21,20.35h0s0,0,0,0c0,7.91-2.93,15.14-8.25,20.35-5.33,5.22-12.75,8.07-20.95,8.07ZM273.73,179.76c-.15,0-.3,0-.46,0-8.1.15-16.36,5.09-16.55,15.79-.2,11.24,8.17,16.45,16.54,16.63,5.27.12,9.74-1.47,12.91-4.58,2.96-2.9,4.59-7.03,4.58-11.62h0c0-4.62-1.62-8.75-4.56-11.64-3.06-3.01-7.37-4.59-12.48-4.59Z"/>
  <g>
    <path class="st1" d="M332.48,277.22c-2.5,0-4.53-2.03-4.53-4.53,0-16.79-13.66-30.45-30.45-30.45h-47.48c-16.79,0-30.45,13.66-30.45,30.45,0,2.5-2.03,4.53-4.53,4.53s-4.53-2.03-4.53-4.53c0-21.79,17.73-39.52,39.52-39.52h47.48c21.79,0,39.52,17.73,39.52,39.52,0,2.5-2.03,4.53-4.53,4.53Z"/>
    <path class="st1" d="M332.48,278.57c-3.25,0-5.89-2.64-5.89-5.89,0-16.04-13.05-29.09-29.09-29.09h-47.48c-16.04,0-29.09,13.05-29.09,29.09,0,3.25-2.64,5.89-5.89,5.89s-5.89-2.64-5.89-5.89c0-22.54,18.34-40.87,40.87-40.87h47.48c22.54,0,40.87,18.34,40.87,40.87,0,3.25-2.64,5.89-5.89,5.89ZM250.01,240.88h47.48c17.54,0,31.81,14.27,31.81,31.81,0,1.75,1.42,3.18,3.18,3.18s3.18-1.42,3.18-3.18c0-21.04-17.12-38.16-38.16-38.16h-47.48c-21.04,0-38.16,17.12-38.16,38.16,0,1.75,1.42,3.18,3.18,3.18s3.18-1.42,3.18-3.18c0-17.54,14.27-31.81,31.81-31.81Z"/>
  </g>
  <path class="st0" d="M273.42,131.13c-.25,0-.5,0-.76,0-16.79-.36-28.78-12.58-28.49-29.05.27-15.8,12.27-27.49,28.53-27.79,8.54-.17,16.25,2.71,21.71,8.08,5.29,5.2,8.21,12.43,8.21,20.35h0s0,0,0,0c0,7.91-2.93,15.14-8.25,20.35-5.33,5.22-12.75,8.07-20.95,8.07ZM273.39,86.49c-.15,0-.3,0-.46,0-8.1.15-16.36,5.09-16.55,15.79-.2,11.24,8.17,16.45,16.54,16.63,5.27.12,9.74-1.47,12.91-4.58,2.96-2.9,4.59-7.03,4.58-11.62h0c0-4.62-1.62-8.75-4.56-11.64-3.06-3.01-7.37-4.59-12.48-4.59Z"/>
  <g>
    <path class="st0" d="M332.13,183.94c-2.5,0-4.53-2.03-4.53-4.53,0-16.79-13.66-30.45-30.45-30.45h-47.48c-16.79,0-30.45,13.66-30.45,30.45,0,2.5-2.03,4.53-4.53,4.53s-4.53-2.03-4.53-4.53c0-21.79,17.73-39.52,39.52-39.52h47.48c21.79,0,39.52,17.73,39.52,39.52,0,2.5-2.03,4.53-4.53,4.53Z"/>
    <path class="st0" d="M332.13,185.3c-3.25,0-5.89-2.64-5.89-5.89,0-16.04-13.05-29.09-29.09-29.09h-47.48c-16.04,0-29.09,13.05-29.09,29.09,0,3.25-2.64,5.89-5.89,5.89s-5.89-2.64-5.89-5.89c0-22.54,18.34-40.87,40.87-40.87h47.48c22.54,0,40.87,18.34,40.87,40.87,0,3.25-2.64,5.89-5.89,5.89ZM249.67,147.6h47.48c17.54,0,31.81,14.27,31.81,31.81,0,1.75,1.42,3.18,3.18,3.18s3.18-1.42,3.18-3.18c0-21.04-17.12-38.16-38.16-38.16h-47.48c-21.04,0-38.16,17.12-38.16,38.16,0,1.75,1.42,3.18,3.18,3.18s3.18-1.42,3.18-3.18c0-17.54,14.27-31.81,31.81-31.81Z"/>
  </g>
</svg>