<?xml version="1.0" encoding="UTF-8"?>
<svg id="Layer_1" xmlns="http://www.w3.org/2000/svg" version="1.1" viewBox="0 0 400 400">
  <!-- Generator: Adobe Illustrator 30.3.0, SVG Export Plug-In . SVG Version: 2.1.3 Build 182)  -->
  <defs>
    <style>
      .st0 {
        fill: #ffd203;
      }

      .st1 {
        fill: #1a1a1a;
      }
    </style>
  </defs>
  <path class="st1" d="M165.71,225.39c-40.65,0-73.72-33.07-73.72-73.72s33.07-73.72,73.72-73.72,73.72,33.07,73.72,73.72c0,18.84-7.1,36.77-20,50.49-.52.55-1.05,1.1-1.59,1.64-13.92,13.92-32.44,21.59-52.13,21.59ZM165.71,91.52c-33.17,0-60.16,26.99-60.16,60.16s26.99,60.16,60.16,60.16c16.07,0,31.18-6.26,42.54-17.62.44-.44.87-.88,1.3-1.34,10.53-11.2,16.32-25.83,16.32-41.2,0-33.17-26.99-60.16-60.16-60.16Z"/>
  <rect class="st1" x="228.71" y="200.8" width="13.56" height="37.4" transform="translate(-85.73 240.91) rotate(-46.8)"/>
  <rect class="st1" x="268.3" y="222.09" width="29.17" height="83.96" rx="3.66" ry="3.66" transform="translate(-103.3 288.92) rotate(-46.71)"/>
  <path class="st0" d="M166.44,116.02c-.09,0-.19,0-.28,0-8.15.15-14.66,6.92-14.51,15.07.08,3.95,1.68,7.64,4.53,10.38,2.85,2.74,6.61,4.21,10.54,4.13,8.15-.15,14.66-6.91,14.51-15.07-.15-8.06-6.76-14.51-14.79-14.51Z"/>
  <path class="st0" d="M185.9,155.17c-4.97-3.13-11.58-5.14-18.88-5.37-.45-.01-.9-.02-1.35-.02-7.72,0-14.72,2.05-19.77,5.39-4.87,3.22-7.94,7.65-8.09,12.61-.15,4.85,2.56,9.57,7.62,13.29,5.35,3.92,12.61,6.22,20.42,6.46,7.8.24,15.2-1.6,20.78-5.19,5.29-3.39,8.28-7.94,8.43-12.79.17-5.59-3.39-10.74-9.17-14.37Z"/>
</svg>