<?xml version="1.0" encoding="UTF-8"?>
<svg id="Layer_1" xmlns="http://www.w3.org/2000/svg" version="1.1" viewBox="0 0 400 400">
  <!-- Generator: Adobe Illustrator 30.3.0, SVG Export Plug-In . SVG Version: 2.1.3 Build 182)  -->
  <defs>
    <style>
      .st0 {
        fill: #ffd203;
      }

      .st1 {
        fill: #1a1a1a;
      }
    </style>
  </defs>
  <circle class="st0" cx="210.07" cy="219.42" r="53.94"/>
  <path class="st1" d="M204.2,238.35c-.09,0-.19,0-.28,0-1.48-.08-2.86-.77-3.8-1.91l-13.52-16.26c-1.88-2.26-1.57-5.61.69-7.49,2.26-1.88,5.61-1.57,7.49.69l9.85,11.85,25.44-24.66c2.11-2.04,5.47-1.99,7.52.12,2.04,2.11,1.99,5.47-.12,7.52l-29.56,28.66c-.99.96-2.32,1.5-3.7,1.5Z"/>
  <path class="st1" d="M303.44,310.03H107.5c-11.25,0-20.4-9.15-20.4-20.4V106.6c0-11.25,9.15-20.4,20.4-20.4h11.38v12.15h-11.38c-4.55,0-8.25,3.7-8.25,8.25v183.04c0,4.55,3.7,8.25,8.25,8.25h195.94c4.55,0,8.25-3.7,8.25-8.25V106.6c0-4.55-3.7-8.25-8.25-8.25h-6.7v-12.15h6.7c11.25,0,20.4,9.15,20.4,20.4v183.04c0,11.25-9.15,20.4-20.4,20.4Z"/>
  <rect class="st1" x="143.91" y="86.2" width="126.84" height="12.15"/>
  <rect class="st1" x="93.17" y="135.06" width="224.25" height="12.15"/>
  <path class="st1" d="M283.95,121.43c-3.35,0-6.08-2.72-6.08-6.08v-38.23c0-3.35,2.72-6.08,6.08-6.08s6.08,2.72,6.08,6.08v38.23c0,3.35-2.72,6.08-6.08,6.08Z"/>
  <path class="st1" d="M131.44,121.43c-3.35,0-6.08-2.72-6.08-6.08v-38.23c0-3.35,2.72-6.08,6.08-6.08s6.08,2.72,6.08,6.08v38.23c0,3.35-2.72,6.08-6.08,6.08Z"/>
</svg>