<?xml version="1.0" encoding="UTF-8"?>
<svg id="Layer_1" xmlns="http://www.w3.org/2000/svg" version="1.1" viewBox="0 0 400 400">
  <!-- Generator: Adobe Illustrator 30.3.0, SVG Export Plug-In . SVG Version: 2.1.3 Build 182)  -->
  <defs>
    <style>
      .st0 {
        fill: #ffd203;
      }

      .st1 {
        fill: #1a1a1a;
      }
    </style>
  </defs>
  <g>
    <path class="st1" d="M334,210.23c-10.83-.76-20.44,6.56-22.6,17.54l-40.92-.02c-1.01-15.54-6.68-29.25-16.84-40.88l21.97-22.06,6.68-7.22c9.27,6.58,21.58,4.91,28.76-3.58,7.19-8.5,6.34-21.02-1.25-28.7-7.95-8.04-20.66-8.45-29.13-1.02-8.12,7.12-9.56,19.32-3.35,28.41l-29.03,28.91c-11.67-10.73-25.58-15.89-40.82-17.05v-40.95c11.1-2.18,18.51-12.11,17.47-22.89-1.07-11.05-10.25-19.43-21.16-19.43-10.95,0-20.51,8.77-21.23,19.71-.72,10.89,6.67,20.5,17.61,22.63v40.95c-15.47,1-29.46,6.69-40.95,16.96l-28.97-28.96c6.52-9.44,4.4-21.64-3.74-28.58-8.46-7.21-20.94-6.55-28.79,1.28-7.63,7.62-8.28,19.87-1.45,28.43,6.79,8.51,19.1,10.69,28.72,3.98l29,29.17c-10.15,11.58-15.93,25.3-16.89,40.88h-41.03c-2.45-12.01-13.3-19.16-24.58-17.25-9.9,1.68-17.39,10.4-17.59,20.43-.23,11.4,8.33,20.95,19.72,21.76,10.76.77,20.37-6.58,22.55-17.56l40.95.05c.96,15.58,6.7,29.29,16.85,40.87l5.36,5.26c11.63,10.64,25.39,15.97,40.56,16.98.18.01.37.02.55.02l6.65-.02c.27,0,.55,0,.82-.03,15.53-.99,28.84-6.55,40.4-16.94,0,0,4.5-4.19,5.97-6.02,9.69-11.45,15.25-24.89,16.24-40.12l40.95-.05c2.23,11.28,11.94,18.67,23.11,17.51,10.9-1.14,19.36-10.37,19.1-21.48-.26-10.94-8.67-20.15-19.67-20.92ZM291.15,126.85c7.94-2.11,15.24,2.67,17.08,10.04,1.87,7.49-2.38,15-10.4,17.07-6.71,1.73-14.45-2.51-16.49-9.82-1.98-7.08,1.74-15.13,9.82-17.28ZM116.65,153.77c-7.17,2.15-14.86-2.14-16.98-8.9-2.42-7.71,1.3-15.79,9.46-18,7.95-2.16,15.3,2.63,17.17,9.93,1.89,7.38-2.36,14.78-9.65,16.97ZM77.8,245.1c-7.38,1.51-14.41-3.26-16.19-10.39-1.86-7.45,2.83-15.33,10.98-16.9,7.99-1.55,14.84,3.94,16.22,11.08,1.48,7.63-3.55,14.69-11.01,16.22ZM190.21,105.67c-1.64-7.1,2.41-14.73,10.69-16.69,7.61-1.81,14.91,3.65,16.43,10.67,1.65,7.6-3.13,14.97-10.97,16.6-7,1.46-14.42-3.11-16.15-10.58ZM250.36,268.59c-1.16,1.56-2.38,3.09-3.67,4.56-.35.4-.7.8-1.08,1.17-2.38,2.26-5.44,4.37-8.16,6.26-2.74,1.9-5.65,3.57-8.67,4.98-5.99,2.79-12.44,4.56-19.01,5.23-8.04.82-16.24-.02-23.94-2.47-3.89-1.24-7.65-2.88-11.2-4.91-1.8-1.03-6.73-4.49-8.69-6.05-2.16-1.73-8.51-8.1-8.35-8.41-12.08-15.1-16.27-35-11.26-53.22,5.33-19.36,19.98-34.19,37.29-40.28,20.74-7.3,42.47-3.03,58.4,10.53.29,0,1.08.94,1.31,1.15,11.79,10.63,19.04,25.76,19.8,41.63.7,14.59-4.26,28.32-12.78,39.82ZM335.08,245.12c-7.27,1.44-14.47-3.15-16.22-10.48-1.74-7.29,2.63-15.09,10.85-16.83,7.78-1.65,14.84,3.78,16.35,10.84,1.62,7.57-3.43,14.98-10.99,16.47Z"/>
    <path class="st1" d="M200.44,299.77c-.22,0-.44,0-.66-.02-16.09-1.08-30.03-6.92-41.45-17.36l-5.4-5.3c-10.22-11.65-15.97-25.22-17.19-40.45l-38.4-.04c-2.76,11.03-12.59,18.36-23.83,17.56-12.07-.86-21.32-11.07-21.08-23.25.22-10.68,8.3-20.07,18.81-21.85,12.01-2.04,22.98,5.32,25.99,17.22h38.49c1.18-14.74,6.65-27.96,16.26-39.33l-27.2-27.35c-9.86,6.15-22.42,4.13-29.67-4.96-7.3-9.15-6.63-22.21,1.56-30.38,8.5-8.48,21.73-9.07,30.78-1.36,8.69,7.41,10.59,19.89,4.67,29.5l27.15,27.15c11.15-9.59,24.4-15.08,39.41-16.32v-38.41c-11-2.71-18.35-12.58-17.6-23.91.76-11.63,10.94-21.08,22.68-21.08h0c11.75,0,21.48,8.93,22.62,20.76,1.09,11.25-6.36,21.44-17.47,24.2v38.43c15.37,1.42,28.58,6.93,39.31,16.38l27.21-27.09c-5.84-9.57-4.1-21.97,4.26-29.31,9.03-7.92,22.71-7.44,31.15,1.09,8.25,8.34,8.83,21.81,1.33,30.68-7.45,8.8-19.99,10.64-29.66,4.55l-5.83,6.3-21.05,21.14c9.53,11.31,14.98,24.53,16.21,39.34l38.38.02c2.73-11.01,12.59-18.33,23.88-17.53,11.71.82,20.75,10.43,21.03,22.35.28,11.66-8.69,21.76-20.41,22.98-11.54,1.21-21.63-6.1-24.44-17.5l-38.41.05c-1.23,14.81-6.77,28.13-16.48,39.6-1.49,1.86-5.9,5.97-6.09,6.15-11.84,10.65-25.35,16.31-41.31,17.33-.3.02-.61.03-.91.03l-6.65.02ZM96.17,233.66h0l40.95.05c.77,0,1.42.6,1.46,1.38.93,15.12,6.48,28.57,16.49,39.99l5.29,5.18c10.88,9.95,24.23,15.53,39.63,16.57.15,0,.3.01.45.01l6.65-.02c.24,0,.49,0,.73-.02,15.27-.98,28.2-6.4,39.51-16.57.03-.02,4.42-4.12,5.81-5.85,9.62-11.37,14.97-24.58,15.92-39.3.05-.77.69-1.37,1.46-1.37l40.95-.05h0c.7,0,1.3.5,1.44,1.18,2.08,10.54,11.13,17.42,21.52,16.33,10.21-1.06,18.02-9.85,17.78-19.99-.25-10.4-8.11-18.78-18.3-19.49h0c-10.2-.71-19.05,6.17-21.06,16.36-.14.69-.74,1.18-1.44,1.18h0l-40.92-.02c-.77,0-1.41-.6-1.46-1.37-.99-15.16-6.53-28.62-16.48-40.01-.51-.58-.48-1.46.07-2l21.97-22.06,6.64-7.18c.5-.54,1.32-.63,1.93-.2,8.54,6.06,20.06,4.63,26.79-3.33,6.53-7.71,6.01-19.45-1.17-26.72-7.34-7.43-19.26-7.84-27.12-.94-7.56,6.63-8.89,18.01-3.11,26.47.4.58.33,1.37-.18,1.87l-29.03,28.91c-.56.55-1.45.57-2.03.04-10.72-9.86-24.16-15.46-39.93-16.67-.76-.06-1.36-.7-1.36-1.46v-40.95c-.01-.7.49-1.31,1.17-1.44,10.27-2.02,17.28-11.17,16.3-21.3-1-10.32-9.47-18.1-19.7-18.1h0c-10.23,0-19.09,8.22-19.75,18.34-.67,10.24,6.23,19.11,16.43,21.1.69.13,1.19.74,1.19,1.44v40.95c0,.77-.61,1.41-1.38,1.46-15.38,1-28.86,6.58-40.06,16.59-.58.52-1.46.49-2.02-.06l-28.97-28.96c-.5-.5-.57-1.29-.17-1.87,5.87-8.49,4.37-19.94-3.49-26.63-7.87-6.71-19.39-6.19-26.8,1.2-7.13,7.12-7.71,18.5-1.34,26.47,6.53,8.18,18.02,9.77,26.74,3.7.58-.41,1.38-.34,1.88.17l29,29.17c.54.55.57,1.42.06,2-10.03,11.45-15.6,24.91-16.53,40.01-.05.77-.69,1.38-1.46,1.38h-41.03c-.7-.01-1.3-.5-1.44-1.18-2.25-11-12.09-17.91-22.89-16.08-9.14,1.55-16.18,9.72-16.37,19.01-.21,10.62,7.85,19.52,18.35,20.27,10.14.73,18.97-6.17,21.01-16.38.14-.69.74-1.18,1.44-1.18ZM203.82,292.56c-6.25,0-12.53-.96-18.43-2.84-3.99-1.27-7.86-2.96-11.48-5.04-1.9-1.09-6.92-4.61-8.88-6.18-1.25-1-3.57-3.24-5.17-4.85-2.16-2.17-3.2-3.27-3.59-4.01-12.23-15.43-16.47-35.71-11.35-54.31,5.23-19,19.88-34.82,38.21-41.27,20.81-7.32,43.08-3.35,59.63,10.62.49.24.92.69,1.36,1.16.08.08.14.15.19.2,12.1,10.91,19.5,26.46,20.28,42.64.69,14.2-3.83,28.3-13.07,40.76h0c-1.17,1.58-2.43,3.14-3.74,4.65-.38.44-.76.87-1.18,1.27-2.43,2.3-5.5,4.43-8.21,6.31l-.12.08c-2.8,1.95-5.79,3.67-8.89,5.11-6.15,2.87-12.7,4.67-19.49,5.36-2.02.21-4.06.31-6.1.31ZM158.96,268.4c.79,1.03,5.91,6.21,7.91,7.81,1.84,1.48,6.72,4.91,8.5,5.92,3.44,1.97,7.12,3.58,10.91,4.79,7.45,2.37,15.52,3.2,23.35,2.41,6.45-.66,12.69-2.37,18.54-5.1,2.94-1.37,5.79-3.01,8.45-4.86l.12-.08c2.62-1.82,5.6-3.89,7.86-6.03.35-.33.67-.7.98-1.06,1.26-1.45,2.47-2.96,3.6-4.48h0c8.83-11.92,13.15-25.36,12.5-38.87-.74-15.41-7.79-30.21-19.32-40.61-.08-.07-.2-.2-.35-.35-.12-.12-.37-.39-.52-.52-.15-.06-.29-.14-.41-.25-15.77-13.43-37.06-17.26-56.96-10.26-17.45,6.14-31.38,21.19-36.36,39.28-4.9,17.78-.79,37.19,10.99,51.91.09.11.16.24.22.37ZM158.92,269.6h0s0,0,0,0ZM158.92,269.59s0,0,0,0c0,0,0,0,0,0ZM158.92,269.58s0,0,0,0c0,0,0,0,0,0ZM158.93,269.58s0,0,0,0c0,0,0,0,0,0ZM158.93,269.57h0s0,0,0,0ZM158.93,269.57s0,0,0,0c0,0,0,0,0,0ZM250.36,268.59h.01-.01ZM241.42,187.3h0,0ZM332.36,246.86c-6.98,0-13.23-4.78-14.93-11.87-.95-3.99-.24-8.27,1.95-11.74,2.23-3.53,5.79-5.97,10.03-6.87,8.19-1.73,16.31,3.64,18.09,11.97.85,3.99.08,8.08-2.19,11.52-2.31,3.51-5.84,5.89-9.95,6.7-1.01.2-2.01.3-3,.3ZM332.6,218.98c-.84,0-1.7.09-2.58.28-3.45.73-6.35,2.71-8.15,5.56-1.77,2.8-2.35,6.26-1.58,9.49,1.57,6.56,7.94,10.67,14.51,9.38h0c3.33-.66,6.19-2.59,8.07-5.43,1.83-2.78,2.46-6.08,1.77-9.29-1.11-5.19-5.86-9.99-12.03-9.99ZM75.05,246.85c-6.89,0-13.1-4.74-14.87-11.79-1-4.01-.29-8.32,1.95-11.83,2.29-3.6,5.91-6.04,10.18-6.87,8.27-1.6,16.32,3.89,17.94,12.24,1.61,8.33-3.73,16.21-12.15,17.93l-.29-1.44.29,1.44c-1.02.21-2.04.31-3.05.31ZM75.28,219.01c-.78,0-1.59.08-2.42.24-3.47.67-6.4,2.65-8.26,5.56-1.81,2.84-2.38,6.32-1.57,9.55,1.64,6.55,8,10.64,14.48,9.31h0c6.83-1.4,11.17-7.77,9.86-14.5-1.02-5.25-5.77-10.15-12.08-10.15ZM294.72,155.82c-6.6,0-12.93-4.59-14.8-11.29-1.12-4.01-.58-8.37,1.47-11.96,2.02-3.53,5.35-6.06,9.39-7.13h0c4.1-1.09,8.29-.54,11.81,1.53,3.55,2.09,6.06,5.49,7.07,9.57,2.12,8.51-2.81,16.62-11.46,18.84-1.15.3-2.32.44-3.47.44ZM291.53,128.27h0c-3.27.87-5.97,2.91-7.59,5.75-1.67,2.91-2.1,6.46-1.19,9.71,1.78,6.37,8.51,10.39,14.71,8.8,7.05-1.82,11.06-8.39,9.35-15.29-.82-3.31-2.85-6.06-5.72-7.75-2.83-1.67-6.23-2.11-9.56-1.22ZM112.86,155.8c-6.45,0-12.61-4.17-14.59-10.48-1.37-4.35-.99-8.82,1.08-12.59,1.95-3.57,5.29-6.15,9.39-7.27,4.09-1.11,8.29-.59,11.83,1.47,3.52,2.05,6.12,5.51,7.15,9.51,2.08,8.09-2.6,16.33-10.65,18.74h0c-1.39.42-2.81.61-4.21.61ZM116.65,153.77h.01-.01ZM112.95,127.83c-1.14,0-2.3.15-3.45.47-3.33.9-6.02,2.98-7.59,5.84-1.68,3.06-1.98,6.72-.85,10.3,1.94,6.18,8.89,9.81,15.16,7.93h0c6.53-1.96,10.33-8.64,8.65-15.2-.84-3.29-2.9-6.02-5.78-7.7-1.87-1.09-3.97-1.64-6.14-1.64ZM203.68,117.99c-6.91,0-13.26-4.9-14.9-12h0c-1.93-8.32,3.25-16.43,11.79-18.45,3.81-.9,7.79-.22,11.2,1.94,3.58,2.26,6.13,5.85,7,9.85.88,4.05.14,8.16-2.09,11.59-2.26,3.49-5.82,5.89-10.02,6.76-1,.21-2,.31-2.98.31ZM191.64,105.34c1.52,6.57,7.99,10.82,14.43,9.48,3.42-.71,6.32-2.66,8.15-5.49,1.79-2.77,2.39-6.09,1.68-9.37-.7-3.24-2.78-6.15-5.7-7.99-2.74-1.73-5.93-2.29-8.96-1.57-8.04,1.91-10.95,9.12-9.6,14.93h0Z"/>
  </g>
  <path class="st1" d="M203.6,199.01c-.09,0-.17,0-.26,0-7.36.14-13.24,6.24-13.1,13.61.07,3.57,1.52,6.89,4.09,9.37,2.57,2.47,5.97,3.8,9.52,3.73,7.36-.14,13.24-6.24,13.1-13.61-.14-7.28-6.1-13.1-13.35-13.1Z"/>
  <path class="st1" d="M221.17,234.36c-4.49-2.82-10.45-4.64-17.04-4.85-.41-.01-.82-.02-1.22-.02-6.97,0-13.29,1.85-17.84,4.87-4.4,2.91-7.17,6.91-7.3,11.38-.14,4.38,2.31,8.64,6.88,11.99,4.83,3.54,11.38,5.61,18.44,5.83,7.04.22,13.72-1.45,18.76-4.68,4.77-3.06,7.47-7.17,7.61-11.55.16-5.05-3.06-9.69-8.28-12.98Z"/>
  <path class="st0" d="M75.18,254.75c-12.88,0-23.36-10.48-23.36-23.36s10.48-23.36,23.36-23.36,23.36,10.48,23.36,23.36-10.48,23.36-23.36,23.36ZM75.18,219.78c-6.4,0-11.61,5.21-11.61,11.61s5.21,11.61,11.61,11.61,11.61-5.21,11.61-11.61-5.21-11.61-11.61-11.61Z"/>
  <path class="st0" d="M112.57,163.41c-12.88,0-23.36-10.48-23.36-23.36s10.48-23.36,23.36-23.36,23.36,10.48,23.36,23.36-10.48,23.36-23.36,23.36ZM112.57,128.44c-6.4,0-11.61,5.21-11.61,11.61s5.21,11.61,11.61,11.61,11.61-5.21,11.61-11.61-5.21-11.61-11.61-11.61Z"/>
  <path class="st0" d="M203.97,125.68c-12.88,0-23.36-10.48-23.36-23.36s10.48-23.36,23.36-23.36,23.36,10.48,23.36,23.36-10.48,23.36-23.36,23.36ZM203.97,90.71c-6.4,0-11.61,5.21-11.61,11.61s5.21,11.61,11.61,11.61,11.61-5.21,11.61-11.61-5.21-11.61-11.61-11.61Z"/>
  <path class="st0" d="M294.9,163.89c-12.88,0-23.36-10.48-23.36-23.36s10.48-23.36,23.36-23.36,23.36,10.48,23.36,23.36-10.48,23.36-23.36,23.36ZM294.9,128.92c-6.4,0-11.61,5.21-11.61,11.61s5.21,11.61,11.61,11.61,11.61-5.21,11.61-11.61-5.21-11.61-11.61-11.61Z"/>
  <path class="st0" d="M332.14,255.3c-12.88,0-23.36-10.48-23.36-23.36s10.48-23.36,23.36-23.36,23.36,10.48,23.36,23.36-10.48,23.36-23.36,23.36ZM332.14,220.32c-6.4,0-11.61,5.21-11.61,11.61s5.21,11.61,11.61,11.61,11.61-5.21,11.61-11.61-5.21-11.61-11.61-11.61Z"/>
</svg>