<?xml version="1.0" encoding="UTF-8"?>
<svg id="Layer_1" xmlns="http://www.w3.org/2000/svg" version="1.1" viewBox="0 0 400 400">
  <!-- Generator: Adobe Illustrator 30.3.0, SVG Export Plug-In . SVG Version: 2.1.3 Build 182)  -->
  <defs>
    <style>
      .st0 {
        fill: #ffd203;
      }

      .st1 {
        fill: #1a1a1a;
      }
    </style>
  </defs>
  <g>
    <g>
      <path class="st1" d="M265.16,295.4c3.13.05,6.2-.13,9.64-.05l-2.94-14.09c8.16-.26,14.37-5.4,14.18-13.99-.16-7.28.89-16.62-.57-23.81l-16.83-28.64c-.86-1.46,2.57-4.9,4.23-5,1.67-.1,5.65.55,6.69,2.08l5.65,8.27c.92,1.35,4.48,2.17,6.11,1.44,1.47-.66,2.48-4.57,1.58-5.91l-5.88-8.85c-.08-7.5,0-14.01.46-21.78l30.85,52.82.04,58.51c2.83-.03,5.66-.08,8.49-.16l-.18-54.64c-.02-5.01-2.14-10.63-4.6-14.85l-35.54-60.9-.04-91.59c0-6.82-5.3-12.65-12.31-12.65h-72.85s-1.1,0-1.1,0h-14.77s0,0,0,0h-57.69c-7.01,0-12.31,5.83-12.31,12.65l-.04,91.59-35.54,60.9c-2.46,4.21-4.58,9.84-4.6,14.85l-.18,54.13c2.83-.03,5.66-.06,8.49-.12l.04-57.73,30.85-52.82c.47,7.76.54,14.27.46,21.78l-5.88,8.85c-.89,1.34.11,5.26,1.58,5.91,1.63.73,5.19-.09,6.11-1.44l5.65-8.27c1.04-1.52,5.02-2.18,6.69-2.08,1.66.1,5.09,3.54,4.23,5l-16.83,28.64c-1.46,7.2-.41,16.53-.57,23.81-.19,8.59,6.03,13.73,14.18,13.99l-2.9,14.43c3.1.12,6.39.13,9.48.14.76-4.89,1.82-10.23,3.15-15.02l43.6.02s0,.01,0,.02h17.48s.42,0,.42,0l60.8-.03c1.17,4.23,2.29,10.18,3.03,14.58ZM201.34,271.71c-12.42,0-24.85,0-37.27,0-11.97,0-23.94,0-35.92,0-1.56,0-4.19-2.79-4.17-4.2l.27-21.72,14.65-23.39c3.02-4.82,3.97-10.97.34-16-2.73-3.78-7.76-6.18-15.32-5.94l-.09-124.96c0-2.87,2.11-5.27,5.13-5.27h72.1s71.97,0,71.97,0c3.01,0,5.13,2.39,5.13,5.27l-.09,124.96c-7.55-.24-12.59,2.15-15.32,5.94-3.63,5.03-2.68,11.18.34,16l14.65,23.39.27,21.72c.02,1.4-2.61,4.2-4.17,4.2-11.97,0-23.94,0-35.92,0h-36.57Z"/>
      <path class="st1" d="M273.02,68.91h-71.97s-72.1,0-72.1,0c-1.8,0-3.46.7-4.66,1.97-1.16,1.23-1.8,2.87-1.8,4.62l.09,126.33,1.37-.04c6.59-.21,11.5,1.65,14.2,5.39,2.92,4.04,2.78,9.47-.39,14.52l-14.84,23.71-.27,22.09c-.02,1.49,1.34,3.03,1.92,3.62.71.72,2.11,1.92,3.58,1.92h73.19s72.48,0,72.48,0c1.46,0,2.87-1.2,3.57-1.92.58-.59,1.94-2.13,1.92-3.62l-.27-22.09-14.84-23.71c-3.16-5.05-3.31-10.47-.39-14.52,2.7-3.74,7.6-5.6,14.2-5.39l1.37.04.09-126.33c0-1.76-.64-3.4-1.8-4.62-1.2-1.27-2.85-1.97-4.66-1.97ZM276.73,199.12c-8.58.07-12.92,3.53-15.07,6.5-3.57,4.95-3.47,11.49.29,17.48l14.45,23.08.26,21.34c-.06.83-2.08,2.86-2.85,2.86h-35.92s-36.57,0-36.57,0h-73.19c-.76,0-2.78-2.04-2.85-2.86l.26-21.35,14.45-23.08c3.75-5.99,3.86-12.53.29-17.48-2.14-2.97-6.48-6.43-15.07-6.5l-.09-123.62c0-1.07.38-2.07,1.07-2.8.71-.75,1.65-1.14,2.73-1.14h72.1s71.97,0,71.97,0c1.08,0,2.02.39,2.73,1.14.69.73,1.07,1.72,1.07,2.8l-.09,123.62Z"/>
    </g>
    <path class="st1" d="M201.64,194.31c-.07,0-.15,0-.22,0-6.41.12-11.52,5.43-11.4,11.84.06,3.1,1.32,6,3.56,8.15,2.24,2.15,5.19,3.31,8.28,3.25,6.41-.12,11.52-5.43,11.4-11.84-.12-6.33-5.31-11.4-11.62-11.4Z"/>
    <path class="st1" d="M216.93,225.07c-3.91-2.46-9.1-4.04-14.83-4.22-.36-.01-.71-.02-1.06-.02-6.07,0-11.56,1.61-15.53,4.24-3.83,2.53-6.24,6.01-6.36,9.91-.12,3.81,2.01,7.52,5.99,10.44,4.21,3.08,9.91,4.88,16.05,5.07,6.13.19,11.94-1.26,16.33-4.08,4.15-2.67,6.51-6.24,6.62-10.05.14-4.39-2.66-8.44-7.21-11.29Z"/>
  </g>
  <path class="st0" d="M245.11,112.3h-87.45c-3.29,0-5.96-2.67-5.96-5.96s2.67-5.96,5.96-5.96h87.45c3.29,0,5.96,2.67,5.96,5.96s-2.67,5.96-5.96,5.96Z"/>
  <path class="st0" d="M245.11,142.02h-87.45c-3.29,0-5.96-2.67-5.96-5.96s2.67-5.96,5.96-5.96h87.45c3.29,0,5.96,2.67,5.96,5.96s-2.67,5.96-5.96,5.96Z"/>
  <path class="st0" d="M245.11,171.74h-87.45c-3.29,0-5.96-2.67-5.96-5.96s2.67-5.96,5.96-5.96h87.45c3.29,0,5.96,2.67,5.96,5.96s-2.67,5.96-5.96,5.96Z"/>
  <path class="st1" d="M132.82,338.37h-54.25c-5.73,0-10.4-4.66-10.4-10.4v-18.32c0-5.73,4.66-10.4,10.4-10.4h54.25c5.73,0,10.4,4.66,10.4,10.4v18.32c0,5.73-4.66,10.4-10.4,10.4ZM78.57,308.54c-.62,0-1.12.5-1.12,1.12v18.32c0,.62.5,1.12,1.12,1.12h54.25c.62,0,1.12-.5,1.12-1.12v-18.32c0-.62-.5-1.12-1.12-1.12h-54.25Z"/>
  <path class="st1" d="M321.43,338.37h-54.25c-5.73,0-10.4-4.66-10.4-10.4v-18.32c0-5.73,4.66-10.4,10.4-10.4h54.25c5.73,0,10.4,4.66,10.4,10.4v18.32c0,5.73-4.66,10.4-10.4,10.4ZM267.18,308.54c-.62,0-1.12.5-1.12,1.12v18.32c0,.62.5,1.12,1.12,1.12h54.25c.62,0,1.12-.5,1.12-1.12v-18.32c0-.62-.5-1.12-1.12-1.12h-54.25Z"/>
</svg>