<?xml version="1.0" encoding="UTF-8"?>
<svg id="Layer_1" xmlns="http://www.w3.org/2000/svg" version="1.1" viewBox="0 0 400 400">
  <!-- Generator: Adobe Illustrator 30.3.0, SVG Export Plug-In . SVG Version: 2.1.3 Build 182)  -->
  <defs>
    <style>
      .st0 {
        fill: #ffd203;
      }

      .st1 {
        fill: #1a1a1a;
      }
    </style>
  </defs>
  <path class="st1" d="M270.8,214.79c-1.43-.77-2.39-2.29-2.36-4.03l1.15-66.49c.04-2.47,2.08-4.44,4.56-4.4,2.48.04,4.44,2.08,4.4,4.56l-1.15,66.49c-.04,2.47-2.08,4.44-4.56,4.4-.74-.01-1.43-.2-2.04-.53Z"/>
  <g>
    <path class="st1" d="M139.72,134.85c-.1,0-.21,0-.31,0-6.83-.15-11.71-5.12-11.59-11.82.11-6.43,4.99-11.18,11.61-11.3,3.47-.07,6.61,1.1,8.83,3.29,2.15,2.11,3.34,5.05,3.34,8.28h0s0,0,0,0c0,3.22-1.19,6.16-3.36,8.28-2.17,2.12-5.19,3.28-8.52,3.28ZM139.7,116.69c-.06,0-.12,0-.19,0-3.3.06-6.65,2.07-6.73,6.42-.08,4.57,3.32,6.69,6.73,6.77,2.14.05,3.96-.6,5.25-1.86,1.2-1.18,1.87-2.86,1.87-4.73h0c0-1.88-.66-3.56-1.85-4.73-1.25-1.22-3-1.87-5.08-1.87Z"/>
    <path class="st1" d="M139.72,135.49h-.32c-7.2-.16-12.34-5.4-12.21-12.47.12-6.79,5.26-11.8,12.23-11.93,3.63-.07,6.94,1.16,9.29,3.47,2.28,2.24,3.53,5.34,3.53,8.73,0,3.39-1.26,6.49-3.55,8.74-2.28,2.23-5.47,3.46-8.97,3.46ZM139.73,112.36c-.09,0-.19,0-.28,0-6.26.11-10.88,4.6-10.98,10.67-.11,6.33,4.5,11.03,10.96,11.17h.29c3.17,0,6.03-1.1,8.08-3.1,2.04-2,3.17-4.78,3.17-7.82,0-3.05-1.12-5.83-3.15-7.82-2.05-2.01-4.91-3.11-8.09-3.11ZM139.75,130.52c-.08,0-.17,0-.25,0-3.72-.08-7.44-2.4-7.35-7.42.08-4.78,3.76-6.99,7.36-7.05h.2c2.25,0,4.16.71,5.52,2.05,1.32,1.29,2.04,3.14,2.04,5.19,0,2.04-.73,3.89-2.06,5.19-1.37,1.34-3.26,2.05-5.47,2.05ZM139.7,117.33h-.17c-2.99.06-6.04,1.87-6.1,5.8-.08,4.42,3.24,6.05,6.1,6.11,1.97.04,3.62-.53,4.79-1.68,1.08-1.06,1.67-2.57,1.67-4.27,0-1.71-.59-3.22-1.66-4.28-1.12-1.1-2.72-1.68-4.63-1.68Z"/>
  </g>
  <g>
    <g>
      <path class="st1" d="M163.36,158.49c-1.02,0-1.84-.83-1.84-1.84,0-6.83-5.56-12.39-12.39-12.39h-19.32c-6.83,0-12.39,5.56-12.39,12.39,0,1.02-.83,1.84-1.84,1.84s-1.84-.83-1.84-1.84c0-8.86,7.21-16.07,16.07-16.07h19.32c8.86,0,16.07,7.21,16.07,16.07,0,1.02-.83,1.84-1.84,1.84Z"/>
      <path class="st1" d="M163.36,159.77c-1.72,0-3.12-1.4-3.12-3.12,0-6.12-4.98-11.11-11.11-11.11h-19.32c-6.12,0-11.11,4.98-11.11,11.11,0,1.72-1.4,3.12-3.12,3.12s-3.12-1.4-3.12-3.12c0-9.57,7.79-17.36,17.35-17.36h19.32c9.57,0,17.35,7.79,17.35,17.36,0,1.72-1.4,3.12-3.12,3.12ZM129.81,142.98h19.32c7.54,0,13.67,6.13,13.67,13.67,0,.31.25.56.56.56s.56-.25.56-.56c0-8.16-6.64-14.8-14.79-14.8h-19.32c-8.16,0-14.79,6.64-14.79,14.8,0,.31.25.56.56.56s.56-.25.56-.56c0-7.54,6.13-13.67,13.67-13.67Z"/>
    </g>
    <g>
      <path class="st1" d="M163.36,159.04c-1.32,0-2.4-1.07-2.4-2.4,0-6.53-5.31-11.84-11.84-11.84h-19.32c-6.53,0-11.83,5.31-11.83,11.84,0,1.32-1.07,2.4-2.4,2.4s-2.4-1.07-2.4-2.4c0-9.17,7.46-16.63,16.63-16.63h19.32c9.17,0,16.63,7.46,16.63,16.63,0,1.32-1.07,2.4-2.4,2.4ZM129.81,143.71h19.32c7.13,0,12.94,5.8,12.94,12.94,0,.71.58,1.29,1.29,1.29s1.29-.58,1.29-1.29c0-8.56-6.96-15.52-15.52-15.52h-19.32c-8.56,0-15.52,6.96-15.52,15.52,0,.71.58,1.29,1.29,1.29s1.29-.58,1.29-1.29c0-7.13,5.8-12.94,12.94-12.94Z"/>
      <path class="st1" d="M163.36,160.32c-2.03,0-3.68-1.65-3.68-3.68,0-5.82-4.74-10.56-10.56-10.56h-19.32c-5.82,0-10.55,4.73-10.55,10.56,0,2.03-1.65,3.68-3.68,3.68s-3.68-1.65-3.68-3.68c0-9.87,8.03-17.91,17.91-17.91h19.32c9.87,0,17.91,8.03,17.91,17.91,0,2.03-1.65,3.68-3.68,3.68ZM129.81,142.43h19.32c7.84,0,14.22,6.38,14.22,14.22.02-7.85-6.37-14.24-14.22-14.24h-19.32c-7.85,0-14.24,6.39-14.24,14.24.02-7.84,6.4-14.22,14.24-14.22Z"/>
    </g>
  </g>
  <path class="st1" d="M139.19,173.73c-22.97,0-41.66-18.69-41.66-41.66s18.69-41.66,41.66-41.66,41.66,18.69,41.66,41.66-18.69,41.66-41.66,41.66ZM139.19,99.37c-18.03,0-32.7,14.67-32.7,32.7s14.67,32.7,32.7,32.7,32.7-14.67,32.7-32.7-14.67-32.7-32.7-32.7Z"/>
  <path class="st1" d="M136.33,243c-1.43-.77-2.39-2.29-2.36-4.03l1.15-66.49c.04-2.47,2.08-4.44,4.56-4.4,2.48.04,4.44,2.08,4.4,4.56l-1.15,66.49c-.04,2.47-2.08,4.44-4.56,4.4-.74-.01-1.43-.2-2.04-.53Z"/>
  <path class="st1" d="M175.36,127.4c.74-1.45,2.24-2.45,3.97-2.45l66.5-.35c2.47-.01,4.49,1.98,4.5,4.46.01,2.48-1.98,4.49-4.46,4.5l-66.5.35c-2.47.01-4.49-1.98-4.5-4.46,0-.74.17-1.43.48-2.05Z"/>
  <path class="st1" d="M164.34,250.1c.74-1.45,2.24-2.45,3.97-2.45l66.5-.35c2.47-.01,4.49,1.98,4.5,4.46.01,2.48-1.98,4.49-4.46,4.5l-66.5.35c-2.47.01-4.49-1.98-4.5-4.46,0-.74.17-1.43.48-2.05Z"/>
  <circle class="st0" cx="139.02" cy="250.32" r="41.68"/>
  <path class="st1" d="M139.14,227.51c-.06,0-.12,0-.18,0-5.24.1-9.43,4.45-9.33,9.69.05,2.54,1.08,4.91,2.91,6.67,1.83,1.76,4.25,2.71,6.78,2.66,5.24-.1,9.43-4.45,9.33-9.69-.1-5.18-4.35-9.33-9.51-9.33Z"/>
  <path class="st1" d="M151.65,252.68c-3.2-2.01-7.45-3.31-12.14-3.45-.29,0-.58-.01-.87-.01-4.97,0-9.46,1.32-12.71,3.47-3.13,2.07-5.1,4.92-5.2,8.11-.1,3.12,1.64,6.16,4.9,8.54,3.44,2.52,8.11,4,13.13,4.15,5.02.15,9.77-1.03,13.36-3.34,3.4-2.18,5.32-5.1,5.42-8.23.11-3.6-2.18-6.9-5.9-9.24Z"/>
  <g>
    <path class="st1" d="M273.66,252.38c-.1,0-.21,0-.31,0-6.83-.15-11.71-5.12-11.59-11.82.11-6.43,4.99-11.18,11.61-11.3,3.47-.07,6.61,1.1,8.83,3.29,2.15,2.11,3.34,5.05,3.34,8.28h0s0,0,0,0c0,3.22-1.19,6.16-3.36,8.28-2.17,2.12-5.19,3.28-8.52,3.28ZM273.65,234.23c-.06,0-.12,0-.19,0-3.3.06-6.65,2.07-6.73,6.42-.08,4.57,3.32,6.69,6.73,6.77,2.14.05,3.96-.6,5.25-1.86,1.2-1.18,1.87-2.86,1.87-4.73h0c0-1.88-.66-3.56-1.85-4.73-1.25-1.22-3-1.87-5.08-1.87Z"/>
    <path class="st1" d="M273.66,253.02h-.32c-7.2-.16-12.34-5.4-12.21-12.47.12-6.79,5.26-11.8,12.23-11.93,3.63-.07,6.94,1.16,9.29,3.47,2.28,2.24,3.53,5.34,3.53,8.73,0,3.39-1.26,6.49-3.55,8.74-2.28,2.23-5.47,3.46-8.97,3.46ZM273.67,229.9c-.09,0-.19,0-.28,0-6.26.11-10.88,4.6-10.98,10.67-.11,6.33,4.5,11.03,10.96,11.17h.29c3.17,0,6.03-1.1,8.08-3.1,2.04-2,3.17-4.78,3.17-7.82,0-3.05-1.12-5.83-3.15-7.82-2.05-2.01-4.91-3.11-8.09-3.11ZM273.69,248.06c-.08,0-.17,0-.25,0-3.72-.08-7.44-2.4-7.35-7.42.08-4.78,3.76-6.99,7.36-7.05h.2c2.25,0,4.16.71,5.52,2.05,1.32,1.29,2.04,3.14,2.04,5.19,0,2.04-.73,3.89-2.06,5.19-1.37,1.34-3.26,2.05-5.47,2.05ZM273.65,234.87h-.17c-2.99.06-6.04,1.87-6.1,5.8-.08,4.42,3.24,6.05,6.1,6.11,1.97.04,3.62-.53,4.79-1.68,1.08-1.06,1.67-2.57,1.67-4.27,0-1.71-.59-3.22-1.66-4.28-1.12-1.1-2.72-1.68-4.63-1.68Z"/>
  </g>
  <g>
    <g>
      <path class="st1" d="M297.31,276.03c-1.02,0-1.84-.83-1.84-1.84,0-6.83-5.56-12.39-12.39-12.39h-19.32c-6.83,0-12.39,5.56-12.39,12.39,0,1.02-.83,1.84-1.84,1.84s-1.84-.83-1.84-1.84c0-8.86,7.21-16.07,16.07-16.07h19.32c8.86,0,16.07,7.21,16.07,16.07,0,1.02-.83,1.84-1.84,1.84Z"/>
      <path class="st1" d="M297.31,277.31c-1.72,0-3.12-1.4-3.12-3.12,0-6.12-4.98-11.11-11.11-11.11h-19.32c-6.12,0-11.11,4.98-11.11,11.11,0,1.72-1.4,3.12-3.12,3.12s-3.12-1.4-3.12-3.12c0-9.57,7.79-17.36,17.35-17.36h19.32c9.57,0,17.35,7.79,17.35,17.36,0,1.72-1.4,3.12-3.12,3.12ZM263.76,260.52h19.32c7.54,0,13.67,6.13,13.67,13.67,0,.31.25.56.56.56s.56-.25.56-.56c0-8.16-6.64-14.8-14.79-14.8h-19.32c-8.16,0-14.79,6.64-14.79,14.8,0,.31.25.56.56.56s.56-.25.56-.56c0-7.54,6.13-13.67,13.67-13.67Z"/>
    </g>
    <g>
      <path class="st1" d="M297.31,276.58c-1.32,0-2.4-1.07-2.4-2.4,0-6.53-5.31-11.84-11.84-11.84h-19.32c-6.53,0-11.83,5.31-11.83,11.84,0,1.32-1.07,2.4-2.4,2.4s-2.4-1.07-2.4-2.4c0-9.17,7.46-16.63,16.63-16.63h19.32c9.17,0,16.63,7.46,16.63,16.63,0,1.32-1.07,2.4-2.4,2.4ZM263.76,261.24h19.32c7.13,0,12.94,5.8,12.94,12.94,0,.71.58,1.29,1.29,1.29s1.29-.58,1.29-1.29c0-8.56-6.96-15.52-15.52-15.52h-19.32c-8.56,0-15.52,6.96-15.52,15.52,0,.71.58,1.29,1.29,1.29s1.29-.58,1.29-1.29c0-7.13,5.8-12.94,12.94-12.94Z"/>
      <path class="st1" d="M297.31,277.86c-2.03,0-3.68-1.65-3.68-3.68,0-5.82-4.74-10.56-10.56-10.56h-19.32c-5.82,0-10.55,4.73-10.55,10.56,0,2.03-1.65,3.68-3.68,3.68s-3.68-1.65-3.68-3.68c0-9.87,8.03-17.91,17.91-17.91h19.32c9.87,0,17.91,8.03,17.91,17.91,0,2.03-1.65,3.68-3.68,3.68ZM263.76,259.97h19.32c7.84,0,14.22,6.38,14.22,14.22.02-7.85-6.37-14.24-14.22-14.24h-19.32c-7.85,0-14.24,6.39-14.24,14.24.02-7.84,6.4-14.22,14.24-14.22Z"/>
    </g>
  </g>
  <path class="st1" d="M273.14,291.26c-22.97,0-41.66-18.69-41.66-41.66s18.69-41.66,41.66-41.66,41.66,18.69,41.66,41.66-18.69,41.66-41.66,41.66ZM273.14,216.91c-18.03,0-32.7,14.67-32.7,32.7s14.67,32.7,32.7,32.7,32.7-14.67,32.7-32.7-14.67-32.7-32.7-32.7Z"/>
  <circle class="st0" cx="273.53" cy="128.14" r="41.68"/>
  <path class="st1" d="M273.64,105.32c-.06,0-.12,0-.18,0-5.24.1-9.43,4.45-9.33,9.69.05,2.54,1.08,4.91,2.91,6.67,1.83,1.76,4.25,2.71,6.78,2.66,5.24-.1,9.43-4.45,9.33-9.69-.1-5.18-4.35-9.33-9.51-9.33Z"/>
  <path class="st1" d="M286.15,130.5c-3.2-2.01-7.45-3.31-12.14-3.45-.29,0-.58-.01-.87-.01-4.97,0-9.46,1.32-12.71,3.47-3.13,2.07-5.1,4.92-5.2,8.11-.1,3.12,1.64,6.16,4.9,8.54,3.44,2.52,8.11,4,13.13,4.15,5.02.15,9.77-1.03,13.36-3.34,3.4-2.18,5.32-5.1,5.42-8.23.11-3.6-2.18-6.9-5.9-9.24Z"/>
</svg>