<?xml version="1.0" encoding="UTF-8"?>
<svg id="Layer_1" xmlns="http://www.w3.org/2000/svg" version="1.1" viewBox="0 0 400 400">
  <!-- Generator: Adobe Illustrator 30.3.0, SVG Export Plug-In . SVG Version: 2.1.3 Build 182)  -->
  <defs>
    <style>
      .st0 {
        fill: #ffd203;
      }

      .st1 {
        fill: #1a1a1a;
      }
    </style>
  </defs>
  <g>
    <path class="st1" d="M77.23,223.66c-.2-.89-.32-1.8-.34-2.71-.34-11.78,9.08-21.38,18.61-26.9,1.29-.75,4.48-.04,5.02,1.36,1.7,4.38-6.04,4.97-13.36,14.3-4.79,6.1-4.32,14.05.81,19.96,12.17,14.03,36.2,20.22,54.33,23.54,1.45.27,3.18,2.62,2.94,3.93-.23,1.24-2.82,2.74-4.25,2.47-16.36-3.04-33.54-7.22-47.55-16.59-6.24-4.17-14.43-11.36-16.2-19.36Z"/>
    <path class="st1" d="M141.35,262.75c-.31,0-.62-.03-.93-.08-16.67-3.09-34.12-7.3-48.71-17.06-4.52-3.02-15.27-11.14-17.51-21.27h0c-.24-1.1-.38-2.21-.41-3.29-.32-11.09,7.22-22.18,20.16-29.68,1.81-1.05,4.22-.8,5.88-.22,1.78.62,3.05,1.74,3.6,3.14,1.79,4.61-1.81,7.14-4.98,9.36-2.54,1.78-5.71,4-8.82,7.98-3.8,4.85-3.52,11.13.71,16,8.95,10.32,26.14,17.68,52.54,22.52,3.14.58,5.99,4.52,5.44,7.55-.31,1.68-1.57,2.86-2.58,3.55-.56.39-2.36,1.5-4.37,1.5ZM142.17,257.11h0ZM141.3,256.53h0,0ZM96.86,196.86c-4.31,2.53-17.23,11.21-16.86,24,.02.69.11,1.41.27,2.12h0c1.22,5.5,6.79,12.02,14.9,17.44,13.61,9.1,30.24,13.11,46.21,16.08.09-.02.21-.06.33-.12-.06-.07-.12-.12-.18-.17-27.73-5.1-46.01-13.13-55.91-24.52-6.18-7.12-6.54-16.73-.91-23.92,3.69-4.7,7.42-7.32,10.15-9.23.78-.55,1.69-1.19,2.28-1.68-.1-.01-.21-.02-.28-.01Z"/>
  </g>
  <g>
    <path class="st1" d="M348.45,223.66c.2-.89.32-1.8.34-2.71.34-11.78-9.08-21.38-18.61-26.9-1.29-.75-4.48-.04-5.02,1.36-1.7,4.38,6.04,4.97,13.36,14.3,4.79,6.1,4.32,14.05-.81,19.96-12.17,14.03-36.2,20.22-54.33,23.54-1.45.27-3.18,2.62-2.94,3.93.23,1.24,2.82,2.74,4.25,2.47,16.36-3.04,33.54-7.22,47.55-16.59,6.24-4.17,14.43-11.36,16.2-19.36Z"/>
    <path class="st1" d="M279.96,261.25c-1-.69-2.27-1.87-2.58-3.55-.55-3.02,2.3-6.97,5.44-7.55,26.4-4.84,43.58-12.2,52.54-22.52,4.23-4.88,4.51-11.16.71-16-3.11-3.97-6.28-6.19-8.82-7.98-3.18-2.23-6.78-4.75-4.98-9.36.54-1.4,1.82-2.51,3.6-3.14,1.66-.58,4.07-.83,5.88.22,12.94,7.49,20.48,18.59,20.16,29.68-.03,1.08-.17,2.19-.41,3.29h0c-2.24,10.13-12.99,18.25-17.51,21.27-14.59,9.76-32.04,13.97-48.71,17.06-.31.06-.62.08-.93.08-2.02,0-3.81-1.12-4.37-1.5ZM283.51,257.11h0ZM284.38,256.53h0,0ZM328.54,196.88c.58.5,1.5,1.13,2.28,1.68,2.73,1.91,6.46,4.53,10.15,9.23,5.63,7.19,5.27,16.8-.91,23.92-9.89,11.4-28.18,19.42-55.91,24.52-.06.04-.12.1-.18.17.12.05.24.1.33.12,15.97-2.97,32.6-6.98,46.21-16.08,8.11-5.42,13.68-11.94,14.9-17.44h0c.16-.72.25-1.43.27-2.12.37-12.79-12.55-21.47-16.86-24-.07,0-.18,0-.28.01Z"/>
  </g>
  <path class="st1" d="M211.19,137.74c-.34,0-.68,0-1.02-.01-22.34-.48-38.28-16.71-37.9-38.61.37-21.33,15.98-36.5,37.95-36.9,11.48-.21,21.68,3.6,28.94,10.73,7.02,6.89,10.88,16.49,10.89,27.04h0c0,10.52-3.88,20.13-10.94,27.04-7.08,6.93-16.96,10.72-27.92,10.72ZM211.14,74.96c-.23,0-.46,0-.68,0-17.29.31-25.23,12.47-25.44,24.38-.22,12.49,7.56,25.26,25.43,25.64,8.01.16,14.85-2.27,19.75-7.07,4.59-4.49,7.11-10.86,7.11-17.93h0c0-7.09-2.51-13.47-7.07-17.94-4.73-4.64-11.32-7.09-19.09-7.09Z"/>
  <g>
    <g>
      <path class="st0" d="M260.18,266.14c.09,25.82-33.93,42.88-49.09,42.94-15.06.06-48.98-17.7-48.94-41.35l.09-54.58,48.86-16.36,48.9,16.37.19,52.99ZM250.27,267.84l.03-47.68-39.26-12.96-39.23,13.09.04,45.99c.02,19.05,28.19,32.69,39.25,32.73,11.6.05,39.15-14.91,39.16-31.17Z"/>
      <path class="st0" d="M211.01,309.72c-9.51,0-26.8-7.05-38.26-18.47-7.37-7.35-11.26-15.48-11.25-23.52l.09-55.04,49.49-16.57,49.53,16.58.19,53.45c.09,26.55-34.92,43.52-49.73,43.58h-.08ZM162.87,213.6l-.09,54.12c-.01,7.69,3.75,15.5,10.87,22.61,11.22,11.2,28.1,18.1,37.36,18.1h.07c14.43-.06,48.54-16.54,48.46-42.3l-.19-52.53-48.26-16.15-48.22,16.15ZM211.17,299.65h-.06c-11.89-.05-39.87-14.19-39.89-33.37l-.04-46.45,39.87-13.3.2.07,39.7,13.1-.03,48.14c0,5.27-2.84,10.87-8.2,16.21-9.39,9.35-23.87,15.6-31.54,15.6Z"/>
    </g>
    <rect class="st1" x="205.14" y="227.81" width="12.05" height="50.25" rx="3.78" ry="3.78"/>
    <rect class="st1" x="204.82" y="227.81" width="12.68" height="50.25" rx="3.78" ry="3.78" transform="translate(464.09 41.77) rotate(90)"/>
  </g>
  <path class="st1" d="M293.76,208.86c-3.52,0-6.37-2.85-6.37-6.37,0-23.61-19.21-42.82-42.82-42.82h-66.78c-23.61,0-42.82,19.21-42.82,42.82,0,3.52-2.85,6.37-6.37,6.37s-6.37-2.85-6.37-6.37c0-30.64,24.93-55.57,55.57-55.57h66.78c30.64,0,55.57,24.93,55.57,55.57,0,3.52-2.85,6.37-6.37,6.37Z"/>
</svg>