<?xml version="1.0" encoding="UTF-8"?>
<svg id="Layer_1" xmlns="http://www.w3.org/2000/svg" version="1.1" viewBox="0 0 400 400">
  <!-- Generator: Adobe Illustrator 30.3.0, SVG Export Plug-In . SVG Version: 2.1.3 Build 182)  -->
  <defs>
    <style>
      .st0 {
        fill: #ffd203;
      }

      .st1 {
        fill: #1a1a1a;
      }
    </style>
  </defs>
  <path class="st1" d="M136.31,129.24c-.23,0-.47,0-.7,0-15.55-.33-26.64-11.64-26.37-26.9.25-14.63,11.36-25.45,26.42-25.72,7.9-.16,15.04,2.51,20.1,7.48,4.9,4.81,7.6,11.5,7.6,18.84h0s0,0,0,0c0,7.32-2.71,14.02-7.64,18.84-4.93,4.83-11.8,7.47-19.4,7.47ZM136.28,87.91c-.14,0-.28,0-.42,0-7.5.14-15.15,4.71-15.32,14.62-.18,10.41,7.56,15.23,15.31,15.4,4.88.11,9.01-1.36,11.95-4.24,2.74-2.68,4.25-6.5,4.24-10.76h0c0-4.28-1.5-8.1-4.22-10.77-2.83-2.78-6.82-4.25-11.55-4.25Z"/>
  <g>
    <path class="st1" d="M190.67,178.13c-2.32,0-4.2-1.88-4.2-4.2,0-15.54-12.65-28.19-28.19-28.19h-43.96c-15.54,0-28.19,12.65-28.19,28.19,0,2.32-1.88,4.2-4.2,4.2s-4.2-1.88-4.2-4.2c0-20.17,16.41-36.58,36.58-36.58h43.96c20.17,0,36.58,16.41,36.58,36.58,0,2.32-1.88,4.2-4.2,4.2Z"/>
    <path class="st1" d="M190.67,179.39c-3.01,0-5.45-2.45-5.45-5.45,0-14.85-12.08-26.94-26.94-26.94h-43.96c-14.85,0-26.93,12.08-26.93,26.94,0,3.01-2.45,5.45-5.45,5.45s-5.45-2.45-5.45-5.45c0-20.87,16.98-37.84,37.84-37.84h43.96c20.87,0,37.84,16.98,37.84,37.84,0,3.01-2.45,5.45-5.45,5.45ZM114.32,144.49h43.96c16.24,0,29.45,13.21,29.45,29.45,0,1.62,1.32,2.94,2.94,2.94s2.94-1.32,2.94-2.94c0-19.48-15.85-35.33-35.33-35.33h-43.96c-19.48,0-35.33,15.85-35.33,35.33,0,1.62,1.32,2.94,2.94,2.94s2.94-1.32,2.94-2.94c0-16.24,13.21-29.45,29.45-29.45Z"/>
  </g>
  <path class="st1" d="M263.71,263.39c-.23,0-.47,0-.7,0-15.55-.33-26.64-11.64-26.37-26.9.25-14.63,11.36-25.45,26.42-25.72,7.9-.16,15.04,2.51,20.1,7.48,4.9,4.81,7.6,11.5,7.6,18.84h0s0,0,0,0c0,7.32-2.71,14.02-7.64,18.84-4.93,4.83-11.8,7.47-19.4,7.47ZM263.68,222.06c-.14,0-.28,0-.42,0-7.5.14-15.15,4.71-15.32,14.62-.18,10.41,7.56,15.23,15.31,15.4,4.88.11,9.01-1.36,11.95-4.24,2.74-2.68,4.25-6.5,4.24-10.76h0c0-4.28-1.5-8.1-4.22-10.77-2.83-2.78-6.82-4.25-11.55-4.25Z"/>
  <g>
    <path class="st1" d="M318.07,312.29c-2.32,0-4.2-1.88-4.2-4.2,0-15.54-12.65-28.19-28.19-28.19h-43.96c-15.54,0-28.19,12.65-28.19,28.19,0,2.32-1.88,4.2-4.2,4.2s-4.2-1.88-4.2-4.2c0-20.17,16.41-36.58,36.58-36.58h43.96c20.17,0,36.58,16.41,36.58,36.58,0,2.32-1.88,4.2-4.2,4.2Z"/>
    <path class="st1" d="M318.07,313.54c-3.01,0-5.45-2.45-5.45-5.45,0-14.85-12.08-26.94-26.94-26.94h-43.96c-14.85,0-26.93,12.08-26.93,26.94,0,3.01-2.45,5.45-5.45,5.45s-5.45-2.45-5.45-5.45c0-20.87,16.98-37.84,37.84-37.84h43.96c20.87,0,37.84,16.98,37.84,37.84,0,3.01-2.45,5.45-5.45,5.45ZM241.72,278.64h43.96c16.24,0,29.45,13.21,29.45,29.45,0,1.62,1.32,2.94,2.94,2.94s2.94-1.32,2.94-2.94c0-19.48-15.85-35.33-35.33-35.33h-43.96c-19.48,0-35.33,15.85-35.33,35.33,0,1.62,1.32,2.94,2.94,2.94s2.94-1.32,2.94-2.94c0-16.24,13.21-29.45,29.45-29.45Z"/>
  </g>
  <path class="st1" d="M165.17,317.79h-66.82c-11.51,0-20.88-9.37-20.88-20.88v-70.68c0-11.51,9.37-20.88,20.88-20.88h104.04c2.46,0,4.69,1.43,5.73,3.66,1.04,2.23.69,4.86-.9,6.74l-17.87,21.21s0,0,0,0c-2.52,2.99-3.91,6.78-3.92,10.69-.03,11.82.32,33.11.62,48.89.11,5.65-2.01,10.98-5.97,15.01-3.96,4.03-9.25,6.26-14.91,6.26ZM98.35,217.98c-4.54,0-8.24,3.7-8.24,8.24v70.68c0,4.54,3.7,8.24,8.24,8.24h66.82c2.23,0,4.32-.88,5.88-2.47,1.56-1.59,2.4-3.69,2.35-5.92-.3-15.84-.65-37.22-.62-49.16.02-6.87,2.47-13.54,6.9-18.8l9.11-10.81h-90.45Z"/>
  <path class="st1" d="M302.19,182h-67.49c-5.65,0-10.95-2.22-14.91-6.26-3.96-4.03-6.08-9.36-5.97-15.01.3-15.78.65-37.07.62-48.89-.01-3.9-1.4-7.7-3.92-10.69h0s-17.87-21.21-17.87-21.21c-1.58-1.88-1.93-4.51-.9-6.74,1.04-2.23,3.27-3.66,5.73-3.66h104.71c11.51,0,20.88,9.37,20.88,20.88v70.69c0,11.51-9.37,20.88-20.88,20.88ZM220.18,93c4.43,5.26,6.88,11.93,6.9,18.8.03,11.94-.32,33.32-.62,49.16-.04,2.23.79,4.33,2.35,5.92,1.56,1.59,3.65,2.47,5.88,2.47h67.49c4.54,0,8.24-3.7,8.24-8.24v-70.69c0-4.54-3.7-8.24-8.24-8.24h-91.12l9.11,10.81Z"/>
  <path class="st0" d="M284.82,100.15c3.35,3.05,5.02,7.21,5.02,12.5s-1.74,9.64-5.23,12.41c-3,2.39-6.86,3.75-11.56,4.09-1.32.09-2.38,1.14-2.45,2.47l-.08,1.59c-.07,1.39-1.22,2.48-2.61,2.48h-3.07c-1.41,0-2.56-1.12-2.61-2.53l-.24-7.6c-.05-1.47,1.13-2.69,2.61-2.69h0c5.28,0,9.32-.71,12.13-2.12,2.8-1.42,4.21-4.11,4.21-8.09,0-2.89-.83-5.15-2.49-6.78-1.66-1.63-3.96-2.45-6.9-2.45s-5.25.79-6.94,2.37c-1.25,1.17-2.04,2.69-2.36,4.55-.21,1.21-1.32,2.06-2.55,2.06h-3.54c-1.62,0-2.83-1.46-2.58-3.06.32-2.05.98-3.94,1.97-5.68,1.47-2.56,3.58-4.55,6.33-5.96,2.75-1.42,5.95-2.12,9.6-2.12,5.55,0,10,1.52,13.35,4.57ZM261.99,152.01c-1.14-1.14-1.72-2.56-1.72-4.25s.57-3.1,1.72-4.25c1.14-1.14,2.56-1.72,4.25-1.72s3.02.57,4.16,1.72c1.14,1.14,1.71,2.56,1.71,4.25s-.57,3.1-1.71,4.25c-1.14,1.14-2.53,1.71-4.16,1.71s-3.1-.57-4.25-1.71Z"/>
  <path class="st0" d="M157.47,245.3h-48.96c-2.33,0-4.21-1.89-4.21-4.21s1.89-4.21,4.21-4.21h48.96c2.33,0,4.21,1.89,4.21,4.21s-1.89,4.21-4.21,4.21Z"/>
  <path class="st0" d="M157.47,264.46h-48.96c-2.33,0-4.21-1.89-4.21-4.21s1.89-4.21,4.21-4.21h48.96c2.33,0,4.21,1.89,4.21,4.21s-1.89,4.21-4.21,4.21Z"/>
  <path class="st0" d="M144.21,285.35h-35.7c-2.33,0-4.21-1.89-4.21-4.21s1.89-4.21,4.21-4.21h35.7c2.33,0,4.21,1.89,4.21,4.21s-1.89,4.21-4.21,4.21Z"/>
</svg>